<?xml version="1.0" standalone="no"?>
<!DOCTYPE svg PUBLIC "-//W3C//DTD SVG 20010904//EN"
 "http://www.w3.org/TR/2001/REC-SVG-20010904/DTD/svg10.dtd">
<svg version="1.0" xmlns="http://www.w3.org/2000/svg"
 width="200.000000pt" height="200.000000pt" viewBox="0 0 200.000000 200.000000"
 preserveAspectRatio="xMidYMid meet">
<metadata>
Created by potrace 1.14, written by Peter Selinger 2001-2017
</metadata>
<g transform="translate(0.000000,200.000000) scale(0.100000,-0.100000)"
fill="#000000" stroke="none">
<path d="M1388 1984 c-3 -2 -24 -6 -49 -8 -24 -3 -45 -6 -46 -7 -3 -2 -2 -1
-58 -14 -22 -5 -42 -9 -45 -10 -3 -1 -18 -5 -35 -9 -31 -9 -79 -24 -155 -51
-120 -43 -418 -204 -468 -252 -7 -7 -18 -13 -23 -13 -5 0 -9 -5 -9 -11 0 -5
19 3 43 19 82 56 98 66 237 139 267 140 499 206 715 205 154 -1 204 -10 290
-54 88 -44 164 -131 182 -208 12 -50 3 -196 -13 -221 -3 -5 1 -9 9 -9 24 0 37
57 37 162 0 116 -21 169 -91 232 -40 37 -123 81 -171 92 -13 3 -27 6 -33 7 -5
2 -14 5 -20 8 -11 7 -291 10 -297 3z"/>
<path d="M1419 1906 c-2 -2 -26 -6 -54 -9 -75 -8 -194 -35 -250 -56 -27 -11
-59 -22 -70 -27 -11 -4 -23 -7 -26 -6 -3 1 -67 -29 -141 -66 -131 -65 -330
-191 -322 -203 9 -16 56 3 129 54 79 54 268 160 293 163 6 1 31 11 55 22 115
55 287 94 426 98 192 4 314 -54 360 -172 22 -55 20 -158 -4 -216 -6 -15 -2
-18 19 -18 39 0 60 53 60 155 0 62 -5 89 -21 120 -42 78 -113 126 -229 150
-62 13 -214 21 -225 11z"/>
<path d="M464 1584 c-18 -14 -18 -15 4 -4 12 6 22 13 22 15 0 8 -5 6 -26 -11z"/>
<path d="M824 1555 c-85 -15 -162 -56 -222 -117 -66 -67 -104 -140 -135 -258
-28 -102 -64 -243 -122 -465 -20 -77 -44 -166 -53 -199 -22 -82 -21 -82 179
-81 l163 0 13 25 c7 14 26 79 42 145 17 66 54 208 82 315 29 107 52 201 52
207 0 20 35 46 51 40 12 -5 10 -23 -15 -119 -45 -167 -128 -486 -141 -540 -18
-77 -13 -79 173 -77 103 0 162 5 172 12 8 7 26 57 41 112 14 55 49 188 77 295
28 107 52 202 54 211 12 60 30 98 48 103 25 6 39 -11 30 -39 -6 -20 -111 -416
-118 -446 -2 -9 -15 -61 -30 -117 -22 -81 -25 -105 -16 -116 10 -12 46 -15
176 -15 197 -1 180 -14 220 159 2 8 18 67 34 130 129 485 143 544 138 610 -2
36 -11 79 -20 95 -85 165 -358 190 -526 49 l-32 -26 -28 29 c-62 65 -180 97
-287 78z"/>
<path d="M1199 314 c-30 -17 -39 -20 -118 -51 -182 -71 -308 -97 -461 -97
-159 0 -260 32 -357 111 -31 25 -50 33 -70 30 -32 -5 -32 -14 3 -67 71 -106
252 -154 484 -128 78 9 228 48 325 85 95 36 257 114 250 121 -11 11 -33 10
-56 -4z"/>
<path d="M10 290 c0 -25 44 -118 68 -145 87 -94 205 -140 372 -144 94 -3 105
9 13 14 -96 4 -144 16 -218 51 -95 45 -161 109 -195 190 -17 40 -40 59 -40 34z"/>
<path d="M865 69 c-30 -9 -52 -14 -102 -25 -15 -3 -29 -7 -33 -9 -6 -4 -110
-17 -152 -19 -15 -1 -30 -5 -34 -9 -11 -11 119 1 201 18 113 24 170 41 160 47
-6 3 -23 1 -40 -3z"/>
</g>
</svg>
