<?xml version="1.0" standalone="no"?>
<svg viewBox="0 0 200 200" xmlns="http://www.w3.org/2000/svg">
  <path fill="#CCDAE7" d="M37.1,-53.8C51.3,-48.7,68,-43.7,77.1,-32.6C86.2,-21.5,87.7,-4.4,82.2,9.6C76.7,23.5,64.3,34.2,53.8,47.1C43.4,60,34.9,75.1,22.3,81.3C9.6,87.5,-7.2,84.7,-19.1,76.2C-31.1,67.6,-38.1,53.3,-47.5,41.6C-56.9,29.9,-68.7,20.7,-71.2,9.7C-73.7,-1.4,-66.8,-14.4,-58.4,-24.1C-49.9,-33.7,-39.8,-40,-29.9,-47.1C-19.9,-54.1,-9.9,-61.8,0.8,-63C11.5,-64.2,23,-59,37.1,-53.8Z" transform="translate(100 100)" />
</svg>
