<?xml version="1.0" encoding="UTF-8"?><svg id="Calque_1" xmlns="http://www.w3.org/2000/svg" xmlns:xlink="http://www.w3.org/1999/xlink" viewBox="0 0 329.82 107.06"><defs><style>.cls-1{fill:#fff;}.cls-1,.cls-2,.cls-3,.cls-4,.cls-5{stroke-miterlimit:10;}.cls-1,.cls-2,.cls-3,.cls-4,.cls-5,.cls-6{stroke:#263238;}.cls-2{stroke-width:4px;}.cls-2,.cls-5,.cls-7{fill:none;}.cls-3,.cls-6{fill:#263238;}.cls-8{clip-path:url(#clippath-2);}.cls-9{fill:#fbba72;}.cls-10{clip-path:url(#clippath-1);}.cls-4,.cls-11{fill:#8f8f8f;}.cls-12{clip-path:url(#clippath);}.cls-6{stroke-miterlimit:10;stroke-width:1px;}.cls-13{isolation:isolate;opacity:.15;}.cls-14{clip-path:url(#clippath-3);}.cls-15{fill:#004785;}</style><clipPath id="clippath"><path class="cls-7" d="M254.69,29.04s-7.1-4.4-39.5-15.1S161.89-.26,129.89,.64,54.79,13.54,46.79,16.64s-11.6,4-9.8,6.2,11.5,10.2,10.2,13.8-23.1,23.1-24.4,26.2,4.4,13.8,5.3,16.4,5.8,3.5,9.8,4,288.2,0,288.2,0c0,0,4-4.9,3.1-11.1s-1.8-14.4-5.9-19.7c-3.2-4.3-6.6-8.8-15-9.6-5.2-.6-52.3-13.3-53.6-13.8Z"/></clipPath><clipPath id="clippath-1"><path class="cls-7" d="M254.69,29.04s-7.1-4.4-39.5-15.1S161.89-.26,129.89,.64,54.79,13.54,46.79,16.64s-11.6,4-9.8,6.2,11.5,10.2,10.2,13.8-23.1,23.1-24.4,26.2,4.4,13.8,5.3,16.4,5.8,3.5,9.8,4,288.2,0,288.2,0c0,0,4-4.9,3.1-11.1s-1.8-14.4-5.9-19.7c-3.2-4.3-6.6-8.8-15-9.6-5.2-.6-52.3-13.3-53.6-13.8Z"/></clipPath><clipPath id="clippath-2"><path class="cls-7" d="M232.49,29.04s-7.1-4.4-39.5-15.1S139.69-.26,107.69,.64,32.59,13.54,24.69,16.64s-11.6,4-9.8,6.2,11.6,10.2,10.2,13.8S1.99,59.74,.69,62.84s4.4,13.8,5.3,16.4,5.8,3.5,9.8,4,288.2,0,288.2,0c0,0,4-4.9,3.1-11.1s-1.9-14.4-5.9-19.7c-3.2-4.3-6.6-8.8-15-9.6-5.3-.6-52.4-13.3-53.7-13.8Z"/></clipPath><clipPath id="clippath-3"><path class="cls-7" d="M64.49,12.64l17.8,18.8H212.89v-4.3s-26.8-10.5-55-16-35.3-5-48-4.8-45.4,6.3-45.4,6.3Z"/></clipPath></defs><g id="freepik--Car--inject-5"><circle class="cls-3" cx="272.69" cy="79.74" r="26.8"/><circle class="cls-6" cx="85.28" cy="79.76" r="26.8" transform="translate(-31.42 83.66) rotate(-45)"/><path class="cls-9" d="M254.69,29.04s-7.1-4.4-39.5-15.1S161.89-.26,129.89,.64,54.79,13.54,46.79,16.64s-11.6,4-9.8,6.2,11.5,10.2,10.2,13.8-23.1,23.1-24.4,26.2,4.4,13.8,5.3,16.4,5.8,3.5,9.8,4,288.2,0,288.2,0c0,0,4-4.9,3.1-11.1s-1.8-14.4-5.9-19.7c-3.2-4.3-6.6-8.8-15-9.6-5.2-.6-52.3-13.3-53.6-13.8Z"/><g class="cls-12"><g><path class="cls-15" d="M254.69,29.04s-7.1-4.4-39.5-15.1S161.89-.26,129.89,.64,54.79,13.54,46.79,16.64s-11.6,4-9.8,6.2,11.5,10.2,10.2,13.8-23.1,23.1-24.4,26.2,4.4,13.8,5.3,16.4,5.8,3.5,9.8,4,288.2,0,288.2,0c0,0,4-4.9,3.1-11.1s-1.8-14.4-5.9-19.7c-3.2-4.3-6.6-8.8-15-9.6-5.2-.6-52.3-13.3-53.6-13.8Z"/><g class="cls-10"><path class="cls-13" d="M254.69,29.04s-7.1-4.4-39.5-15.1S161.89-.26,129.89,.64,54.79,13.54,46.79,16.64s-11.6,4-9.8,6.2,11.5,10.2,10.2,13.8-23.1,23.1-24.4,26.2,4.4,13.8,5.3,16.4,5.8,3.5,9.8,4,288.2,0,288.2,0c0,0,4-4.9,3.1-11.1s-1.8-14.4-5.9-19.7c-3.2-4.3-6.6-8.8-15-9.6-5.2-.6-52.3-13.3-53.6-13.8Z"/></g></g></g><path class="cls-5" d="M254.69,29.04s-7.1-4.4-39.5-15.1S161.89-.26,129.89,.64,54.79,13.54,46.79,16.64s-11.6,4-9.8,6.2,11.5,10.2,10.2,13.8-23.1,23.1-24.4,26.2,4.4,13.8,5.3,16.4,5.8,3.5,9.8,4,288.2,0,288.2,0c0,0,4-4.9,3.1-11.1s-1.8-14.4-5.9-19.7c-3.2-4.3-6.6-8.8-15-9.6-5.2-.6-52.3-13.3-53.6-13.8Z"/><rect class="cls-3" x="309.29" y="60.14" width="16.9" height="4.4"/><path class="cls-1" d="M301.19,52.44h2.7c3.5,0,6.7,2.1,8,5.4l2.7,6.7h-8.8l-4.6-12.1Z"/><path class="cls-1" d="M325.99,57.04c-.1,.3-.2,.6-.3,.9l-1.8,6.7h4.2c-.4-2.7-1.1-5.2-2.1-7.6Z"/><path class="cls-3" d="M254.69,29.04s-7.1-4.4-39.5-15.1c-7.4-2.4-14.2-4.5-20.7-6.2h-22.9l-4.9,1.3,65.7,20h22.3Z"/><path class="cls-4" d="M15.29,21.94v30s18.3-15,16-19.3S15.29,21.94,15.29,21.94Z"/><path class="cls-15" d="M232.49,29.04s-7.1-4.4-39.5-15.1S139.69-.26,107.69,.64,32.59,13.54,24.69,16.64s-11.6,4-9.8,6.2,11.6,10.2,10.2,13.8S1.99,59.74,.69,62.84s4.4,13.8,5.3,16.4,5.8,3.5,9.8,4,288.2,0,288.2,0c0,0,4-4.9,3.1-11.1s-1.9-14.4-5.9-19.7c-3.2-4.3-6.6-8.8-15-9.6-5.3-.6-52.4-13.3-53.7-13.8Z"/><g class="cls-8"><path class="cls-13" d="M301.19,52.44c-3.2-4.3-6.6-8.8-15-9.6-1.4-.1-5.7-1.1-11.4-2.5-26.8-.3-41.8,10.6-81.9,14.3-52.2,4.8-88.4-8.3-131.9-13.5-18.2-2.2-32.8,.5-43.7,4.3C10.49,52.34,1.39,60.94,.59,62.84c-1.3,3.1,4.4,13.8,5.3,16.4s5.8,3.5,9.8,4,288.2,0,288.2,0c0,0,4-4.9,3.1-11.1s-1.8-14.4-5.8-19.7Z"/></g><path class="cls-5" d="M232.49,29.04s-7.1-4.4-39.5-15.1S139.69-.26,107.69,.64,32.59,13.54,24.69,16.64s-11.6,4-9.8,6.2,11.6,10.2,10.2,13.8S1.99,59.74,.69,62.84s4.4,13.8,5.3,16.4,5.8,3.5,9.8,4,288.2,0,288.2,0c0,0,4-4.9,3.1-11.1s-1.9-14.4-5.9-19.7c-3.2-4.3-6.6-8.8-15-9.6-5.3-.6-52.4-13.3-53.7-13.8Z"/><path class="cls-11" d="M64.49,12.64l17.8,18.8H212.89v-4.3s-26.8-10.5-55-16-35.3-5-48-4.8-45.4,6.3-45.4,6.3Z"/><g class="cls-14"><path class="cls-3" d="M128.19,23.24c-16.6-3.8-34-2.4-49.8,4.1l3.9,4.1H212.89v-4.3s-4.3-1.7-11.4-4.1c-14.6,5.7-43.8,6.7-73.3,.2Z"/></g><path class="cls-2" d="M64.49,12.64l17.8,18.8H212.89v-4.3s-26.8-10.5-55-16-35.3-5-48-4.8-45.4,6.3-45.4,6.3Z"/><line class="cls-5" x1="123.59" y1="33.94" x2="123.59" y2="74.74"/><circle class="cls-3" cx="55.09" cy="79.74" r="26.8"/><path class="cls-1" d="M55.09,60.44c-10.7,0-19.3,8.6-19.3,19.3s8.6,19.3,19.3,19.3,19.3-8.6,19.3-19.3h0c0-10.7-8.6-19.3-19.3-19.3Zm13,15.4l-11.2,2.1,3.2-10.9c3.8,1.6,6.8,4.9,8,8.8h0Zm-12,2.9v1.9h-1.9v-1.9h1.9Zm-4.8-12l2.1,11.2-10.9-3.2c1.6-3.8,4.8-6.7,8.8-8h0Zm-9.1,16.9l11.3-2.1-3.2,10.9c-4-1.6-7-4.8-8.1-8.8h0Zm16.8,9.1l-2.1-11.2,10.8,3.2c-1.5,3.9-4.7,6.8-8.7,8h0Z"/><path class="cls-1" d="M61.09,79.74c0-3.3-2.7-6-6-6s-6,2.7-6,6,2.7,6,6,6,6-2.7,6-6Z"/><circle class="cls-3" cx="243.39" cy="79.74" r="26.8"/><path class="cls-1" d="M243.39,60.44c-10.7,0-19.3,8.6-19.3,19.3s8.6,19.3,19.3,19.3,19.3-8.6,19.3-19.3h0c0-10.7-8.6-19.3-19.3-19.3Zm13,15.4l-11.2,2.1,3.2-10.9c3.9,1.6,6.8,4.9,8,8.8h0Zm-12,2.9v1.9h-1.9v-1.9h1.9Zm-4.8-12l2.1,11.2-10.9-3.2c1.6-3.8,4.8-6.8,8.8-8h0Zm-9.1,16.9l11.2-2.1-3.2,10.9c-3.9-1.6-6.8-4.8-8-8.8h0Zm16.8,9.1l-2.1-11.2,10.8,3.2c-1.5,3.9-4.7,6.8-8.7,8h0Z"/><path class="cls-1" d="M249.39,79.74c0-3.3-2.7-6-6-6s-6,2.7-6,6,2.7,6,6,6,6-2.7,6-6Z"/><path class="cls-1" d="M301.19,52.44s-19.9-1-20.8,0,6.7,9,9.3,10.8c2.1,1.4,12,1.1,16.1,1-.8-4.3-2.1-8.6-4.6-11.8Z"/><path class="cls-3" d="M126.89,6.54c-1.3-.1-2.5-.1-3.7-.2l-3.4,25h8.9l-1.8-24.8Z"/></g></svg>