<?xml version="1.0" encoding="UTF-8"?><svg id="Calque_1" xmlns="http://www.w3.org/2000/svg" viewBox="0 0 429.64 277.8"><defs><style>.cls-1{opacity:.5;}.cls-1,.cls-2{fill:#fff;isolation:isolate;}.cls-3{stroke-miterlimit:10;}.cls-3,.cls-4{fill:none;stroke:#263238;}.cls-4{stroke-linecap:round;stroke-linejoin:round;}.cls-2{opacity:.75;}.cls-5{fill:#263238;}.cls-6{fill:#004785;}</style></defs><g id="freepik--background-simple--inject-5"><path class="cls-6" d="M370.1,97.3s-31.6-59.9-97.7-83.1-96.6-2.9-130.5,19c-26.7,17.3-47.5,42.3-69.4,64.4-20,20.3-49.3,36-58.5,64.1-11.7,35.5,14.8,73.8,46.2,94.4,43.9,28.8,86.4,11.2,132.2,4.4h.3c6.7-1,13.4-1.6,20.1-1.6,53.2,.1,91.4,37.7,130.2-1s44.9-114,27.1-160.6Z"/><path class="cls-2" d="M370.1,97.3s-31.6-59.9-97.7-83.1-96.6-2.9-130.5,19c-26.7,17.3-47.5,42.3-69.4,64.4-20,20.3-49.3,36-58.5,64.1-11.7,35.5,14.8,73.8,46.2,94.4,43.9,28.8,86.4,11.2,132.2,4.4h.3c6.7-1,13.4-1.6,20.1-1.6,53.2,.1,91.4,37.7,130.2-1s44.9-114,27.1-160.6Z"/></g><g id="freepik--Buildings--inject-5"><rect class="cls-3" x="57.8" y="127.2" width="8.2" height="8.2"/><rect class="cls-3" x="49" y="132.2" width="3.3" height="3.2"/><polyline class="cls-3" points="384.1 179.1 353.1 179.1 353.1 113.9 355.2 113.9 355.2 107.1 282.8 107.1 282.8 113.9 285.3 113.9 285.3 210.9 266.3 210.9 266.3 2.8 201.1 2.8 201.1 160.1 177.3 160.1 177.3 142.7 183.6 142.7 183.6 135.4 131.5 135.4 131.5 29.8 134.8 29.8 134.8 24.3 71.6 24.3 71.6 29.8 76.2 29.8 76.2 135.5 26.2 135.5 26.2 211.2 0 211.2"/><rect class="cls-3" x="198.2" y=".5" width="70.6" height="2.3"/><rect class="cls-3" x="81.8" y="35.9" width="8" height="8.5"/><rect class="cls-3" x="93.5" y="35.9" width="8" height="8.5"/><rect class="cls-3" x="105.1" y="35.9" width="8" height="8.5"/><rect class="cls-3" x="116.8" y="35.9" width="8" height="8.5"/><rect class="cls-3" x="81.8" y="49.4" width="8" height="8.5"/><rect class="cls-3" x="93.5" y="49.4" width="8" height="8.5"/><rect class="cls-3" x="105.1" y="49.4" width="8" height="8.5"/><rect class="cls-3" x="116.8" y="49.4" width="8" height="8.5"/><rect class="cls-3" x="81.8" y="62.9" width="8" height="8.5"/><rect class="cls-3" x="93.5" y="62.9" width="8" height="8.5"/><rect class="cls-3" x="105.1" y="62.9" width="8" height="8.5"/><rect class="cls-3" x="116.8" y="62.9" width="8" height="8.5"/><rect class="cls-3" x="81.8" y="76.4" width="8" height="8.5"/><rect class="cls-3" x="93.5" y="76.4" width="8" height="8.5"/><rect class="cls-3" x="105.1" y="76.4" width="8" height="8.5"/><rect class="cls-3" x="116.8" y="76.4" width="8" height="8.5"/><rect class="cls-3" x="81.8" y="89.9" width="8" height="8.5"/><rect class="cls-3" x="93.5" y="89.9" width="8" height="8.5"/><rect class="cls-3" x="105.1" y="89.9" width="8" height="8.5"/><rect class="cls-3" x="116.8" y="89.9" width="8" height="8.5"/><rect class="cls-3" x="81.8" y="103.4" width="8" height="8.5"/><rect class="cls-3" x="93.5" y="103.4" width="8" height="8.5"/><rect class="cls-3" x="105.1" y="103.4" width="8" height="8.5"/><rect class="cls-3" x="116.8" y="103.4" width="8" height="8.5"/><rect class="cls-3" x="81.8" y="116.9" width="8" height="8.5"/><rect class="cls-3" x="93.5" y="116.9" width="8" height="8.5"/><rect class="cls-3" x="105.1" y="116.9" width="8" height="8.5"/><rect class="cls-3" x="116.8" y="116.9" width="8" height="8.5"/><rect class="cls-3" x="81.8" y="130.4" width="8" height="8.5"/><rect class="cls-3" x="93.5" y="130.4" width="8" height="8.5"/><rect class="cls-3" x="105.1" y="130.4" width="8" height="8.5"/><rect class="cls-3" x="116.8" y="130.4" width="8" height="8.5"/><rect class="cls-3" x="81.8" y="142.8" width="8" height="8.5"/><rect class="cls-3" x="93.5" y="142.8" width="8" height="8.5"/><rect class="cls-3" x="105.1" y="142.8" width="8" height="8.5"/><rect class="cls-3" x="116.8" y="142.8" width="8" height="8.5"/><rect class="cls-3" x="81.8" y="156.3" width="8" height="8.5"/><rect class="cls-3" x="93.5" y="156.3" width="8" height="8.5"/><rect class="cls-3" x="105.1" y="156.3" width="8" height="8.5"/><rect class="cls-3" x="116.8" y="156.3" width="8" height="8.5"/><rect class="cls-3" x="81.8" y="169.8" width="8" height="8.5"/><rect class="cls-3" x="93.5" y="169.8" width="8" height="8.5"/><rect class="cls-3" x="105.1" y="169.8" width="8" height="8.5"/><rect class="cls-3" x="116.8" y="169.8" width="8" height="8.5"/><rect class="cls-3" x="81.8" y="183.3" width="8" height="8.5"/><rect class="cls-3" x="93.5" y="183.3" width="8" height="8.5"/><rect class="cls-3" x="105.1" y="183.3" width="8" height="8.5"/><rect class="cls-3" x="116.8" y="183.3" width="8" height="8.5"/><rect class="cls-3" x="81.8" y="196.8" width="8" height="8.5"/><rect class="cls-3" x="93.5" y="196.8" width="8" height="8.5"/><rect class="cls-3" x="105.1" y="196.8" width="8" height="8.5"/><rect class="cls-3" x="116.8" y="196.8" width="8" height="8.5"/><rect class="cls-3" x="81.8" y="210.3" width="8" height="8.5"/><rect class="cls-3" x="93.5" y="210.3" width="8" height="8.5"/><rect class="cls-3" x="105.1" y="210.3" width="8" height="8.5"/><rect class="cls-3" x="116.8" y="210.3" width="8" height="8.5"/><rect class="cls-3" x="81.8" y="223.8" width="8" height="8.5"/><rect class="cls-3" x="93.5" y="223.8" width="8" height="8.5"/><rect class="cls-3" x="105.1" y="223.8" width="8" height="8.5"/><rect class="cls-3" x="116.8" y="223.8" width="8" height="8.5"/><rect class="cls-3" x="81.8" y="237.3" width="8" height="8.5"/><rect class="cls-3" x="93.5" y="237.3" width="8" height="8.5"/><rect class="cls-3" x="105.1" y="237.3" width="8" height="8.5"/><rect class="cls-3" x="116.8" y="237.3" width="8" height="8.5"/><rect class="cls-3" x="127.4" y="142.8" width="8" height="8.5"/><rect class="cls-3" x="139.1" y="142.8" width="8" height="8.5"/><rect class="cls-3" x="150.7" y="142.8" width="8" height="8.5"/><rect class="cls-3" x="162.4" y="142.8" width="8" height="8.5"/><rect class="cls-3" x="127.4" y="156.3" width="8" height="8.5"/><rect class="cls-3" x="139.1" y="156.3" width="8" height="8.5"/><rect class="cls-3" x="150.7" y="156.3" width="8" height="8.5"/><rect class="cls-3" x="162.4" y="156.3" width="8" height="8.5"/><rect class="cls-3" x="127.4" y="169.8" width="8" height="8.5"/><rect class="cls-3" x="139.1" y="169.8" width="8" height="8.5"/><rect class="cls-3" x="150.7" y="169.8" width="8" height="8.5"/><rect class="cls-3" x="162.4" y="169.8" width="8" height="8.5"/><rect class="cls-3" x="127.4" y="183.3" width="8" height="8.5"/><rect class="cls-3" x="139.1" y="183.3" width="8" height="8.5"/><rect class="cls-3" x="150.7" y="183.3" width="8" height="8.5"/><rect class="cls-3" x="162.4" y="183.3" width="8" height="8.5"/><rect class="cls-3" x="127.4" y="196.8" width="8" height="8.5"/><rect class="cls-3" x="139.1" y="196.8" width="8" height="8.5"/><rect class="cls-3" x="150.7" y="196.8" width="8" height="8.5"/><rect class="cls-3" x="162.4" y="196.8" width="8" height="8.5"/><rect class="cls-3" x="127.4" y="210.3" width="8" height="8.5"/><rect class="cls-3" x="139.1" y="210.3" width="8" height="8.5"/><rect class="cls-3" x="150.7" y="210.3" width="8" height="8.5"/><rect class="cls-3" x="162.4" y="210.3" width="8" height="8.5"/><rect class="cls-3" x="127.4" y="223.8" width="8" height="8.5"/><rect class="cls-3" x="139.1" y="223.8" width="8" height="8.5"/><rect class="cls-3" x="150.7" y="223.8" width="8" height="8.5"/><rect class="cls-3" x="162.4" y="223.8" width="8" height="8.5"/><rect class="cls-3" x="127.4" y="237.3" width="8" height="8.5"/><rect class="cls-3" x="139.1" y="237.3" width="8" height="8.5"/><rect class="cls-3" x="150.7" y="237.3" width="8" height="8.5"/><rect class="cls-3" x="162.4" y="237.3" width="8" height="8.5"/><rect class="cls-3" x="35.6" y="142.8" width="8" height="8.5"/><rect class="cls-3" x="47.3" y="142.8" width="8" height="8.5"/><rect class="cls-3" x="58.9" y="142.8" width="8" height="8.5"/><rect class="cls-3" x="70.6" y="142.8" width="8" height="8.5"/><rect class="cls-3" x="35.6" y="156.3" width="8" height="8.5"/><rect class="cls-3" x="47.3" y="156.3" width="8" height="8.5"/><rect class="cls-3" x="58.9" y="156.3" width="8" height="8.5"/><rect class="cls-3" x="70.6" y="156.3" width="8" height="8.5"/><rect class="cls-3" x="35.6" y="169.8" width="8" height="8.5"/><rect class="cls-3" x="47.3" y="169.8" width="8" height="8.5"/><rect class="cls-3" x="58.9" y="169.8" width="8" height="8.5"/><rect class="cls-3" x="70.6" y="169.8" width="8" height="8.5"/><rect class="cls-3" x="35.6" y="183.3" width="8" height="8.5"/><rect class="cls-3" x="47.3" y="183.3" width="8" height="8.5"/><rect class="cls-3" x="58.9" y="183.3" width="8" height="8.5"/><rect class="cls-3" x="70.6" y="183.3" width="8" height="8.5"/><rect class="cls-3" x="35.6" y="196.8" width="8" height="8.5"/><rect class="cls-3" x="47.3" y="196.8" width="8" height="8.5"/><rect class="cls-3" x="58.9" y="196.8" width="8" height="8.5"/><rect class="cls-3" x="70.6" y="196.8" width="8" height="8.5"/><rect class="cls-3" x="35.6" y="210.3" width="8" height="8.5"/><rect class="cls-3" x="47.3" y="210.3" width="8" height="8.5"/><rect class="cls-3" x="58.9" y="210.3" width="8" height="8.5"/><rect class="cls-3" x="70.6" y="210.3" width="8" height="8.5"/><rect class="cls-3" x="35.6" y="223.8" width="8" height="8.5"/><rect class="cls-3" x="47.3" y="223.8" width="8" height="8.5"/><rect class="cls-3" x="58.9" y="223.8" width="8" height="8.5"/><rect class="cls-3" x="70.6" y="223.8" width="8" height="8.5"/><rect class="cls-3" x="35.6" y="237.3" width="8" height="8.5"/><rect class="cls-3" x="47.3" y="237.3" width="8" height="8.5"/><rect class="cls-3" x="58.9" y="237.3" width="8" height="8.5"/><rect class="cls-3" x="70.6" y="237.3" width="8" height="8.5"/><rect class="cls-3" x="296.3" y="116.3" width="8" height="8.5"/><rect class="cls-3" x="308" y="116.3" width="8" height="8.5"/><rect class="cls-3" x="319.6" y="116.3" width="8" height="8.5"/><rect class="cls-3" x="331.3" y="116.3" width="8" height="8.5"/><rect class="cls-3" x="296.3" y="129.8" width="8" height="8.5"/><rect class="cls-3" x="308" y="129.8" width="8" height="8.5"/><rect class="cls-3" x="319.6" y="129.8" width="8" height="8.5"/><rect class="cls-3" x="331.3" y="129.8" width="8" height="8.5"/><rect class="cls-3" x="296.3" y="143.3" width="8" height="8.5"/><rect class="cls-3" x="308" y="143.3" width="8" height="8.5"/><rect class="cls-3" x="319.6" y="143.3" width="8" height="8.5"/><rect class="cls-3" x="331.3" y="143.3" width="8" height="8.5"/><rect class="cls-3" x="296.3" y="156.8" width="8" height="8.5"/><rect class="cls-3" x="308" y="156.8" width="8" height="8.5"/><rect class="cls-3" x="319.6" y="156.8" width="8" height="8.5"/><rect class="cls-3" x="331.3" y="156.8" width="8" height="8.5"/><rect class="cls-3" x="296.3" y="170.4" width="8" height="8.5"/><rect class="cls-3" x="308" y="170.4" width="8" height="8.5"/><rect class="cls-3" x="319.6" y="170.4" width="8" height="8.5"/><rect class="cls-3" x="331.3" y="170.4" width="8" height="8.5"/><rect class="cls-3" x="296.3" y="183.9" width="8" height="8.5"/><rect class="cls-3" x="308" y="183.9" width="8" height="8.5"/><rect class="cls-3" x="319.6" y="183.9" width="8" height="8.5"/><rect class="cls-3" x="331.3" y="183.9" width="8" height="8.5"/><rect class="cls-3" x="296.3" y="197.4" width="8" height="8.5"/><rect class="cls-3" x="308" y="197.4" width="8" height="8.5"/><rect class="cls-3" x="319.6" y="197.4" width="8" height="8.5"/><rect class="cls-3" x="331.3" y="197.4" width="8" height="8.5"/><rect class="cls-3" x="296.3" y="210.9" width="8" height="8.5"/><rect class="cls-3" x="308" y="210.9" width="8" height="8.5"/><rect class="cls-3" x="319.6" y="210.9" width="8" height="8.5"/><rect class="cls-3" x="331.3" y="210.9" width="8" height="8.5"/><line class="cls-3" x1="207.3" y1="7.7" x2="207.3" y2="254.4"/><line class="cls-3" x1="215.2" y1="7.7" x2="215.2" y2="254.4"/><line class="cls-3" x1="223.1" y1="7.7" x2="223.1" y2="254.4"/><line class="cls-3" x1="231" y1="7.7" x2="231" y2="254.4"/><line class="cls-3" x1="238.8" y1="7.7" x2="238.8" y2="254.4"/><line class="cls-3" x1="246.7" y1="7.7" x2="246.7" y2="254.4"/><line class="cls-3" x1="254.6" y1="7.7" x2="254.6" y2="254.4"/><line class="cls-3" x1="262.5" y1="7.7" x2="262.5" y2="254.4"/><rect class="cls-3" x="40.9" y="250.1" width="141.5" height="8"/><rect class="cls-3" x="269.3" y="250.1" width="127.1" height="8"/></g><g id="freepik--Trees--inject-5"><path class="cls-6" d="M257.4,249.8s13.9,1.4,20.9,10c0,0,7.4-10,20.8-9.8,9.5-11.5,8-28.5-3.5-38s-28.5-8-38,3.5c-8.3,10-8.4,24.4-.2,34.3h0Z"/><path class="cls-1" d="M257.4,249.8s13.9,1.4,20.9,10c0,0,7.4-10,20.8-9.8,9.5-11.5,8-28.5-3.5-38s-28.5-8-38,3.5c-8.3,10-8.4,24.4-.2,34.3h0Z"/><polygon class="cls-5" points="277.8 207.8 277.4 277.3 279.7 277.3 277.8 207.8"/><path class="cls-5" d="M278.6,257.2s4.7-8.4,13.1-11c0,0-8.9,2.1-13.4,9.4l.3,1.6Z"/><path class="cls-5" d="M278.6,233.3s4.7-8.4,13.1-11c0,0-8.9,2.1-13.4,9.4l.3,1.6Z"/><path class="cls-5" d="M278.6,245.2s4.7-8.4,13.1-11c0,0-8.9,2.1-13.4,9.4l.3,1.6Z"/><path class="cls-5" d="M277.8,239.4s-4.5-8.4-12.6-11c0,0,8.6,2.1,12.9,9.4l-.3,1.6Z"/><path class="cls-5" d="M277.8,251.1s-4.5-8.4-12.6-11c0,0,8.6,2.1,12.9,9.4l-.3,1.6Z"/><path class="cls-6" d="M322.7,244.6s16.5,1.6,24.9,11.9c0,0,8.9-11.9,24.8-11.6,11.3-13.7,9.4-33.9-4.2-45.2-13.7-11.3-33.9-9.4-45.2,4.2-9.9,11.7-10,28.8-.3,40.7h0Z"/><path class="cls-1" d="M322.7,244.6s16.5,1.6,24.9,11.9c0,0,8.9-11.9,24.8-11.6,11.3-13.7,9.4-33.9-4.2-45.2-13.7-11.3-33.9-9.4-45.2,4.2-9.9,11.7-10,28.8-.3,40.7h0Z"/><polygon class="cls-5" points="347.1 194.5 346.5 277.3 349.3 277.3 347.1 194.5"/><path class="cls-5" d="M347.9,253.3s5.6-10,15.6-13.1c0,0-10.6,2.5-15.9,11.2l.3,1.9Z"/><path class="cls-5" d="M347.9,224.9s5.6-10,15.6-13.1c0,0-10.6,2.5-15.9,11.2l.3,1.9Z"/><path class="cls-5" d="M347.9,239.1s5.6-10,15.6-13.1c0,0-10.6,2.5-15.9,11.2l.3,1.9Z"/><path class="cls-5" d="M347.1,232.1s-5.4-10-15.1-13.1c0,0,10.2,2.5,15.3,11.2l-.2,1.9Z"/><path class="cls-5" d="M347.1,246.1s-5.4-10-15.1-13.1c0,0,10.2,2.5,15.3,11.2l-.2,1.9Z"/><path class="cls-6" d="M389.3,254.1s11.7,1.2,17.6,8.4c4.3-5.2,10.7-8.2,17.5-8.2,8-9.7,6.7-24-3-32s-24-6.7-32,3c-6.9,8.3-7,20.4-.1,28.8h0Z"/><path class="cls-1" d="M389.3,254.1s11.7,1.2,17.6,8.4c4.3-5.2,10.7-8.2,17.5-8.2,8-9.7,6.7-24-3-32s-24-6.7-32,3c-6.9,8.3-7,20.4-.1,28.8h0Z"/><polygon class="cls-5" points="406.5 218.7 406.1 277.3 408.1 277.3 406.5 218.7"/><path class="cls-5" d="M407.1,260.3s3.9-7.1,11-9.3c0,0-7.5,1.8-11.2,7.9l.2,1.4Z"/><path class="cls-5" d="M407.1,240.2s3.9-7.1,11-9.3c0,0-7.5,1.8-11.2,7.9l.2,1.4Z"/><path class="cls-5" d="M407.1,250.3s3.9-7.1,11-9.3c0,0-7.5,1.8-11.2,7.9l.2,1.4Z"/><path class="cls-5" d="M406.5,245.3s-3.8-7.1-10.7-9.3c0,0,7.2,1.8,10.9,7.9l-.2,1.4Z"/><path class="cls-5" d="M406.5,255.2s-3.8-7.1-10.7-9.3c0,0,7.2,1.8,10.9,7.9l-.2,1.4Z"/><path class="cls-6" d="M15.9,249.8s13.9,1.4,20.9,10c0,0,7.4-10,20.8-9.8,9.5-11.5,8-28.5-3.5-38s-28.5-8-38,3.5c-8.3,10-8.4,24.4-.2,34.3h0Z"/><path class="cls-1" d="M15.9,249.8s13.9,1.4,20.9,10c0,0,7.4-10,20.8-9.8,9.5-11.5,8-28.5-3.5-38s-28.5-8-38,3.5c-8.3,10-8.4,24.4-.2,34.3h0Z"/><polygon class="cls-5" points="36.3 207.8 35.8 277.3 38.2 277.3 36.3 207.8"/><path class="cls-5" d="M37,257.2s4.7-8.4,13.1-11c0,0-8.9,2.1-13.3,9.4l.2,1.6Z"/><path class="cls-5" d="M37,233.3s4.7-8.4,13.1-11c0,0-8.9,2.1-13.3,9.4l.2,1.6Z"/><path class="cls-5" d="M37,245.2s4.7-8.4,13.1-11c0,0-8.9,2.1-13.3,9.4l.2,1.6Z"/><path class="cls-5" d="M36.3,239.4s-4.5-8.4-12.7-11c0,0,8.6,2.1,12.9,9.4l-.2,1.6Z"/><path class="cls-5" d="M36.3,251.1s-4.5-8.4-12.7-11c0,0,8.6,2.1,12.9,9.4l-.2,1.6Z"/><path class="cls-6" d="M81.2,244.6s16.5,1.6,24.9,11.9c0,0,8.9-11.9,24.8-11.6,11.3-13.7,9.4-33.9-4.2-45.2-13.7-11.3-33.9-9.4-45.2,4.2-9.9,11.7-10,28.8-.3,40.7h0Z"/><path class="cls-1" d="M81.2,244.6s16.5,1.6,24.9,11.9c0,0,8.9-11.9,24.8-11.6,11.3-13.7,9.4-33.9-4.2-45.2-13.7-11.3-33.9-9.4-45.2,4.2-9.9,11.7-10,28.8-.3,40.7h0Z"/><polygon class="cls-5" points="105.6 194.5 105 277.3 107.8 277.3 105.6 194.5"/><path class="cls-5" d="M106.4,253.3s5.6-10,15.6-13.1c0,0-10.6,2.5-15.9,11.2l.3,1.9Z"/><path class="cls-5" d="M106.4,224.9s5.6-10,15.6-13.1c0,0-10.6,2.5-15.9,11.2l.3,1.9Z"/><path class="cls-5" d="M106.4,239.1s5.6-10,15.6-13.1c0,0-10.6,2.5-15.9,11.2l.3,1.9Z"/><path class="cls-5" d="M105.6,232.1s-5.4-10-15.1-13.1c0,0,10.2,2.5,15.4,11.2l-.3,1.9Z"/><path class="cls-5" d="M105.6,246.1s-5.4-10-15.1-13.1c0,0,10.2,2.5,15.4,11.2l-.3,1.9Z"/><path class="cls-6" d="M147.7,254.1s11.7,1.2,17.6,8.4c4.3-5.2,10.7-8.2,17.5-8.2,8-9.7,6.7-24-3-32s-24-6.7-32,3c-6.9,8.3-6.9,20.4-.1,28.8h0Z"/><path class="cls-1" d="M147.7,254.1s11.7,1.2,17.6,8.4c4.3-5.2,10.7-8.2,17.5-8.2,8-9.7,6.7-24-3-32s-24-6.7-32,3c-6.9,8.3-6.9,20.4-.1,28.8h0Z"/><polygon class="cls-5" points="165 218.7 164.6 277.3 166.6 277.3 165 218.7"/><path class="cls-5" d="M165.6,260.3s3.9-7.1,11.1-9.3c0,0-7.5,1.8-11.2,7.9l.1,1.4Z"/><path class="cls-5" d="M165.6,240.2s3.9-7.1,11.1-9.3c0,0-7.5,1.8-11.2,7.9l.1,1.4Z"/><path class="cls-5" d="M165.6,250.3s3.9-7.1,11.1-9.3c0,0-7.5,1.8-11.2,7.9l.1,1.4Z"/><path class="cls-5" d="M165,245.3s-3.8-7.1-10.7-9.3c0,0,7.2,1.8,10.9,7.9l-.2,1.4Z"/><path class="cls-5" d="M165,255.2s-3.8-7.1-10.7-9.3c0,0,7.2,1.8,10.9,7.9l-.2,1.4Z"/></g><g id="freepik--Floor--inject-5"><line class="cls-4" x1="14.1" y1="277.3" x2="422.9" y2="277.3"/></g></svg>