<svg xmlns="http://www.w3.org/2000/svg" viewBox="0 0 750 500"><g id="freepik--background-simple--inject-2"><path d="M692.76,364.88c17.27-32,19.82-68.47,15.77-103.71-3.59-31.26-9-67.12-24.17-95.33C646,94.36,548.89,60.81,470.07,82.3c-32.88,9-55.94,29.75-82.33,49.53-19.52,14.62-40.93,28.89-66.15,31.81-60.39,7-129.12-50-186.39-45s-102,56-104.13,100,41.65,89,37.49,119-31.24,110,76,113,163.48-57,205.14-44,133.28,51,210.33,41c50.27-6.53,99.42-31.21,127-73.15Q690.13,369.78,692.76,364.88Z" style="fill:#004785"></path><path d="M692.76,364.88c17.27-32,19.82-68.47,15.77-103.71-3.59-31.26-9-67.12-24.17-95.33C646,94.36,548.89,60.81,470.07,82.3c-32.88,9-55.94,29.75-82.33,49.53-19.52,14.62-40.93,28.89-66.15,31.81-60.39,7-129.12-50-186.39-45s-102,56-104.13,100,41.65,89,37.49,119-31.24,110,76,113,163.48-57,205.14-44,133.28,51,210.33,41c50.27-6.53,99.42-31.21,127-73.15Q690.13,369.78,692.76,364.88Z" style="fill:#fff;opacity:0.8"></path></g><g id="freepik--Floor--inject-2"><path d="M727,468.33H27.81a.5.5,0,0,1-.5-.5.5.5,0,0,1,.5-.5H727a.5.5,0,0,1,.5.5A.5.5,0,0,1,727,468.33Z" style="fill:#263238"></path></g><g id="freepik--City--inject-2"><path d="M671.9,317.45a.5.5,0,0,1-.5-.5V102.09H625.92V208.66h-20V137.37H573.82V246.15H554.51V181.47H540.72v67.62H530.57V185H518.19v64.08H497.47v-9.56H465.9V156.67H415.38V238.8H335.51V101.35H278.77v61H244V91.68H190.75V252.76H177.08v-83h-48.3V211.6h-26v89.68H72.65a.51.51,0,0,1-.5-.5.5.5,0,0,1,.5-.5h29.08V210.6h26.05V168.71h50.3v83h11.67V90.68H245v70.68h32.8v-61h58.74V237.8h77.87V155.67H466.9v82.86h31.57v9.56h18.72V184h14.38v64.08h8.15V180.47h15.79v64.68h17.31V136.37h34.09v71.29h18V101.09H672.4V317A.5.5,0,0,1,671.9,317.45Z" style="fill:#263238"></path><path d="M116.11,233.65h-6.63V225.3h6.63Zm-5.63-1h4.63V226.3h-4.63Z" style="fill:#263238"></path><path d="M125.26,233.65h-6.63V225.3h6.63Zm-5.63-1h4.63V226.3h-4.63Z" style="fill:#263238"></path><path d="M134.42,233.65h-6.64V225.3h6.64Zm-5.64-1h4.64V226.3h-4.64Z" style="fill:#263238"></path><path d="M143.57,233.65h-6.63V225.3h6.63Zm-5.63-1h4.63V226.3h-4.63Z" style="fill:#263238"></path><path d="M152.73,233.65h-6.64V225.3h6.64Zm-5.64-1h4.64V226.3h-4.64Z" style="fill:#263238"></path><path d="M161.88,233.65h-6.63V225.3h6.63Zm-5.63-1h4.63V226.3h-4.63Z" style="fill:#263238"></path><path d="M204.83,179.26H198.2v-8.35h6.63Zm-5.63-1h4.63v-6.35H199.2Z" style="fill:#263238"></path><path d="M214,179.26h-6.64v-8.35H214Zm-5.64-1H213v-6.35h-4.64Z" style="fill:#263238"></path><path d="M223.14,179.26h-6.63v-8.35h6.63Zm-5.63-1h4.63v-6.35h-4.63Z" style="fill:#263238"></path><path d="M232.3,179.26h-6.64v-8.35h6.64Zm-5.64-1h4.64v-6.35h-4.64Z" style="fill:#263238"></path><path d="M204.83,166H198.2v-8.35h6.63Zm-5.63-1h4.63v-6.35H199.2Z" style="fill:#263238"></path><path d="M214,166h-6.64v-8.35H214Zm-5.64-1H213v-6.35h-4.64Z" style="fill:#263238"></path><path d="M223.14,166h-6.63v-8.35h6.63Zm-5.63-1h4.63v-6.35h-4.63Z" style="fill:#263238"></path><path d="M232.3,166h-6.64v-8.35h6.64Zm-5.64-1h4.64v-6.35h-4.64Z" style="fill:#263238"></path><path d="M204.83,152.8H198.2v-8.35h6.63Zm-5.63-1h4.63v-6.35H199.2Z" style="fill:#263238"></path><path d="M214,152.8h-6.64v-8.35H214Zm-5.64-1H213v-6.35h-4.64Z" style="fill:#263238"></path><path d="M223.14,152.8h-6.63v-8.35h6.63Zm-5.63-1h4.63v-6.35h-4.63Z" style="fill:#263238"></path><path d="M232.3,152.8h-6.64v-8.35h6.64Zm-5.64-1h4.64v-6.35h-4.64Z" style="fill:#263238"></path><path d="M204.83,139.57H198.2v-8.35h6.63Zm-5.63-1h4.63v-6.35H199.2Z" style="fill:#263238"></path><path d="M214,139.57h-6.64v-8.35H214Zm-5.64-1H213v-6.35h-4.64Z" style="fill:#263238"></path><path d="M223.14,139.57h-6.63v-8.35h6.63Zm-5.63-1h4.63v-6.35h-4.63Z" style="fill:#263238"></path><path d="M232.3,139.57h-6.64v-8.35h6.64Zm-5.64-1h4.64v-6.35h-4.64Z" style="fill:#263238"></path><path d="M204.83,126.34H198.2V118h6.63Zm-5.63-1h4.63V119H199.2Z" style="fill:#263238"></path><path d="M214,126.34h-6.64V118H214Zm-5.64-1H213V119h-4.64Z" style="fill:#263238"></path><path d="M223.14,126.34h-6.63V118h6.63Zm-5.63-1h4.63V119h-4.63Z" style="fill:#263238"></path><path d="M232.3,126.34h-6.64V118h6.64Zm-5.64-1h4.64V119h-4.64Z" style="fill:#263238"></path><path d="M241.45,179.26h-6.63v-8.35h6.63Zm-5.63-1h4.63v-6.35h-4.63Z" style="fill:#263238"></path><path d="M250.6,179.26H244v-8.35h6.63Zm-5.63-1h4.63v-6.35H245Z" style="fill:#263238"></path><path d="M204.83,194H198.2v-8.35h6.63Zm-5.63-1h4.63v-6.35H199.2Z" style="fill:#263238"></path><path d="M214,194h-6.64v-8.35H214Zm-5.64-1H213v-6.35h-4.64Z" style="fill:#263238"></path><path d="M223.14,194h-6.63v-8.35h6.63Zm-5.63-1h4.63v-6.35h-4.63Z" style="fill:#263238"></path><path d="M232.3,194h-6.64v-8.35h6.64Zm-5.64-1h4.64v-6.35h-4.64Z" style="fill:#263238"></path><path d="M241.45,194h-6.63v-8.35h6.63Zm-5.63-1h4.63v-6.35h-4.63Z" style="fill:#263238"></path><path d="M250.6,194H244v-8.35h6.63ZM245,193h4.63v-6.35H245Z" style="fill:#263238"></path><path d="M116.11,249.09h-6.63v-8.35h6.63Zm-5.63-1h4.63v-6.35h-4.63Z" style="fill:#263238"></path><path d="M125.26,249.09h-6.63v-8.35h6.63Zm-5.63-1h4.63v-6.35h-4.63Z" style="fill:#263238"></path><path d="M134.42,249.09h-6.64v-8.35h6.64Zm-5.64-1h4.64v-6.35h-4.64Z" style="fill:#263238"></path><path d="M143.57,249.09h-6.63v-8.35h6.63Zm-5.63-1h4.63v-6.35h-4.63Z" style="fill:#263238"></path><path d="M152.73,249.09h-6.64v-8.35h6.64Zm-5.64-1h4.64v-6.35h-4.64Z" style="fill:#263238"></path><path d="M161.88,249.09h-6.63v-8.35h6.63Zm-5.63-1h4.63v-6.35h-4.63Z" style="fill:#263238"></path><path d="M116.11,264.53h-6.63v-8.35h6.63Zm-5.63-1h4.63v-6.35h-4.63Z" style="fill:#263238"></path><path d="M125.26,264.53h-6.63v-8.35h6.63Zm-5.63-1h4.63v-6.35h-4.63Z" style="fill:#263238"></path><path d="M134.42,264.53h-6.64v-8.35h6.64Zm-5.64-1h4.64v-6.35h-4.64Z" style="fill:#263238"></path><path d="M143.57,264.53h-6.63v-8.35h6.63Zm-5.63-1h4.63v-6.35h-4.63Z" style="fill:#263238"></path><path d="M152.73,264.53h-6.64v-8.35h6.64Zm-5.64-1h4.64v-6.35h-4.64Z" style="fill:#263238"></path><path d="M161.88,264.53h-6.63v-8.35h6.63Zm-5.63-1h4.63v-6.35h-4.63Z" style="fill:#263238"></path><path d="M116.11,280h-6.63v-8.35h6.63Zm-5.63-1h4.63v-6.35h-4.63Z" style="fill:#263238"></path><path d="M125.26,280h-6.63v-8.35h6.63Zm-5.63-1h4.63v-6.35h-4.63Z" style="fill:#263238"></path><path d="M134.42,280h-6.64v-8.35h6.64Zm-5.64-1h4.64v-6.35h-4.64Z" style="fill:#263238"></path><path d="M143.57,280h-6.63v-8.35h6.63Zm-5.63-1h4.63v-6.35h-4.63Z" style="fill:#263238"></path><path d="M152.73,280h-6.64v-8.35h6.64Zm-5.64-1h4.64v-6.35h-4.64Z" style="fill:#263238"></path><path d="M161.88,280h-6.63v-8.35h6.63Zm-5.63-1h4.63v-6.35h-4.63Z" style="fill:#263238"></path><path d="M116.11,295.4h-6.63v-8.35h6.63Zm-5.63-1h4.63v-6.35h-4.63Z" style="fill:#263238"></path><path d="M125.26,295.4h-6.63v-8.35h6.63Zm-5.63-1h4.63v-6.35h-4.63Z" style="fill:#263238"></path><path d="M134.42,295.4h-6.64v-8.35h6.64Zm-5.64-1h4.64v-6.35h-4.64Z" style="fill:#263238"></path><path d="M143.57,295.4h-6.63v-8.35h6.63Zm-5.63-1h4.63v-6.35h-4.63Z" style="fill:#263238"></path><path d="M152.73,295.4h-6.64v-8.35h6.64Zm-5.64-1h4.64v-6.35h-4.64Z" style="fill:#263238"></path><path d="M161.88,295.4h-6.63v-8.35h6.63Zm-5.63-1h4.63v-6.35h-4.63Z" style="fill:#263238"></path><path d="M649.16,124.87h-6.63v-8.35h6.63Zm-5.63-1h4.63v-6.35h-4.63Z" style="fill:#263238"></path><path d="M658.32,124.87h-6.64v-8.35h6.64Zm-5.64-1h4.64v-6.35h-4.64Z" style="fill:#263238"></path><path d="M667.47,124.87h-6.63v-8.35h6.63Zm-5.63-1h4.63v-6.35h-4.63Z" style="fill:#263238"></path><path d="M649.16,143.25h-6.63V134.9h6.63Zm-5.63-1h4.63V135.9h-4.63Z" style="fill:#263238"></path><path d="M658.32,143.25h-6.64V134.9h6.64Zm-5.64-1h4.64V135.9h-4.64Z" style="fill:#263238"></path><path d="M667.47,143.25h-6.63V134.9h6.63Zm-5.63-1h4.63V135.9h-4.63Z" style="fill:#263238"></path><path d="M649.16,161.62h-6.63v-8.35h6.63Zm-5.63-1h4.63v-6.35h-4.63Z" style="fill:#263238"></path><path d="M658.32,161.62h-6.64v-8.35h6.64Zm-5.64-1h4.64v-6.35h-4.64Z" style="fill:#263238"></path><path d="M667.47,161.62h-6.63v-8.35h6.63Zm-5.63-1h4.63v-6.35h-4.63Z" style="fill:#263238"></path><path d="M649.16,180h-6.63v-8.35h6.63Zm-5.63-1h4.63v-6.35h-4.63Z" style="fill:#263238"></path><path d="M658.32,180h-6.64v-8.35h6.64Zm-5.64-1h4.64v-6.35h-4.64Z" style="fill:#263238"></path><path d="M667.47,180h-6.63v-8.35h6.63Zm-5.63-1h4.63v-6.35h-4.63Z" style="fill:#263238"></path><path d="M649.16,198.37h-6.63V190h6.63Zm-5.63-1h4.63V191h-4.63Z" style="fill:#263238"></path><path d="M658.32,198.37h-6.64V190h6.64Zm-5.64-1h4.64V191h-4.64Z" style="fill:#263238"></path><path d="M667.47,198.37h-6.63V190h6.63Zm-5.63-1h4.63V191h-4.63Z" style="fill:#263238"></path><path d="M649.16,216.75h-6.63V208.4h6.63Zm-5.63-1h4.63V209.4h-4.63Z" style="fill:#263238"></path><path d="M658.32,216.75h-6.64V208.4h6.64Zm-5.64-1h4.64V209.4h-4.64Z" style="fill:#263238"></path><path d="M667.47,216.75h-6.63V208.4h6.63Zm-5.63-1h4.63V209.4h-4.63Z" style="fill:#263238"></path><path d="M649.16,235.12h-6.63v-8.35h6.63Zm-5.63-1h4.63v-6.35h-4.63Z" style="fill:#263238"></path><path d="M658.32,235.12h-6.64v-8.35h6.64Zm-5.64-1h4.64v-6.35h-4.64Z" style="fill:#263238"></path><path d="M667.47,235.12h-6.63v-8.35h6.63Zm-5.63-1h4.63v-6.35h-4.63Z" style="fill:#263238"></path><path d="M649.16,253.5h-6.63v-8.35h6.63Zm-5.63-1h4.63v-6.35h-4.63Z" style="fill:#263238"></path><path d="M658.32,253.5h-6.64v-8.35h6.64Zm-5.64-1h4.64v-6.35h-4.64Z" style="fill:#263238"></path><path d="M667.47,253.5h-6.63v-8.35h6.63Zm-5.63-1h4.63v-6.35h-4.63Z" style="fill:#263238"></path><path d="M649.16,271.88h-6.63v-8.35h6.63Zm-5.63-1h4.63v-6.35h-4.63Z" style="fill:#263238"></path><path d="M658.32,271.88h-6.64v-8.35h6.64Zm-5.64-1h4.64v-6.35h-4.64Z" style="fill:#263238"></path><path d="M589.23,161.62H582.6v-8.35h6.63Zm-5.63-1h4.63v-6.35H583.6Z" style="fill:#263238"></path><path d="M598.38,161.62h-6.63v-8.35h6.63Zm-5.63-1h4.63v-6.35h-4.63Z" style="fill:#263238"></path><path d="M589.23,180H582.6v-8.35h6.63Zm-5.63-1h4.63v-6.35H583.6Z" style="fill:#263238"></path><path d="M598.38,180h-6.63v-8.35h6.63Zm-5.63-1h4.63v-6.35h-4.63Z" style="fill:#263238"></path><path d="M589.23,198.37H582.6V190h6.63Zm-5.63-1h4.63V191H583.6Z" style="fill:#263238"></path><path d="M598.38,198.37h-6.63V190h6.63Zm-5.63-1h4.63V191h-4.63Z" style="fill:#263238"></path><path d="M589.23,216.75H582.6V208.4h6.63Zm-5.63-1h4.63V209.4H583.6Z" style="fill:#263238"></path><path d="M598.38,216.75h-6.63V208.4h6.63Zm-5.63-1h4.63V209.4h-4.63Z" style="fill:#263238"></path><path d="M589.23,235.12H582.6v-8.35h6.63Zm-5.63-1h4.63v-6.35H583.6Z" style="fill:#263238"></path><path d="M598.38,235.12h-6.63v-8.35h6.63Zm-5.63-1h4.63v-6.35h-4.63Z" style="fill:#263238"></path><path d="M589.23,253.5H582.6v-8.35h6.63Zm-5.63-1h4.63v-6.35H583.6Z" style="fill:#263238"></path><path d="M598.38,253.5h-6.63v-8.35h6.63Zm-5.63-1h4.63v-6.35h-4.63Z" style="fill:#263238"></path><path d="M589.23,271.88H582.6v-8.35h6.63Zm-5.63-1h4.63v-6.35H583.6Z" style="fill:#263238"></path><path d="M598.38,271.88h-6.63v-8.35h6.63Zm-5.63-1h4.63v-6.35h-4.63Z" style="fill:#263238"></path><path d="M427.89,180h-6.63v-8.35h6.63Zm-5.63-1h4.63v-6.35h-4.63Z" style="fill:#263238"></path><path d="M437.05,180h-6.64v-8.35h6.64Zm-5.64-1h4.64v-6.35h-4.64Z" style="fill:#263238"></path><path d="M427.89,198.37h-6.63V190h6.63Zm-5.63-1h4.63V191h-4.63Z" style="fill:#263238"></path><path d="M437.05,198.37h-6.64V190h6.64Zm-5.64-1h4.64V191h-4.64Z" style="fill:#263238"></path><path d="M427.89,216.75h-6.63V208.4h6.63Zm-5.63-1h4.63V209.4h-4.63Z" style="fill:#263238"></path><path d="M437.05,216.75h-6.64V208.4h6.64Zm-5.64-1h4.64V209.4h-4.64Z" style="fill:#263238"></path><path d="M427.89,235.12h-6.63v-8.35h6.63Zm-5.63-1h4.63v-6.35h-4.63Z" style="fill:#263238"></path><path d="M437.05,235.12h-6.64v-8.35h6.64Zm-5.64-1h4.64v-6.35h-4.64Z" style="fill:#263238"></path><path d="M427.89,253.5h-6.63v-8.35h6.63Zm-5.63-1h4.63v-6.35h-4.63Z" style="fill:#263238"></path><path d="M437.05,253.5h-6.64v-8.35h6.64Zm-5.64-1h4.64v-6.35h-4.64Z" style="fill:#263238"></path><path d="M427.89,271.88h-6.63v-8.35h6.63Zm-5.63-1h4.63v-6.35h-4.63Z" style="fill:#263238"></path><path d="M437.05,271.88h-6.64v-8.35h6.64Zm-5.64-1h4.64v-6.35h-4.64Z" style="fill:#263238"></path><path d="M448.62,180H442v-8.35h6.63ZM443,179h4.63v-6.35H443Z" style="fill:#263238"></path><path d="M457.78,180h-6.64v-8.35h6.64Zm-5.64-1h4.64v-6.35h-4.64Z" style="fill:#263238"></path><path d="M448.62,198.37H442V190h6.63Zm-5.63-1h4.63V191H443Z" style="fill:#263238"></path><path d="M457.78,198.37h-6.64V190h6.64Zm-5.64-1h4.64V191h-4.64Z" style="fill:#263238"></path><path d="M448.62,216.75H442V208.4h6.63Zm-5.63-1h4.63V209.4H443Z" style="fill:#263238"></path><path d="M457.78,216.75h-6.64V208.4h6.64Zm-5.64-1h4.64V209.4h-4.64Z" style="fill:#263238"></path><path d="M448.62,235.12H442v-8.35h6.63Zm-5.63-1h4.63v-6.35H443Z" style="fill:#263238"></path><path d="M457.78,235.12h-6.64v-8.35h6.64Zm-5.64-1h4.64v-6.35h-4.64Z" style="fill:#263238"></path><path d="M448.62,253.5H442v-8.35h6.63Zm-5.63-1h4.63v-6.35H443Z" style="fill:#263238"></path><path d="M457.78,253.5h-6.64v-8.35h6.64Zm-5.64-1h4.64v-6.35h-4.64Z" style="fill:#263238"></path><path d="M448.62,271.88H442v-8.35h6.63Zm-5.63-1h4.63v-6.35H443Z" style="fill:#263238"></path><path d="M457.78,271.88h-6.64v-8.35h6.64Zm-5.64-1h4.64v-6.35h-4.64Z" style="fill:#263238"></path><path d="M304.73,124.87H298.1v-8.35h6.63Zm-5.63-1h4.63v-6.35H299.1Z" style="fill:#263238"></path><path d="M313.88,124.87h-6.63v-8.35h6.63Zm-5.63-1h4.63v-6.35h-4.63Z" style="fill:#263238"></path><path d="M304.73,143.25H298.1V134.9h6.63Zm-5.63-1h4.63V135.9H299.1Z" style="fill:#263238"></path><path d="M313.88,143.25h-6.63V134.9h6.63Zm-5.63-1h4.63V135.9h-4.63Z" style="fill:#263238"></path><path d="M304.73,161.62H298.1v-8.35h6.63Zm-5.63-1h4.63v-6.35H299.1Z" style="fill:#263238"></path><path d="M313.88,161.62h-6.63v-8.35h6.63Zm-5.63-1h4.63v-6.35h-4.63Z" style="fill:#263238"></path><path d="M304.73,180H298.1v-8.35h6.63Zm-5.63-1h4.63v-6.35H299.1Z" style="fill:#263238"></path><path d="M313.88,180h-6.63v-8.35h6.63Zm-5.63-1h4.63v-6.35h-4.63Z" style="fill:#263238"></path><path d="M304.73,198.37H298.1V190h6.63Zm-5.63-1h4.63V191H299.1Z" style="fill:#263238"></path><path d="M313.88,198.37h-6.63V190h6.63Zm-5.63-1h4.63V191h-4.63Z" style="fill:#263238"></path><path d="M304.73,216.75H298.1V208.4h6.63Zm-5.63-1h4.63V209.4H299.1Z" style="fill:#263238"></path><path d="M313.88,216.75h-6.63V208.4h6.63Zm-5.63-1h4.63V209.4h-4.63Z" style="fill:#263238"></path><path d="M304.73,235.12H298.1v-8.35h6.63Zm-5.63-1h4.63v-6.35H299.1Z" style="fill:#263238"></path><path d="M313.88,235.12h-6.63v-8.35h6.63Zm-5.63-1h4.63v-6.35h-4.63Z" style="fill:#263238"></path><path d="M304.73,253.5H298.1v-8.35h6.63Zm-5.63-1h4.63v-6.35H299.1Z" style="fill:#263238"></path><path d="M313.88,253.5h-6.63v-8.35h6.63Zm-5.63-1h4.63v-6.35h-4.63Z" style="fill:#263238"></path><path d="M304.73,271.88H298.1v-8.35h6.63Zm-5.63-1h4.63v-6.35H299.1Z" style="fill:#263238"></path><path d="M313.88,271.88h-6.63v-8.35h6.63Zm-5.63-1h4.63v-6.35h-4.63Z" style="fill:#263238"></path><path d="M667.47,271.88h-6.63v-8.35h6.63Zm-5.63-1h4.63v-6.35h-4.63Z" style="fill:#263238"></path></g><g id="freepik--Trees--inject-2"><path d="M647.27,383.19c0,28.05-15.73,30.17-35.13,30.17S577,411.24,577,383.19s15.73-86.69,35.14-86.69S647.27,355.14,647.27,383.19Z" style="fill:#004785"></path><path d="M647.27,383.19c0,28.05-15.73,30.17-35.13,30.17S577,411.24,577,383.19s15.73-86.69,35.14-86.69S647.27,355.14,647.27,383.19Z" style="fill:#fff;opacity:0.58"></path><polygon points="624.01 395.92 618.2 396.32 633.34 386.12 622.53 391.58 624.01 387.31 619.07 393.33 613.27 396.26 612.82 376.11 615.88 368.66 612.74 372.85 612.47 361.17 622.1 348.33 612.41 358.26 611.82 332.55 611.3 349 605.12 342.11 611.2 352.17 610.38 378.23 605 374.71 600.1 366.03 602.07 372.79 592.45 366.51 610.26 381.87 607.57 467.42 614.9 467.42 613.35 399.59 615.05 398.45 624.01 395.92" style="fill:#263238"></polygon><path d="M733.82,332c0,45.11-25.3,48.51-56.5,48.51s-56.5-3.4-56.5-48.51,25.3-139.41,56.5-139.41S733.82,286.87,733.82,332Z" style="fill:#004785"></path><path d="M733.82,332c0,45.11-25.3,48.51-56.5,48.51s-56.5-3.4-56.5-48.51,25.3-139.41,56.5-139.41S733.82,286.87,733.82,332Z" style="fill:#fff;opacity:0.31"></path><polygon points="696.42 352.45 687.08 353.09 711.42 336.68 694.03 345.47 696.42 338.6 688.48 348.28 679.15 352.99 678.41 320.6 683.35 308.61 678.29 315.35 677.86 296.57 693.35 275.93 677.76 291.89 676.81 250.55 675.98 277.01 666.04 265.93 675.82 282.09 674.5 324 665.85 318.35 657.97 304.38 661.13 315.26 645.66 305.15 674.31 329.86 669.97 467.42 681.77 467.42 679.27 358.35 682 356.51 696.42 352.45" style="fill:#263238"></polygon><path d="M112.25,383.19c0,28.05,15.73,30.17,35.14,30.17s35.13-2.12,35.13-30.17-15.73-86.69-35.13-86.69S112.25,355.14,112.25,383.19Z" style="fill:#004785"></path><path d="M112.25,383.19c0,28.05,15.73,30.17,35.14,30.17s35.13-2.12,35.13-30.17-15.73-86.69-35.13-86.69S112.25,355.14,112.25,383.19Z" style="fill:#fff;opacity:0.58"></path><polygon points="135.51 395.92 141.32 396.32 126.18 386.12 136.99 391.58 135.51 387.31 140.45 393.33 146.25 396.26 146.71 376.11 143.64 368.66 146.78 372.85 147.05 361.17 137.42 348.33 147.12 358.26 147.7 332.55 148.22 349 154.4 342.11 148.32 352.17 149.15 378.23 154.52 374.71 159.42 366.03 157.46 372.79 167.07 366.51 149.26 381.87 151.96 467.42 144.62 467.42 146.17 399.59 144.48 398.45 135.51 395.92" style="fill:#263238"></polygon><path d="M26.08,332.43c0,45,25.21,48.35,56.31,48.35s56.31-3.39,56.31-48.35S113.49,193.49,82.39,193.49,26.08,287.47,26.08,332.43Z" style="fill:#004785"></path><path d="M26.08,332.43c0,45,25.21,48.35,56.31,48.35s56.31-3.39,56.31-48.35S113.49,193.49,82.39,193.49,26.08,287.47,26.08,332.43Z" style="fill:#fff;opacity:0.31"></path><polygon points="63.35 352.83 72.67 353.47 48.41 337.12 65.73 345.88 63.35 339.03 71.28 348.68 80.57 353.37 81.3 321.09 76.38 309.14 81.42 315.86 81.85 297.14 66.42 276.56 81.96 292.47 82.9 251.27 83.73 277.64 93.63 266.6 83.89 282.71 85.21 324.48 93.83 318.84 101.68 304.93 98.53 315.77 113.94 305.69 85.39 330.32 89.72 467.42 77.96 467.42 80.44 358.71 77.73 356.88 63.35 352.83" style="fill:#263238"></polygon></g></svg>