<?xml version="1.0" encoding="utf-8"?>
<!-- Generator: Adobe Illustrator 27.0.1, SVG Export Plug-In . SVG Version: 6.00 Build 0)  -->
<svg version="1.1" id="Calque_1" xmlns="http://www.w3.org/2000/svg" xmlns:xlink="http://www.w3.org/1999/xlink" x="0px" y="0px"
	 viewBox="0 0 500 500" style="enable-background:new 0 0 500 500;" xml:space="preserve">
<style type="text/css">
	.st0{fill:#004785;}
	.st1{opacity:0.75;fill:#FFFFFF;enable-background:new    ;}
	.st2{fill:none;stroke:#263238;stroke-miterlimit:10;}
	.st3{opacity:0.5;fill:#FFFFFF;enable-background:new    ;}
	.st4{fill:#263238;}
	.st5{fill:none;stroke:#263238;stroke-linecap:round;stroke-linejoin:round;}
</style>
<g id="freepik--background-simple--inject-5">
	<path class="st0" d="M408.9,205.8c0,0-31.6-59.9-97.7-83.1s-96.6-2.9-130.5,19c-26.7,17.3-47.5,42.3-69.4,64.4
		c-20,20.3-49.3,36-58.5,64.1C41.1,305.7,67.6,344,99,364.6c43.9,28.8,86.4,11.2,132.2,4.4h0.3c6.7-1,13.4-1.6,20.1-1.6
		c53.2,0.1,91.4,37.7,130.2-1S426.7,252.4,408.9,205.8z"/>
	<path class="st1" d="M408.9,205.8c0,0-31.6-59.9-97.7-83.1s-96.6-2.9-130.5,19c-26.7,17.3-47.5,42.3-69.4,64.4
		c-20,20.3-49.3,36-58.5,64.1C41.1,305.7,67.6,344,99,364.6c43.9,28.8,86.4,11.2,132.2,4.4h0.3c6.7-1,13.4-1.6,20.1-1.6
		c53.2,0.1,91.4,37.7,130.2-1S426.7,252.4,408.9,205.8z"/>
</g>
<g id="freepik--Buildings--inject-5">
	<rect x="96.6" y="235.7" class="st2" width="8.2" height="8.2"/>
	<rect x="87.8" y="240.7" class="st2" width="3.3" height="3.2"/>
	<polyline class="st2" points="422.9,287.6 391.9,287.6 391.9,222.4 394,222.4 394,215.6 321.6,215.6 321.6,222.4 324.1,222.4 
		324.1,319.4 305.1,319.4 305.1,111.3 239.9,111.3 239.9,268.6 216.1,268.6 216.1,251.2 222.4,251.2 222.4,243.9 170.3,243.9 
		170.3,138.3 173.6,138.3 173.6,132.8 110.4,132.8 110.4,138.3 115,138.3 115,244 65,244 65,319.7 38.8,319.7 	"/>
	<rect x="237" y="109" class="st2" width="70.6" height="2.3"/>
	<rect x="120.6" y="144.4" class="st2" width="8" height="8.5"/>
	<rect x="132.3" y="144.4" class="st2" width="8" height="8.5"/>
	<rect x="143.9" y="144.4" class="st2" width="8" height="8.5"/>
	<rect x="155.6" y="144.4" class="st2" width="8" height="8.5"/>
	<rect x="120.6" y="157.9" class="st2" width="8" height="8.5"/>
	<rect x="132.3" y="157.9" class="st2" width="8" height="8.5"/>
	<rect x="143.9" y="157.9" class="st2" width="8" height="8.5"/>
	<rect x="155.6" y="157.9" class="st2" width="8" height="8.5"/>
	<rect x="120.6" y="171.4" class="st2" width="8" height="8.5"/>
	<rect x="132.3" y="171.4" class="st2" width="8" height="8.5"/>
	<rect x="143.9" y="171.4" class="st2" width="8" height="8.5"/>
	<rect x="155.6" y="171.4" class="st2" width="8" height="8.5"/>
	<rect x="120.6" y="184.9" class="st2" width="8" height="8.5"/>
	<rect x="132.3" y="184.9" class="st2" width="8" height="8.5"/>
	<rect x="143.9" y="184.9" class="st2" width="8" height="8.5"/>
	<rect x="155.6" y="184.9" class="st2" width="8" height="8.5"/>
	<rect x="120.6" y="198.4" class="st2" width="8" height="8.5"/>
	<rect x="132.3" y="198.4" class="st2" width="8" height="8.5"/>
	<rect x="143.9" y="198.4" class="st2" width="8" height="8.5"/>
	<rect x="155.6" y="198.4" class="st2" width="8" height="8.5"/>
	<rect x="120.6" y="211.9" class="st2" width="8" height="8.5"/>
	<rect x="132.3" y="211.9" class="st2" width="8" height="8.5"/>
	<rect x="143.9" y="211.9" class="st2" width="8" height="8.5"/>
	<rect x="155.6" y="211.9" class="st2" width="8" height="8.5"/>
	<rect x="120.6" y="225.4" class="st2" width="8" height="8.5"/>
	<rect x="132.3" y="225.4" class="st2" width="8" height="8.5"/>
	<rect x="143.9" y="225.4" class="st2" width="8" height="8.5"/>
	<rect x="155.6" y="225.4" class="st2" width="8" height="8.5"/>
	<rect x="120.6" y="238.9" class="st2" width="8" height="8.5"/>
	<rect x="132.3" y="238.9" class="st2" width="8" height="8.5"/>
	<rect x="143.9" y="238.9" class="st2" width="8" height="8.5"/>
	<rect x="155.6" y="238.9" class="st2" width="8" height="8.5"/>
	<rect x="120.6" y="251.3" class="st2" width="8" height="8.5"/>
	<rect x="132.3" y="251.3" class="st2" width="8" height="8.5"/>
	<rect x="143.9" y="251.3" class="st2" width="8" height="8.5"/>
	<rect x="155.6" y="251.3" class="st2" width="8" height="8.5"/>
	<rect x="120.6" y="264.8" class="st2" width="8" height="8.5"/>
	<rect x="132.3" y="264.8" class="st2" width="8" height="8.5"/>
	<rect x="143.9" y="264.8" class="st2" width="8" height="8.5"/>
	<rect x="155.6" y="264.8" class="st2" width="8" height="8.5"/>
	<rect x="120.6" y="278.3" class="st2" width="8" height="8.5"/>
	<rect x="132.3" y="278.3" class="st2" width="8" height="8.5"/>
	<rect x="143.9" y="278.3" class="st2" width="8" height="8.5"/>
	<rect x="155.6" y="278.3" class="st2" width="8" height="8.5"/>
	<rect x="120.6" y="291.8" class="st2" width="8" height="8.5"/>
	<rect x="132.3" y="291.8" class="st2" width="8" height="8.5"/>
	<rect x="143.9" y="291.8" class="st2" width="8" height="8.5"/>
	<rect x="155.6" y="291.8" class="st2" width="8" height="8.5"/>
	<rect x="120.6" y="305.3" class="st2" width="8" height="8.5"/>
	<rect x="132.3" y="305.3" class="st2" width="8" height="8.5"/>
	<rect x="143.9" y="305.3" class="st2" width="8" height="8.5"/>
	<rect x="155.6" y="305.3" class="st2" width="8" height="8.5"/>
	<rect x="120.6" y="318.8" class="st2" width="8" height="8.5"/>
	<rect x="132.3" y="318.8" class="st2" width="8" height="8.5"/>
	<rect x="143.9" y="318.8" class="st2" width="8" height="8.5"/>
	<rect x="155.6" y="318.8" class="st2" width="8" height="8.5"/>
	<rect x="120.6" y="332.3" class="st2" width="8" height="8.5"/>
	<rect x="132.3" y="332.3" class="st2" width="8" height="8.5"/>
	<rect x="143.9" y="332.3" class="st2" width="8" height="8.5"/>
	<rect x="155.6" y="332.3" class="st2" width="8" height="8.5"/>
	<rect x="120.6" y="345.8" class="st2" width="8" height="8.5"/>
	<rect x="132.3" y="345.8" class="st2" width="8" height="8.5"/>
	<rect x="143.9" y="345.8" class="st2" width="8" height="8.5"/>
	<rect x="155.6" y="345.8" class="st2" width="8" height="8.5"/>
	<rect x="166.2" y="251.3" class="st2" width="8" height="8.5"/>
	<rect x="177.9" y="251.3" class="st2" width="8" height="8.5"/>
	<rect x="189.5" y="251.3" class="st2" width="8" height="8.5"/>
	<rect x="201.2" y="251.3" class="st2" width="8" height="8.5"/>
	<rect x="166.2" y="264.8" class="st2" width="8" height="8.5"/>
	<rect x="177.9" y="264.8" class="st2" width="8" height="8.5"/>
	<rect x="189.5" y="264.8" class="st2" width="8" height="8.5"/>
	<rect x="201.2" y="264.8" class="st2" width="8" height="8.5"/>
	<rect x="166.2" y="278.3" class="st2" width="8" height="8.5"/>
	<rect x="177.9" y="278.3" class="st2" width="8" height="8.5"/>
	<rect x="189.5" y="278.3" class="st2" width="8" height="8.5"/>
	<rect x="201.2" y="278.3" class="st2" width="8" height="8.5"/>
	<rect x="166.2" y="291.8" class="st2" width="8" height="8.5"/>
	<rect x="177.9" y="291.8" class="st2" width="8" height="8.5"/>
	<rect x="189.5" y="291.8" class="st2" width="8" height="8.5"/>
	<rect x="201.2" y="291.8" class="st2" width="8" height="8.5"/>
	<rect x="166.2" y="305.3" class="st2" width="8" height="8.5"/>
	<rect x="177.9" y="305.3" class="st2" width="8" height="8.5"/>
	<rect x="189.5" y="305.3" class="st2" width="8" height="8.5"/>
	<rect x="201.2" y="305.3" class="st2" width="8" height="8.5"/>
	<rect x="166.2" y="318.8" class="st2" width="8" height="8.5"/>
	<rect x="177.9" y="318.8" class="st2" width="8" height="8.5"/>
	<rect x="189.5" y="318.8" class="st2" width="8" height="8.5"/>
	<rect x="201.2" y="318.8" class="st2" width="8" height="8.5"/>
	<rect x="166.2" y="332.3" class="st2" width="8" height="8.5"/>
	<rect x="177.9" y="332.3" class="st2" width="8" height="8.5"/>
	<rect x="189.5" y="332.3" class="st2" width="8" height="8.5"/>
	<rect x="201.2" y="332.3" class="st2" width="8" height="8.5"/>
	<rect x="166.2" y="345.8" class="st2" width="8" height="8.5"/>
	<rect x="177.9" y="345.8" class="st2" width="8" height="8.5"/>
	<rect x="189.5" y="345.8" class="st2" width="8" height="8.5"/>
	<rect x="201.2" y="345.8" class="st2" width="8" height="8.5"/>
	<rect x="74.4" y="251.3" class="st2" width="8" height="8.5"/>
	<rect x="86.1" y="251.3" class="st2" width="8" height="8.5"/>
	<rect x="97.7" y="251.3" class="st2" width="8" height="8.5"/>
	<rect x="109.4" y="251.3" class="st2" width="8" height="8.5"/>
	<rect x="74.4" y="264.8" class="st2" width="8" height="8.5"/>
	<rect x="86.1" y="264.8" class="st2" width="8" height="8.5"/>
	<rect x="97.7" y="264.8" class="st2" width="8" height="8.5"/>
	<rect x="109.4" y="264.8" class="st2" width="8" height="8.5"/>
	<rect x="74.4" y="278.3" class="st2" width="8" height="8.5"/>
	<rect x="86.1" y="278.3" class="st2" width="8" height="8.5"/>
	<rect x="97.7" y="278.3" class="st2" width="8" height="8.5"/>
	<rect x="109.4" y="278.3" class="st2" width="8" height="8.5"/>
	<rect x="74.4" y="291.8" class="st2" width="8" height="8.5"/>
	<rect x="86.1" y="291.8" class="st2" width="8" height="8.5"/>
	<rect x="97.7" y="291.8" class="st2" width="8" height="8.5"/>
	<rect x="109.4" y="291.8" class="st2" width="8" height="8.5"/>
	<rect x="74.4" y="305.3" class="st2" width="8" height="8.5"/>
	<rect x="86.1" y="305.3" class="st2" width="8" height="8.5"/>
	<rect x="97.7" y="305.3" class="st2" width="8" height="8.5"/>
	<rect x="109.4" y="305.3" class="st2" width="8" height="8.5"/>
	<rect x="74.4" y="318.8" class="st2" width="8" height="8.5"/>
	<rect x="86.1" y="318.8" class="st2" width="8" height="8.5"/>
	<rect x="97.7" y="318.8" class="st2" width="8" height="8.5"/>
	<rect x="109.4" y="318.8" class="st2" width="8" height="8.5"/>
	<rect x="74.4" y="332.3" class="st2" width="8" height="8.5"/>
	<rect x="86.1" y="332.3" class="st2" width="8" height="8.5"/>
	<rect x="97.7" y="332.3" class="st2" width="8" height="8.5"/>
	<rect x="109.4" y="332.3" class="st2" width="8" height="8.5"/>
	<rect x="74.4" y="345.8" class="st2" width="8" height="8.5"/>
	<rect x="86.1" y="345.8" class="st2" width="8" height="8.5"/>
	<rect x="97.7" y="345.8" class="st2" width="8" height="8.5"/>
	<rect x="109.4" y="345.8" class="st2" width="8" height="8.5"/>
	<rect x="335.1" y="224.8" class="st2" width="8" height="8.5"/>
	<rect x="346.8" y="224.8" class="st2" width="8" height="8.5"/>
	<rect x="358.4" y="224.8" class="st2" width="8" height="8.5"/>
	<rect x="370.1" y="224.8" class="st2" width="8" height="8.5"/>
	<rect x="335.1" y="238.3" class="st2" width="8" height="8.5"/>
	<rect x="346.8" y="238.3" class="st2" width="8" height="8.5"/>
	<rect x="358.4" y="238.3" class="st2" width="8" height="8.5"/>
	<rect x="370.1" y="238.3" class="st2" width="8" height="8.5"/>
	<rect x="335.1" y="251.8" class="st2" width="8" height="8.5"/>
	<rect x="346.8" y="251.8" class="st2" width="8" height="8.5"/>
	<rect x="358.4" y="251.8" class="st2" width="8" height="8.5"/>
	<rect x="370.1" y="251.8" class="st2" width="8" height="8.5"/>
	<rect x="335.1" y="265.3" class="st2" width="8" height="8.5"/>
	<rect x="346.8" y="265.3" class="st2" width="8" height="8.5"/>
	<rect x="358.4" y="265.3" class="st2" width="8" height="8.5"/>
	<rect x="370.1" y="265.3" class="st2" width="8" height="8.5"/>
	<rect x="335.1" y="278.9" class="st2" width="8" height="8.5"/>
	<rect x="346.8" y="278.9" class="st2" width="8" height="8.5"/>
	<rect x="358.4" y="278.9" class="st2" width="8" height="8.5"/>
	<rect x="370.1" y="278.9" class="st2" width="8" height="8.5"/>
	<rect x="335.1" y="292.4" class="st2" width="8" height="8.5"/>
	<rect x="346.8" y="292.4" class="st2" width="8" height="8.5"/>
	<rect x="358.4" y="292.4" class="st2" width="8" height="8.5"/>
	<rect x="370.1" y="292.4" class="st2" width="8" height="8.5"/>
	<rect x="335.1" y="305.9" class="st2" width="8" height="8.5"/>
	<rect x="346.8" y="305.9" class="st2" width="8" height="8.5"/>
	<rect x="358.4" y="305.9" class="st2" width="8" height="8.5"/>
	<rect x="370.1" y="305.9" class="st2" width="8" height="8.5"/>
	<rect x="335.1" y="319.4" class="st2" width="8" height="8.5"/>
	<rect x="346.8" y="319.4" class="st2" width="8" height="8.5"/>
	<rect x="358.4" y="319.4" class="st2" width="8" height="8.5"/>
	<rect x="370.1" y="319.4" class="st2" width="8" height="8.5"/>
	<line class="st2" x1="246.1" y1="116.2" x2="246.1" y2="362.9"/>
	<line class="st2" x1="254" y1="116.2" x2="254" y2="362.9"/>
	<line class="st2" x1="261.9" y1="116.2" x2="261.9" y2="362.9"/>
	<line class="st2" x1="269.8" y1="116.2" x2="269.8" y2="362.9"/>
	<line class="st2" x1="277.6" y1="116.2" x2="277.6" y2="362.9"/>
	<line class="st2" x1="285.5" y1="116.2" x2="285.5" y2="362.9"/>
	<line class="st2" x1="293.4" y1="116.2" x2="293.4" y2="362.9"/>
	<line class="st2" x1="301.3" y1="116.2" x2="301.3" y2="362.9"/>
	<rect x="79.7" y="358.6" class="st2" width="141.5" height="8"/>
	<rect x="308.1" y="358.6" class="st2" width="127.1" height="8"/>
</g>
<g id="freepik--Trees--inject-5">
	<path class="st0" d="M296.2,358.3c0,0,13.9,1.4,20.9,10c0,0,7.4-10,20.8-9.8c9.5-11.5,8-28.5-3.5-38c-11.5-9.5-28.5-8-38,3.5
		C288.1,334,288,348.4,296.2,358.3L296.2,358.3z"/>
	<path class="st3" d="M296.2,358.3c0,0,13.9,1.4,20.9,10c0,0,7.4-10,20.8-9.8c9.5-11.5,8-28.5-3.5-38c-11.5-9.5-28.5-8-38,3.5
		C288.1,334,288,348.4,296.2,358.3L296.2,358.3z"/>
	<polygon class="st4" points="316.6,316.3 316.2,385.8 318.5,385.8 	"/>
	<path class="st4" d="M317.4,365.7c0,0,4.7-8.4,13.1-11c0,0-8.9,2.1-13.4,9.4L317.4,365.7z"/>
	<path class="st4" d="M317.4,341.8c0,0,4.7-8.4,13.1-11c0,0-8.9,2.1-13.4,9.4L317.4,341.8z"/>
	<path class="st4" d="M317.4,353.7c0,0,4.7-8.4,13.1-11c0,0-8.9,2.1-13.4,9.4L317.4,353.7z"/>
	<path class="st4" d="M316.6,347.9c0,0-4.5-8.4-12.6-11c0,0,8.6,2.1,12.9,9.4L316.6,347.9z"/>
	<path class="st4" d="M316.6,359.6c0,0-4.5-8.4-12.6-11c0,0,8.6,2.1,12.9,9.4L316.6,359.6z"/>
	<path class="st0" d="M361.5,353.1c0,0,16.5,1.6,24.9,11.9c0,0,8.9-11.9,24.8-11.6c11.3-13.7,9.4-33.9-4.2-45.2
		c-13.7-11.3-33.9-9.4-45.2,4.2C351.9,324.1,351.8,341.2,361.5,353.1L361.5,353.1z"/>
	<path class="st3" d="M361.5,353.1c0,0,16.5,1.6,24.9,11.9c0,0,8.9-11.9,24.8-11.6c11.3-13.7,9.4-33.9-4.2-45.2
		c-13.7-11.3-33.9-9.4-45.2,4.2C351.9,324.1,351.8,341.2,361.5,353.1L361.5,353.1z"/>
	<polygon class="st4" points="385.9,303 385.3,385.8 388.1,385.8 	"/>
	<path class="st4" d="M386.7,361.8c0,0,5.6-10,15.6-13.1c0,0-10.6,2.5-15.9,11.2L386.7,361.8z"/>
	<path class="st4" d="M386.7,333.4c0,0,5.6-10,15.6-13.1c0,0-10.6,2.5-15.9,11.2L386.7,333.4z"/>
	<path class="st4" d="M386.7,347.6c0,0,5.6-10,15.6-13.1c0,0-10.6,2.5-15.9,11.2L386.7,347.6z"/>
	<path class="st4" d="M385.9,340.6c0,0-5.4-10-15.1-13.1c0,0,10.2,2.5,15.3,11.2L385.9,340.6z"/>
	<path class="st4" d="M385.9,354.6c0,0-5.4-10-15.1-13.1c0,0,10.2,2.5,15.3,11.2L385.9,354.6z"/>
	<path class="st0" d="M428.1,362.6c0,0,11.7,1.2,17.6,8.4c4.3-5.2,10.7-8.2,17.5-8.2c8-9.7,6.7-24-3-32c-9.7-8-24-6.7-32,3
		C421.3,342.1,421.2,354.2,428.1,362.6L428.1,362.6z"/>
	<path class="st3" d="M428.1,362.6c0,0,11.7,1.2,17.6,8.4c4.3-5.2,10.7-8.2,17.5-8.2c8-9.7,6.7-24-3-32c-9.7-8-24-6.7-32,3
		C421.3,342.1,421.2,354.2,428.1,362.6L428.1,362.6z"/>
	<polygon class="st4" points="445.3,327.2 444.9,385.8 446.9,385.8 	"/>
	<path class="st4" d="M445.9,368.8c0,0,3.9-7.1,11-9.3c0,0-7.5,1.8-11.2,7.9L445.9,368.8z"/>
	<path class="st4" d="M445.9,348.7c0,0,3.9-7.1,11-9.3c0,0-7.5,1.8-11.2,7.9L445.9,348.7z"/>
	<path class="st4" d="M445.9,358.8c0,0,3.9-7.1,11-9.3c0,0-7.5,1.8-11.2,7.9L445.9,358.8z"/>
	<path class="st4" d="M445.3,353.8c0,0-3.8-7.1-10.7-9.3c0,0,7.2,1.8,10.9,7.9L445.3,353.8z"/>
	<path class="st4" d="M445.3,363.7c0,0-3.8-7.1-10.7-9.3c0,0,7.2,1.8,10.9,7.9L445.3,363.7z"/>
	<path class="st0" d="M54.7,358.3c0,0,13.9,1.4,20.9,10c0,0,7.4-10,20.8-9.8c9.5-11.5,8-28.5-3.5-38s-28.5-8-38,3.5
		C46.6,334,46.5,348.4,54.7,358.3L54.7,358.3z"/>
	<path class="st3" d="M54.7,358.3c0,0,13.9,1.4,20.9,10c0,0,7.4-10,20.8-9.8c9.5-11.5,8-28.5-3.5-38s-28.5-8-38,3.5
		C46.6,334,46.5,348.4,54.7,358.3L54.7,358.3z"/>
	<polygon class="st4" points="75.1,316.3 74.6,385.8 77,385.8 	"/>
	<path class="st4" d="M75.8,365.7c0,0,4.7-8.4,13.1-11c0,0-8.9,2.1-13.3,9.4L75.8,365.7z"/>
	<path class="st4" d="M75.8,341.8c0,0,4.7-8.4,13.1-11c0,0-8.9,2.1-13.3,9.4L75.8,341.8z"/>
	<path class="st4" d="M75.8,353.7c0,0,4.7-8.4,13.1-11c0,0-8.9,2.1-13.3,9.4L75.8,353.7z"/>
	<path class="st4" d="M75.1,347.9c0,0-4.5-8.4-12.7-11c0,0,8.6,2.1,12.9,9.4L75.1,347.9z"/>
	<path class="st4" d="M75.1,359.6c0,0-4.5-8.4-12.7-11c0,0,8.6,2.1,12.9,9.4L75.1,359.6z"/>
	<path class="st0" d="M120,353.1c0,0,16.5,1.6,24.9,11.9c0,0,8.9-11.9,24.8-11.6c11.3-13.7,9.4-33.9-4.2-45.2
		c-13.7-11.3-33.9-9.4-45.2,4.2C110.4,324.1,110.3,341.2,120,353.1L120,353.1z"/>
	<path class="st3" d="M120,353.1c0,0,16.5,1.6,24.9,11.9c0,0,8.9-11.9,24.8-11.6c11.3-13.7,9.4-33.9-4.2-45.2
		c-13.7-11.3-33.9-9.4-45.2,4.2C110.4,324.1,110.3,341.2,120,353.1L120,353.1z"/>
	<polygon class="st4" points="144.4,303 143.8,385.8 146.6,385.8 	"/>
	<path class="st4" d="M145.2,361.8c0,0,5.6-10,15.6-13.1c0,0-10.6,2.5-15.9,11.2L145.2,361.8z"/>
	<path class="st4" d="M145.2,333.4c0,0,5.6-10,15.6-13.1c0,0-10.6,2.5-15.9,11.2L145.2,333.4z"/>
	<path class="st4" d="M145.2,347.6c0,0,5.6-10,15.6-13.1c0,0-10.6,2.5-15.9,11.2L145.2,347.6z"/>
	<path class="st4" d="M144.4,340.6c0,0-5.4-10-15.1-13.1c0,0,10.2,2.5,15.4,11.2L144.4,340.6z"/>
	<path class="st4" d="M144.4,354.6c0,0-5.4-10-15.1-13.1c0,0,10.2,2.5,15.4,11.2L144.4,354.6z"/>
	<path class="st0" d="M186.5,362.6c0,0,11.7,1.2,17.6,8.4c4.3-5.2,10.7-8.2,17.5-8.2c8-9.7,6.7-24-3-32c-9.7-8-24-6.7-32,3
		C179.7,342.1,179.7,354.2,186.5,362.6L186.5,362.6z"/>
	<path class="st3" d="M186.5,362.6c0,0,11.7,1.2,17.6,8.4c4.3-5.2,10.7-8.2,17.5-8.2c8-9.7,6.7-24-3-32c-9.7-8-24-6.7-32,3
		C179.7,342.1,179.7,354.2,186.5,362.6L186.5,362.6z"/>
	<polygon class="st4" points="203.8,327.2 203.4,385.8 205.4,385.8 	"/>
	<path class="st4" d="M204.4,368.8c0,0,3.9-7.1,11.1-9.3c0,0-7.5,1.8-11.2,7.9L204.4,368.8z"/>
	<path class="st4" d="M204.4,348.7c0,0,3.9-7.1,11.1-9.3c0,0-7.5,1.8-11.2,7.9L204.4,348.7z"/>
	<path class="st4" d="M204.4,358.8c0,0,3.9-7.1,11.1-9.3c0,0-7.5,1.8-11.2,7.9L204.4,358.8z"/>
	<path class="st4" d="M203.8,353.8c0,0-3.8-7.1-10.7-9.3c0,0,7.2,1.8,10.9,7.9L203.8,353.8z"/>
	<path class="st4" d="M203.8,363.7c0,0-3.8-7.1-10.7-9.3c0,0,7.2,1.8,10.9,7.9L203.8,363.7z"/>
</g>
<g id="freepik--Floor--inject-5">
	<line class="st5" x1="52.9" y1="385.8" x2="461.7" y2="385.8"/>
</g>
</svg>
