<?xml version="1.0" encoding="UTF-8"?><svg id="Calque_1" xmlns="http://www.w3.org/2000/svg" viewBox="0 0 296.07 95.02"><defs><style>.cls-1{fill:#fff;stroke:#263238;stroke-miterlimit:10;}</style></defs><path class="cls-1" d="M285.9,77.1c-12.8-6.91-18.57-1.15-23.24-6.91s12.8-20.94-22.02-35.98c0,0-2.3-32.52-49.88-33.68-47.57-1.15-34.83,32.52-47.63,40.59-12.8,8.07-16.2-4.61-29,3.52-12.8,8.13-6.91,24.33-17.41,26.7-10.5,2.37-24.33-10.44-37.07-2.37-12.74,8.07-12.8,15.11-18.57,15.11s-17.41-4.67-24.39,0c-6.98,4.67-15.11,10.44-15.11,10.44H295.19c1.68-7.31-2.28-14.73-9.28-17.41Z"/></svg>