<?xml version="1.0" encoding="UTF-8"?><svg id="Calque_1" xmlns="http://www.w3.org/2000/svg" viewBox="0 0 750 500"><defs><style>.cls-1{fill:#fff;}.cls-2{fill:none;stroke:#fff;stroke-miterlimit:10;}.cls-3{fill:#b2b2b2;}.cls-4{fill:#787878;}.cls-5{fill:#263238;}.cls-6{fill:#004785;}</style></defs><path class="cls-5" d="m378.04,201.17l50.73-.72-12.16-21.06c-1.63-2.83-4.65-4.58-7.92-4.6l-53.4-.23c-3.3-.01-6.35,1.74-8,4.6l-12.29,21.29,43.03.72Z"/><g id="freepik--Characters--inject-2"><rect class="cls-5" x="360.07" y="209.24" width="38.79" height="15.61" rx="3.99" ry="3.99"/><path class="cls-5" d="m394.87,225.35h-30.81c-2.48,0-4.48-2.01-4.49-4.49v-7.62c0-2.48,2.01-4.49,4.49-4.5h30.81c2.48,0,4.49,2.02,4.49,4.5v7.62c0,2.48-2.01,4.49-4.49,4.49Zm-30.81-15.61c-1.93,0-3.49,1.57-3.49,3.5v7.62c0,1.93,1.56,3.49,3.49,3.49h30.81c1.93,0,3.49-1.56,3.49-3.49v-7.62c0-1.93-1.56-3.49-3.49-3.5h-30.81Z"/><rect class="cls-5" x="376.15" y="201.67" width="3.78" height="11.83"/><path class="cls-5" d="m379.94,214h-3.79c-.28,0-.5-.22-.5-.5v-11.83c0-.27.23-.49.5-.5h3.79c.27,0,.49.23.5.5v11.83c0,.28-.22.5-.5.5Zm-3.29-1h2.79v-10.83h-2.79v10.83Z"/><path class="cls-5" d="m512.8,286.47l-13.56-10.47-18.91-69.86-31.46-3.88,13.61,50.56h-159.11l13.63-50.61-31.46,3.88-19.2,70.91-14.34,9.47h260.8Zm-60-80.38l23.7,1.72,15.11,62.19-22.26-17.27h-1.2l-15.35-46.64Zm-163.4,1.72l23.7-1.72-16.59,50.3.56.19-23.32,15.48,15.65-64.25Z"/><path class="cls-5" d="m512.8,287H252c-.28,0-.5-.23-.49-.51,0-.16.08-.31.21-.4l14.17-9.4,19.11-70.69c.05-.2.22-.34.42-.37l31.46-3.88c.17-.02.33.05.44.17.11.13.15.3.1.46l-13.42,49.89h157.83l-13.44-49.93c-.05-.16-.01-.33.1-.46.11-.12.28-.18.44-.17l31.46,3.88c.2.03.37.17.43.37l18.86,69.7,13.43,10.42c.22.16.27.46.12.68-.1.14-.26.22-.43.21v.03Zm-259.13-1h257.67l-12.41-9.62c-.09-.07-.15-.16-.17-.27l-18.82-69.54-30.39-3.74,13.45,49.81c.04.15.01.31-.08.43-.1.12-.24.2-.4.2h-159.15c-.16,0-.3-.08-.4-.2-.09-.12-.12-.28-.08-.43l13.42-49.84-30.4,3.74-19.09,70.56c-.03.12-.1.22-.21.29l-12.94,8.61Zm20.08-13.41c-.11,0-.21-.03-.29-.1-.17-.11-.25-.32-.2-.52l15.65-64.25c.05-.21.23-.36.45-.38l23.71-1.72c.28-.02.52.19.54.46,0,.07,0,.13-.03.2l-16.44,49.83h.09c.18.06.31.22.34.41.02.19-.06.37-.22.48l-23.35,15.47c-.07.05-.16.09-.25.09v.03Zm16.05-64.28l-15.26,62.65,21.54-14.28c-.08-.12-.1-.28-.05-.42l16.36-49.59-22.59,1.64Zm201.81,62.26c-.11,0-.22-.04-.31-.11l-22.13-17.16h-1c-.22,0-.41-.14-.48-.35l-15.4-46.67c-.09-.26.05-.55.31-.63.06-.02.13-.03.2-.03l23.71,1.72c.22.02.4.17.45.38l15.16,62.23c.05.21-.04.42-.22.54-.09.05-.19.06-.29.05v.03Zm-23.1-18.27h.84c.11,0,.21.03.3.1l21.14,16.39-14.74-60.48-22.59-1.64,15.05,45.63Z"/><path class="cls-4" d="m351.11,289.66l-2.33-33.27c-.57-7.87-7.11-13.97-15-14h-30.63c-7.89.03-14.43,6.13-15,14l-2.33,33.27h65.29Z"/><path class="cls-5" d="m351.11,290.17h-65.34c-.14,0-.27-.06-.37-.16-.09-.1-.14-.24-.13-.38l2.33-33.28c.6-8.15,7.38-14.47,15.55-14.49h30.58c8.17.02,14.95,6.34,15.55,14.49l2.33,33.28c0,.14-.04.28-.13.38-.1.1-.23.16-.37.16Zm-64.81-1h64.28l-2.3-32.75c-.56-7.63-6.9-13.53-14.55-13.56h-30.58c-7.65.03-13.99,5.93-14.55,13.56l-2.3,32.75Z"/><path class="cls-4" d="m471.68,289.66l-2.33-33.27c-.58-7.89-7.15-14-15.06-14h-30.57c-7.91,0-14.48,6.11-15.05,14l-2.34,33.27h65.35Z"/><path class="cls-5" d="m471.68,290.17h-65.35c-.13-.01-.25-.07-.33-.17-.1-.1-.15-.24-.14-.38l2.34-33.28c.6-8.15,7.38-14.47,15.55-14.49h30.55c8.17.03,14.94,6.34,15.54,14.49l2.34,33.28c0,.14-.04.28-.13.38-.1.1-.23.17-.37.17Zm-64.81-1h64.28l-2.3-32.75c-.56-7.63-6.9-13.53-14.55-13.56h-30.58c-7.65.02-13.99,5.93-14.55,13.56l-2.3,32.75Z"/><path class="cls-5" d="m310.71,217.78s-5.86-4.19-9.49-2.23-11.17,23.17-12.29,27.92,5.87,8.66,10.61,10.05,14.24-1.67,16.48-3.91-5.31-31.83-5.31-31.83Z"/><path class="cls-5" d="m302.39,254.37c-1.01.02-2.02-.1-3-.37-5.06-1.49-12.15-5.55-11-10.64,1-4.1,8.59-26.12,12.54-28.25s9.77,2.09,10,2.27l.15.1.05.18c1.27,5,7.49,30,5.17,32.31-1.93,2.03-8.82,4.4-13.91,4.4Zm1.08-38.84c-.69-.01-1.38.14-2,.46-3.27,1.76-10.76,22.18-12,27.59-1,4.39,5.75,8.13,10.26,9.46,4.7,1.38,13.92-1.72,16-3.78,1.27-1.27-1.74-16.81-5.39-31.17-.79-.49-4.05-2.56-6.87-2.56Z"/><path class="cls-3" d="m350.32,290.55c-.36-1.12-.57-1.82-.57-1.82,0,0-4.07-21.79-5.08-23.53s-13.67-7.41-13.67-7.41l-21.93-1.16s-16.41,8-16.56,9c-.08.54-3.22,13.18-6.15,24.92h63.96Z"/><path class="cls-5" d="m351,291.05h-65.27l.16-.62c5.24-21,6.09-24.59,6.14-24.87s.18-1.28,16.83-9.38l.12-.06,22.24,1.21c2.13,1,12.83,5.82,13.88,7.61s4.72,21.44,5.14,23.69h0s.21.69.56,1.77l.2.65Zm-64-1h62.63l-.37-1.18c-1.64-8.78-4.32-22.2-5-23.42s-8.51-5-13.35-7.17l-21.71-1.15c-7.35,3.59-15.42,7.79-16.18,8.66-.23,1.04-2.25,9.21-6.02,24.26Z"/><path class="cls-5" d="m301.05,284c-.58-3.29-1.48-6.51-2.67-9.63l.95-.33c1.2,3.18,2.11,6.46,2.71,9.81l-.99.15Z"/><path class="cls-5" d="m339.45,284c-.41-2,.46-4.3,1.22-6.33.28-.73.55-1.42.73-2.05l1,.28c-.2.67-.47,1.38-.75,2.13-.72,1.89-1.53,4-1.18,5.76l-1.02.21Z"/><path class="cls-5" d="m321.29,210.31s-13.06,3.62-16.68,10.63-3.87,8.59-1.82,12,7.13,9.43,11.85,11.85,19.7-1.09,19.7-1.09c0,0,4.59-2.06,6-5.68s4.72-8.71,2.54-14.15-11.84-12.93-14.86-13.78c-2.23-.45-4.53-.38-6.73.22Z"/><path class="cls-5" d="m319.9,246.1c-1.87.11-3.75-.2-5.49-.9-4.75-2.43-9.9-8.5-12-12s-1.91-5.3,1.79-12.46,16.41-10.72,17-10.88c2.28-.64,4.68-.73,7-.25,3.3.93,13,8.69,15.2,14.08,1.88,4.71-.1,9.06-1.68,12.55-.32.7-.62,1.35-.86,2-1.51,3.77-6.11,5.87-6.31,6-4.81,1.09-9.72,1.72-14.65,1.86Zm5.55-35.86c-1.35.01-2.7.2-4,.55h0c-.13,0-12.89,3.65-16.37,10.38-3.56,6.88-3.78,8.27-1.83,11.48,2.08,3.43,7.07,9.32,11.65,11.66s19.21-1.09,19.36-1.13h0s4.34-2,5.69-5.38c.25-.62.55-1.29.88-2,1.5-3.32,3.38-7.46,1.66-11.77-2.13-5.33-11.81-12.72-14.54-13.48-.81-.22-1.66-.32-2.5-.31h0Z"/><path class="cls-1" d="m330.79,219.48s-6.51,4-9.85,6.34c-2.28,1.53-4.75,2.76-7.35,3.67-1.8.88-2.77,2.89-2.33,4.85.66,3.5,1.93,15.61,1.93,15.61l-2.27,4.92,9.68,10.68,7.68-10,.84-5.18s7-4.34,7.18-5.34,2.17-15.69,2-17.19-7.51-8.36-7.51-8.36Z"/><path class="cls-5" d="m320.64,266.33l-10.31-11.33,2.35-5.09c-.15-1.35-1.3-12.19-1.92-15.44-.46-2.19.62-4.41,2.63-5.39,2.56-.9,5-2.12,7.26-3.63,3.31-2.32,9.81-6.32,9.88-6.36l.32-.2.28.26c1.75,1.64,7.49,7.1,7.67,8.66s-1.91,16.71-2,17.33c-.17,1-4.51,3.88-7.21,5.57l-.82,5.07-8.13,10.55Zm-9.13-11.55l9.06,10,7.24-9.44.85-5.27.2-.12c3.14-1.95,6.69-4.43,6.95-5,.19-1.14,2.15-15.62,2-17-.09-.8-3.62-4.53-7.07-7.78-1.36.84-6.64,4.13-9.51,6.13-2.32,1.56-4.83,2.81-7.47,3.74-1.57.79-2.4,2.56-2,4.27.66,3.49,1.88,15.17,1.93,15.66v.14l-2.18,4.67Z"/><path class="cls-5" d="m330.11,239.57c-.22,0-.42-.14-.48-.36-.08-.27.08-.54.34-.62,0,0,0,0,0,0,1.1-.3,2.14-.79,3.06-1.46.39-.35-.74-1.75-1.22-2.35s-.76-.95-.76-1.27c0-.49.33-3.46.37-3.8.03-.27.28-.47.55-.44.27.03.47.28.44.55-.14,1.3-.36,3.36-.36,3.69,0,0,.32.38.53.64.89,1.09,2.22,2.75,1.12,3.73-1.05.77-2.22,1.34-3.47,1.68h-.13Z"/><path class="cls-5" d="m329.58,242.91c-1,0-2.12-.64-3.34-1.92-.19-.2-.18-.52.02-.71.2-.19.52-.18.71.02,1.25,1.32,2.1,1.6,2.58,1.61.2.04.41-.02.56-.16.2-.19.51-.19.71,0,.18.19.18.49,0,.68-.33.32-.77.49-1.23.48h0Z"/><path class="cls-5" d="m329.12,250.36c-1.33-.12-2.63-.45-3.85-1-1.08-.73-4.23-3.14-4.23-3.14l6.17,10.63,1.07-1.3.84-5.19Z"/><path class="cls-5" d="m327.21,257.34h0c-.16,0-.31-.1-.39-.25l-6.17-10.63c-.11-.21-.07-.47.1-.63.19-.15.45-.15.64,0,0,0,3.14,2.42,4.2,3.12,1.14.52,2.37.84,3.62.94.14.01.27.08.35.19.08.11.11.25.09.38l-.83,5.18c-.02.09-.05.17-.11.24l-1.07,1.3c-.11.12-.27.18-.43.16Zm-4.48-9.23l4.55,7.86.53-.64.73-4.54c-1.23-.11-2.43-.45-3.54-1-.5-.36-1.42-1.03-2.27-1.68h0Z"/><path class="cls-1" d="m314.88,232.67s-2.3-6.89-5-3,1.58,9.3,3.63,9.18"/><path class="cls-5" d="m313.49,239.33c-1.2,0-2.81-1.32-3.87-3.19-1.36-2.42-1.4-4.89-.11-6.78.44-.88,1.36-1.42,2.34-1.37,2,.28,3.36,4.09,3.5,4.52l-.94.32c-.47-1.41-1.62-3.7-2.7-3.85-.44-.07-.9.26-1.37,1-1.53,2.21-.4,4.73.15,5.72,1,1.71,2.32,2.7,3,2.68l.06,1-.06-.05Z"/><ellipse class="cls-5" cx="325.94" cy="232.31" rx="1.03" ry="1.45"/><ellipse class="cls-5" cx="335.01" cy="232.31" rx="1.03" ry="1.45"/><path class="cls-5" d="m323.22,229.66c-.13,0-.26-.05-.35-.15-.19-.18-.2-.49-.02-.68,0,0,.01-.01.02-.02,1.56-1.43,3.87-1.66,5.68-.56.25.11.36.41.25.66-.11.25-.41.36-.66.25-.03-.01-.06-.03-.09-.05-1.41-.89-3.25-.72-4.48.41-.09.09-.22.14-.35.14Z"/><path class="cls-5" d="m337,230.15c-.23,0-.42-.15-.48-.37-.1-.43-.38-.8-.78-1-.84-.25-1.73-.21-2.54.12-.26.08-.54-.07-.62-.33-.07-.23.03-.48.24-.59,1.07-.45,2.27-.49,3.36-.1.65.32,1.13.92,1.3,1.63.07.26-.08.54-.34.62l-.14.02Z"/><polygon class="cls-1" points="310.89 251.16 319.35 261.92 313.55 268.21 307.02 256.48 310.89 251.16"/><path class="cls-5" d="m313.45,269.05l-7-12.61,4.45-6.11,9.1,11.67-6.55,7.05Zm-5.83-12.53l6,10.84,5.05-5.47-7.79-9.9-3.26,4.53Z"/><polyline class="cls-5" points="283.69 209.69 323.07 289.25 312.48 289.25 280.75 212.12"/><path class="cls-5" d="m323.07,289.75h-10.59c-.2,0-.38-.12-.46-.31l-31.73-77.13c-.11-.25,0-.54.26-.64,0,0,0,0,.01,0,.25-.11.54,0,.64.26,0,0,0,0,0,.01l31.6,76.82h9.45l-39-78.84c-.12-.25-.02-.55.23-.67,0,0,0,0,0,0,.25-.12.55-.01.67.23l39.36,79.53c.09.15.09.34,0,.49-.09.16-.26.26-.45.26Z"/><polygon class="cls-1" points="319.35 261.92 320.6 265.55 317.66 264.1 319.35 261.92"/><path class="cls-5" d="m321.47,266.54l-4.58-2.27,2.63-3.39,1.95,5.66Zm-3-2.62l1.3.65-.55-1.61-.75.96Z"/><polygon class="cls-1" points="322.37 260.11 326.48 268.21 332.77 257.57 328.54 254.18 322.37 260.11"/><path class="cls-5" d="m326.45,269.25l-4.69-9.25,6.75-6.48,4.91,3.93-6.97,11.8Zm-3.46-9l3.53,7,5.6-9.48-3.55-2.84-5.58,5.32Z"/><polygon class="cls-1" points="322.37 260.11 320.6 265.55 323.58 262.64 322.37 260.11"/><path class="cls-5" d="m319.5,267.33l2.79-8.57,1.9,4-4.69,4.57Zm3-5.87l-.75,2.32,1.27-1.24-.52-1.08Z"/><path class="cls-1" d="m492.52,296.86c.69-1.53,4.18-9.5,2.93-11.62-7.12-12-9.21-4-11.75-10-4.28-10.06-7.89-17.07-9.43-18.12-3-2-22.51-5.79-22.51-5.79l-23.92-.62s-20.64,8.44-22,10.32c-3.32,4.13-6.05,8.69-8.13,13.56-.31.76-7.44,6.46-7.76,7.22-3.36,8.17-.24,13.84.56,15.07l102.01-.02Z"/><path class="cls-5" d="m492.52,297.36h-102.06c-.17,0-.33-.09-.43-.23-.71-1.1-4.08-7.06-.59-15.53.19-.45,1.31-1.45,4-3.81,1.31-1.07,2.55-2.22,3.73-3.43,2.04-4.8,4.72-9.29,7.98-13.36l.24-.32c1.45-1.93,20.13-9.62,22.26-10.48.07-.01.13-.01.2,0l23.92.62c.88.17,19.76,3.81,22.78,5.88,2.31,1.57,7.49,13.35,9.61,18.33.94,2.22,1.68,2.28,2.91,2.38,1.91.16,4.52.38,8.81,7.59,1.31,2.2-1.59,9.18-2.9,12.08-.09.18-.27.28-.46.28Zm-101.79-1h101.47c2-4.49,3.62-9.51,2.82-10.86-4-6.77-6.34-7-8-7.1-1.32-.11-2.58-.22-3.75-3-5.12-12-8.19-17.17-9.25-17.9-2.28-1.56-15.6-4.41-22.33-5.7l-23.73-.62c-7.94,3.25-20.78,8.84-21.74,10.12l-.26.33c-3.18,4-5.81,8.41-7.8,13.12-.18.42-1.11,1.27-4,3.78-1.32,1.08-2.58,2.23-3.77,3.46-3.13,7.53-.53,12.9.34,14.37h0Z"/><path class="cls-5" d="m413.67,294.27c-.27,0-.49-.21-.5-.48-.2-4.86-.29-9.74-.37-14.45-.06-3.24-.11-6.5-.21-9.82,0-.28.22-.5.5-.5s.5.22.5.5c.1,3.32.15,6.59.21,9.83.08,4.71.17,9.58.37,14.43.01.28-.2.51-.48.52,0,0,0,0,0,0l-.02-.03Z"/><path class="cls-5" d="m413,267.52c-.27,0-.49-.22-.5-.49l-.06-2.48c-.02-.29.2-.53.49-.55.02,0,.05,0,.07,0,.28,0,.5.21.51.49h0s.06,2.47.06,2.47c.01.28-.2.51-.48.52,0,0,0,0-.01,0l-.08.04Z"/><path class="cls-5" d="m466.1,294.31h0c-.28-.03-.48-.26-.47-.54l1.89-25.1c.02-.28.26-.48.54-.46s.48.26.46.54l-1.89,25.1c-.02.28-.25.49-.53.47,0,0,0,0,0,0Z"/><path class="cls-5" d="m468.21,266.26h0c-.28-.02-.48-.26-.46-.54,0,0,0,0,0,0l.13-1.68c.02-.28.26-.48.54-.46.28.02.48.26.46.54h0l-.13,1.68c-.02.28-.26.48-.54.46,0,0,0,0,0,0Z"/><path class="cls-6" d="m434.34,277.73c.24,4.4-.24,13.3-.61,19.13h16c-.77-6.94-2-18.16-2.26-20.63-.37-3.62-5.24-14-5.24-14l3.12-4.12-5.62-5.87-3.62,5.62,2.87,4.74s-4.98,8.26-4.64,15.13Z"/><path class="cls-5" d="m449.71,297.36h-16c-.14,0-.27-.05-.36-.15-.1-.1-.15-.24-.14-.38.41-6.34.84-14.81.61-19.07-.34-6.33,3.68-13.64,4.54-15.13l-2.72-4.49c-.1-.16-.1-.37,0-.53l3.62-5.62c.08-.13.22-.21.37-.23.15-.02.3.04.41.15l5.62,5.87c.16.19.16.46,0,.65l-2.94,3.88c.79,1.7,4.81,10.5,5.16,13.87.23,2.25,1.32,12.13,2.26,20.63,0,.14-.04.28-.13.39-.08.09-.18.14-.3.16Zm-15.45-1h14.89c-.43-3.89-1.91-17.32-2.19-20.07-.37-3.5-5.16-13.73-5.2-13.83-.08-.17-.06-.36.05-.51l2.86-3.78-4.88-5.11-3.11,4.83,2.71,4.47c.1.16.1.36,0,.52-.05.08-4.91,8.2-4.55,14.83h0c.23,4.19-.18,12.35-.58,18.65h0Z"/><polygon class="cls-1" points="430.97 241.52 429.97 249.01 440.58 254.88 450.07 249.14 449.7 243.64 430.97 241.52"/><path class="cls-5" d="m440.59,255.38c-.09,0-.17-.02-.25-.06l-10.61-5.87c-.18-.1-.28-.3-.25-.5l1-7.5c.03-.26.26-.46.52-.45l18.73,2.13c.24.02.43.22.44.46l.37,5.49c.02.19-.07.37-.24.46l-9.49,5.75c-.06.05-.14.08-.22.09Zm-10.08-6.64l10.06,5.56,9-5.43-.33-4.78-17.83-2-.9,6.65Z"/><polygon class="cls-5" points="429.97 249.01 433.54 250.98 439.57 248.46 432.85 241.73 430.97 241.52 429.97 249.01"/><path class="cls-5" d="m433.54,251.48c-.09,0-.17-.02-.25-.06l-3.56-2c-.18-.1-.28-.3-.25-.5l1-7.5c.05-.25.27-.42.52-.42l1.87.22c.11.01.22.06.3.14l6.73,6.73c.12.12.17.29.13.45-.03.16-.14.3-.29.36l-6,2.53c-.06.03-.13.04-.2.05Zm-3-2.74l3.06,1.69,5.12-2.14-6.07-6.08-1.22-.14-.89,6.67Z"/><path class="cls-1" d="m430.23,211.89s-3.53,2.52-3.79,6.17,1.64,20.55,3.66,24.34,4.41,6.8,9.33,7.69,10.72-4,11.35-6.31,3-14,3-18.4.51-9.46-3.53-13.11-10.59-4.42-13.74-3.79-6.28,3.41-6.28,3.41Z"/><path class="cls-5" d="m440.66,250.69c-.44,0-.88-.03-1.32-.11-5.29-1-7.78-4.38-9.68-8-2.13-4-4-21-3.72-24.6s3.64-6.29,4-6.53c1.88-1.64,4.11-2.84,6.52-3.51,3.26-.65,10,.14,14.18,3.91,3.8,3.44,3.75,8.07,3.7,12.16v1.32c0,4.56-2.45,16.42-3,18.54s-5.73,6.82-10.68,6.82Zm-1.8-41.91c-.75,0-1.49.06-2.23.19-3,.6-6,3.27-6.07,3.29h0s-3.34,2.44-3.58,5.81c-.27,3.89,1.69,20.48,3.6,24.06,2.06,3.87,4.38,6.61,9,7.43s10.19-3.84,10.77-5.94c.63-2.26,3-14,3-18.27v-1.34c.05-4.06.09-8.26-3.37-11.4-3.15-2.79-7.8-3.83-11.12-3.83h0Zm-8.63,3.11h0Z"/><path class="cls-5" d="m450.27,212.27c-4-3.66-10.59-4.42-13.74-3.79s-6.3,3.41-6.3,3.41c0,0-3.53,2.52-3.79,6.17.04,3.92.35,7.84.93,11.72.26.05.59-.07.59-1,0-1.51-.89-2.39.25-3.66,1.43-1.44,2.74-3,3.91-4.66.63-1.29.89-2.73.75-4.16,2.01,1.4,4.37,2.23,6.81,2.4,4.54.5,9.46.5,10.21.63s-.25.88.89,2.39,1.63,2.27,1.76,3,.69,4.3.84,5.29c.24-1.54.38-3.1.42-4.66,0-4.35.51-9.43-3.53-13.08Z"/><path class="cls-5" d="m453.38,230.54c-.24,0-.45-.18-.49-.42l-.05-.28c-.2-1.27-.69-4.41-.79-5-.35-1.04-.92-2-1.67-2.81-.51-.6-.76-1.39-.68-2.18h0c-.35,0-1.07-.07-2-.1-2.05-.07-5.15-.19-8.11-.52-2.19-.2-4.31-.86-6.23-1.93.01,1.21-.28,2.4-.86,3.46-.95,1.4-2.02,2.71-3.21,3.92l-.75.82c-.48.51-.6,1.25-.32,1.89.12.47.19.95.2,1.43.06.48-.1.96-.44,1.31-.21.17-.48.24-.74.19-.21-.04-.38-.21-.41-.43-.58-3.91-.89-7.86-.93-11.82.27-3.85,3.84-6.44,4-6.55,1.88-1.63,4.09-2.82,6.49-3.49,3.26-.65,10,.14,14.18,3.91h0c3.8,3.44,3.75,8.07,3.7,12.16v1.32c-.04,1.58-.18,3.16-.42,4.73-.03.24-.24.43-.49.43l.02-.04Zm-20.51-14.74c.12,0,.23.04.32.12,1.94,1.32,4.2,2.11,6.55,2.28,2.93.32,6,.44,8,.51,1.25,0,1.91.08,2.2.12.48.08.81.53.73,1.01,0,.02,0,.04-.01.06-.06.55.12,1.1.48,1.52,1.15,1.54,1.71,2.36,1.85,3.24,0,.23.14.82.25,1.53v-2.15c.05-4.06.09-8.26-3.37-11.4h0c-3.9-3.54-10.25-4.28-13.31-3.67s-6,3.27-6.07,3.29-3.38,2.47-3.62,5.84c-.01,2.46.13,4.92.43,7.37.12-.25.28-.48.47-.68l.76-.83c1.14-1.16,2.17-2.42,3.09-3.76.57-1.2.81-2.53.69-3.85-.02-.2.08-.4.26-.49.09-.05.2-.07.3-.06Z"/><path class="cls-5" d="m441.09,237.25c-1.23-.13-2.41-.56-3.44-1.24-.23-.14-.3-.44-.16-.67,0,0,0-.01.01-.02.15-.23.46-.3.69-.15.55.35,2.19,1.24,3.17,1.06.92-.23,1.79-.62,2.57-1.17.24-.14.54-.06.68.18.12.21.08.48-.1.63-.9.64-1.92,1.1-3,1.35-.14.02-.28.03-.42.03Z"/><path class="cls-5" d="m450.15,226.89c-.12,0-.23-.04-.32-.12-1.47-1.25-3.61-1.35-5.19-.23-.22.16-.54.11-.7-.11-.16-.22-.11-.54.11-.7h0c1.96-1.35,4.57-1.24,6.41.27.21.17.25.48.08.69,0,0,0,0,0,.01-.09.12-.23.19-.38.19Z"/><path class="cls-5" d="m432.5,227.39c-.12,0-.24-.04-.33-.12-.21-.18-.23-.5-.05-.71,2.12-2.46,5.15-1.46,6.45-.59.22.17.25.49.08.7-.15.19-.41.24-.63.13-.13-.08-3.07-2-5.15.42-.09.11-.23.17-.37.17Z"/><path class="cls-5" d="m436.4,228.78c0,.63-.31,1.14-.69,1.14s-.69-.51-.69-1.14.31-1.13.69-1.13.69.5.69,1.13Z"/><path class="cls-5" d="m446.93,228.78c0,.63-.31,1.14-.69,1.14s-.7-.51-.7-1.14.31-1.13.7-1.13.69.5.69,1.13Z"/><path class="cls-5" d="m440.57,241.17c-1.75,0-3.49-.35-5.12-1-.25-.11-.37-.4-.26-.66,0,0,0,0,0,0,.11-.25.4-.37.66-.26h0c3.04,1.17,6.41,1.13,9.42-.12.24-.12.54-.02.65.23,0,0,0,0,0,.01.12.25.01.55-.23.67,0,0,0,0,0,0-1.6.74-3.35,1.13-5.12,1.13Z"/><path class="cls-1" d="m427.2,227.52s-2-1.64-2.77,1.26,3.91,6.68,3.91,6.68l-1.14-7.94Z"/><path class="cls-5" d="m428.34,236c-.12,0-.23-.04-.32-.11-.2-.16-4.91-4-4.08-7.2.13-.88.7-1.64,1.51-2,.73-.15,1.49.03,2.07.49.1.08.16.2.18.32l1.13,7.94c.04.27-.14.52-.4.56-.03,0-.06,0-.09,0h0Zm-2.35-8.41c-.08-.01-.15-.01-.23,0-.46.16-.71.8-.85,1.32-.43,1.66,1.35,3.89,2.73,5.25l-.9-6.35c-.22-.15-.47-.24-.74-.26v.04Z"/><path class="cls-1" d="m453.68,228s1.13-1.89,2.14.51-3.53,7.69-3.53,7.69l1.39-8.2Z"/><path class="cls-5" d="m452.29,236.72c-.07,0-.14-.02-.21-.05-.21-.09-.32-.31-.28-.53l1.38-8.2c0-.06.03-.12.07-.17.28-.58.85-.96,1.49-1,.62,0,1.13.55,1.54,1.51,1.1,2.61-3.13,7.65-3.61,8.21-.08.13-.22.22-.38.23Zm1.86-8.51l-1,6.14c1.41-2,2.75-4.44,2.25-5.63-.28-.65-.54-.89-.69-.9s-.42.18-.56.39Z"/><path class="cls-5" d="m441.14,237.82s-6-.84-7.26,1.17c-1.09,1.75-.48,6.6.52,8.94,1.47,1.11,3.18,1.85,5,2.16,2.44.44,5.1-.56,7.24-2,.5-.71,1.21-2.5.95-6.88-.18-3.49-1.71-3.84-6.45-3.39Zm4.51,8.19c-1.4.96-3.07,1.46-4.77,1.42-1,0-4.29-.09-5.42-1.24s-2-5.48-.9-6.89,6.51-.82,6.51-.82c4.26-.32,5.64-.08,5.83,2.41.34,4.56-1.25,5.11-1.25,5.11h0Z"/><path class="cls-5" d="m440.64,250.69c-.44,0-.87-.03-1.3-.11-1.91-.31-3.71-1.09-5.25-2.25-.06-.06-.11-.12-.15-.2-1-2.44-1.7-7.46-.48-9.4,1.35-2.17,6.82-1.53,7.69-1.41,2.91-.27,4.7-.24,5.78.68.83.86,1.26,2.03,1.19,3.23.26,4.36-.42,6.32-1,7.2-.04.05-.08.1-.14.13-1.87,1.29-4.07,2.03-6.34,2.13Zm-5.83-3.08c1.38,1.04,3,1.72,4.71,2,2.67.49,5.37-.9,6.79-1.81.51-.94.78-2,.8-3.07-.14.72-.58,1.35-1.21,1.73-1.47,1-3.22,1.52-5,1.49h-.11c-2.05-.06-4.55-.27-5.64-1.38-.54-.66-.92-1.43-1.13-2.25.13,1.12.4,2.23.79,3.29h0Zm3.92-8.76c-1.7,0-3.34.2-3.78.76-1,1.2-.09,5.25.87,6.23s4,1,5,1.08h.11c1.59.02,3.14-.44,4.46-1.32.03-.03.07-.05.11-.06.06,0,1.24-.71.94-4.63-.14-1.86-.78-2.28-5.29-1.95-.76-.06-1.6-.11-2.42-.11h0Z"/><path class="cls-5" d="m442.55,245.37c0,.51-.73,2.06-1.63,2.06s-1.63-1.55-1.63-2.06.73-.93,1.63-.93,1.63.42,1.63.93Z"/><path class="cls-5" d="m440.92,247.93c-1.29,0-2.13-1.91-2.13-2.56,0-.82.92-1.43,2.13-1.43s2.13.61,2.13,1.43c0,.63-.84,2.56-2.13,2.56Zm0-3c-.74,0-1.13.32-1.13.43,0,.36.63,1.56,1.13,1.56s1.13-1.2,1.13-1.56c0-.1-.39-.42-1.13-.42h0Z"/><polygon class="cls-1" points="440.58 254.88 431.47 263.37 426.6 250.51 429.72 248.01 440.58 254.88"/><path class="cls-5" d="m431.47,263.87h-.11c-.17-.03-.3-.15-.36-.31l-4.87-12.86c-.07-.2,0-.43.16-.57l3.12-2.5c.17-.12.41-.12.58,0l10.86,6.87c.13.08.22.22.23.37.02.16-.04.31-.15.42l-9.12,8.49c-.1.07-.22.1-.34.09Zm-4.27-13.2l4.47,11.83,8.1-7.54-10-6.33-2.57,2.04Z"/><polygon class="cls-1" points="440.58 254.88 447.95 264.5 452.82 251.76 450.07 249.14 440.58 254.88"/><path class="cls-5" d="m448,265c-.15,0-.3-.08-.39-.2l-7.37-9.62c-.09-.11-.12-.25-.1-.39.03-.14.12-.27.24-.34l9.49-5.74c.19-.12.44-.09.6.07l2.75,2.62c.14.14.19.35.12.54l-4.87,12.73c-.07.17-.22.29-.4.32h-.07Zm-6.63-9.99l6.48,8.46,4.44-11.59-2.29-2.11-8.63,5.24Z"/><polyline class="cls-5" points="480.26 209.69 422.02 289.25 432.61 289.25 483.2 212.12"/><path class="cls-5" d="m432.61,289.75h-10.61c-.28-.01-.5-.25-.49-.53,0-.1.04-.19.09-.27l58.24-79.56c.16-.22.48-.27.7-.11.22.16.27.48.11.7h0l-57.65,78.77h9.33l50.45-76.91c.17-.22.49-.25.7-.08.19.15.24.41.13.63l-50.61,77.13c-.09.13-.23.22-.39.23Z"/><path class="cls-1" d="m386.7,296.86h14.71c1.41-1.64,2.77-3.51,3.13-4,1.57-2.16,2.04-4.94,1.25-7.5-.82-2.51-2.48-4.66-4.69-6.1l-3.9.78s-3.29-1.09-5.79,0-5.78,4.85-7,9.22c-.89,2.76.03,5.79,2.29,7.6Z"/><path class="cls-5" d="m401.41,297.36h-14.71c-.12,0-.23-.04-.33-.11-2.38-1.95-3.36-5.13-2.47-8.08,1.29-4.54,4.73-8.42,7.31-9.55,2.39-1,5.35-.25,6-.06l3.79-.75c.12-.03.25,0,.35.06,2.33,1.5,4.07,3.76,4.92,6.39.81,2.72.32,5.66-1.35,7.95l-.44.58c-.61.8-1.63,2.16-2.7,3.4-.1.1-.23.17-.37.17Zm-14.53-1h14.3c1-1.17,1.94-2.42,2.52-3.18l.45-.59c1.48-2.04,1.91-4.66,1.16-7.06-.76-2.33-2.28-4.33-4.31-5.7l-3.71.74c-.08.02-.17.02-.25,0,0,0-3.14-1-5.43,0s-5.54,4.65-6.75,8.9c-.75,2.49.04,5.2,2.02,6.89Z"/><path class="cls-5" d="m394.28,294.19c-.16,0-.32-.08-.41-.22-2.51-3.65-1.88-8.43,1.77-13.44.17-.22.48-.27.7-.11.22.16.27.47.11.7,0,0,0,0,0,0-2.4,3.29-4.65,8.09-1.76,12.29.16.22.1.53-.12.68,0,0,0,0-.01,0-.08.06-.18.09-.28.09Z"/><path class="cls-1" d="m418.36,275.43s2.59-.64,3.45-.1c1,.93,1.77,2.07,2.27,3.34.43,1-.22,1.83-1.62,2.05s-3.23-1.62-3.23-1.62l-.87-3.67Z"/><path class="cls-5" d="m422.23,281.23c-1.53,0-3.16-1.58-3.36-1.78-.06-.07-.11-.15-.13-.24l-.86-3.66c-.06-.26.1-.53.36-.6.47-.12,2.85-.67,3.84-.05,1.15.72,2.25,3.1,2.46,3.56.25.5.25,1.08,0,1.58-.44.69-1.18,1.12-2,1.17-.1.02-.21.02-.31.02Zm-2.55-2.39c.54.51,1.82,1.52,2.7,1.38.49-.02.95-.26,1.25-.65.12-.22.12-.48,0-.7-.45-1.18-1.16-2.24-2.07-3.12-.85-.2-1.74-.18-2.58.06l.7,3.03Z"/><polygon class="cls-5" points="471.85 281.28 469.76 278.6 448.13 292.17 432.61 292.17 411.13 279.94 409.34 281.88 419.91 296.86 459.73 296.86 471.85 281.28"/><path class="cls-5" d="m459.73,297.36h-39.82c-.16,0-.32-.07-.41-.21l-10.57-15c-.13-.2-.11-.46.05-.63l1.79-1.94c.16-.17.41-.21.61-.1l21.37,12.17h15.25l21.51-13.5c.22-.13.5-.08.66.12l2.09,2.68c.14.18.14.44,0,.62l-12.12,15.58c-.09.13-.25.21-.41.21Zm-39.56-1h39.31l11.73-15.08-1.57-2-21.25,13.33c-.08.05-.17.08-.26.08h-15.52c-.09,0-.17-.02-.24-.07l-21.14-12-1.23,1.3,10.17,14.44Z"/><path class="cls-5" d="m408.28,296.86c1.04-17.79,16.3-31.36,34.09-30.32,16.33.96,29.37,13.99,30.32,30.32h5.15c-1.01-20.63-18.56-36.53-39.19-35.52-19.21.94-34.58,16.31-35.52,35.52h5.15Z"/><path class="cls-5" d="m477.84,297.36h-5.15c-.27,0-.49-.2-.5-.47-1.03-17.51-16.06-30.87-33.57-29.84-16.07.95-28.89,13.77-29.84,29.84-.02.26-.24.47-.5.47h-5.15c-.14,0-.27-.05-.36-.15-.1-.1-.15-.23-.14-.37,1.02-20.91,18.79-37.03,39.7-36.01,19.48.95,35.06,16.53,36.01,36.01,0,.14-.05.27-.14.37-.1.1-.22.15-.36.15Zm-4.68-1h4.15c-1.3-20.34-18.84-35.77-39.18-34.47-18.53,1.18-33.29,15.95-34.47,34.47h4.15c1.3-18.05,16.99-31.62,35.03-30.32,16.23,1.17,29.15,14.08,30.32,30.32Z"/><path class="cls-1" d="m404.24,272.85s-6.58,9.48-6.79,12.83,1.29,6.79,4.53,7.33,3.77-1.51,3.77-1.51c0,0,7,1.51,7.33,1.51.61-.08,1.11-.5,1.3-1.08.19-.6.44-1.18.75-1.73.67-.48,1.22-1.11,1.62-1.83.64-1.18.86-1.72.86-1.72.55-.78,1.02-1.61,1.4-2.48.15-.71.22-1.43.22-2.16.63-.84.98-1.86,1-2.91-.11-1.51-1.62-4.2-4.75-5.93s-7.54-2.48-9.05-2.26c-1.01.25-1.82.97-2.19,1.94Z"/><path class="cls-5" d="m403,293.6c-.37,0-.73-.04-1.09-.1-3.71-.62-5.17-4.51-4.95-7.86s6.29-12.22,6.85-13c.42-1.11,1.37-1.94,2.53-2.2,1.63-.23,6.2.58,9.36,2.32s4.87,4.49,5,6.33c0,1.12-.34,2.21-1,3.11,0,.72-.07,1.43-.23,2.13-.38.91-.87,1.78-1.44,2.59-.07.16-.32.72-.86,1.72-.42.75-.98,1.41-1.67,1.93-.27.49-.49,1-.66,1.53-.25.8-.95,1.37-1.78,1.44-.31,0-4.38-.87-7.05-1.44-.65,1.02-1.81,1.6-3.01,1.5Zm4-22.23c-.17-.01-.35-.01-.52,0-1.19.17-1.76,1.61-1.76,1.62l-.06.11c-.06.1-6.5,9.41-6.7,12.58-.19,2.91,1,6.29,4.11,6.8,2.71.45,3.19-1.08,3.21-1.15.08-.25.33-.4.59-.35,2.61.56,6.88,1.46,7.25,1.5.37-.09.66-.36.78-.72.21-.63.48-1.25.8-1.83.04-.07.09-.13.16-.17.6-.44,1.1-1.01,1.46-1.66.62-1.13.83-1.66.84-1.67l.05-.1c.52-.73.96-1.51,1.33-2.33.14-.66.2-1.33.2-2,0-.11.03-.22.1-.3.55-.75.85-1.64.87-2.57-.09-1.23-1.38-3.82-4.49-5.53-2.55-1.32-5.35-2.08-8.22-2.23Zm-2.75,1.48h0Z"/><path class="cls-5" d="m419.23,282.51c-.09,0-.18-.02-.25-.07l-8.86-5.08c-.24-.14-.32-.45-.19-.69.14-.24.44-.32.68-.18,0,0,0,0,0,0l8.86,5.09c.24.14.32.45.17.69-.09.15-.25.24-.42.24Z"/><path class="cls-5" d="m409.47,276.91c-.09,0-.17-.02-.24-.07l-1.14-.65c-.24-.14-.32-.44-.19-.68.14-.24.45-.32.69-.19l1.13.66c.24.13.33.43.2.66,0,0,0,.01,0,.02-.09.16-.26.25-.44.25Z"/><path class="cls-5" d="m417.61,287.15c-.08,0-.16-.02-.23-.06l-11.86-6.09c-.24-.13-.34-.43-.21-.68.13-.24.43-.33.67-.21l11.86,6.14c.24.13.34.43.21.68-.1.15-.26.23-.44.22Z"/><path class="cls-5" d="m415.13,290.7c-.07.02-.13.02-.2,0l-7.77-3.44c-.25-.11-.37-.41-.26-.67s.41-.37.67-.26h0l7.76,3.45c.25.1.37.39.27.64,0,0,0,.01,0,.02-.1.16-.27.26-.46.25Z"/><path class="cls-5" d="m406.21,286.75c-.07.01-.13.01-.2,0l-1.54-.68c-.25-.11-.37-.41-.26-.67s.41-.37.67-.26h0l1.54.68c.25.12.36.41.25.66-.09.17-.27.27-.46.26Z"/><path class="cls-1" d="m480.22,296.86h14.71c2.26-1.8,3.18-4.8,2.32-7.56-1.25-4.37-4.53-8.13-7-9.22s-5.79,0-5.79,0l-3.91-.78c-2.21,1.44-3.86,3.59-4.69,6.1-.78,2.56-.31,5.33,1.25,7.5.34.45,1.69,2.32,3.11,3.96Z"/><path class="cls-5" d="m494.93,297.36h-14.71c-.15,0-.28-.06-.38-.17-1.07-1.24-2.1-2.6-2.71-3.4l-.44-.58c-1.66-2.3-2.16-5.24-1.34-7.95.86-2.63,2.59-4.89,4.91-6.39.11-.07.24-.09.36-.06l3.78.75c.67-.19,3.63-1,6,.06,2.57,1.13,6,5,7.31,9.55.89,2.95-.09,6.14-2.48,8.08-.09.07-.19.11-.3.11Zm-14.48-1h14.29c1.98-1.7,2.77-4.42,2-6.92-1.22-4.25-4.39-7.87-6.76-8.9s-5.39,0-5.42,0c-.08.02-.18.02-.26,0l-3.7-.74c-2.03,1.37-3.55,3.38-4.32,5.7-.73,2.41-.31,5.02,1.16,7.06.1.11.25.32.46.59.61.79,1.55,2.04,2.55,3.21h0Z"/><path class="cls-5" d="m487.35,294.19c-.1,0-.2-.03-.29-.09-.22-.16-.27-.47-.12-.69.36-.52.65-1.08.87-1.67.1-.26.39-.39.64-.29.26.1.39.39.3.64-.26.66-.59,1.29-1,1.88-.09.13-.24.22-.4.22Z"/><path class="cls-5" d="m488.71,290.71h-.07c-.27-.04-.47-.29-.43-.56.47-3.38-1.39-6.77-3-9-.16-.22-.11-.54.11-.7.22-.16.54-.11.7.11,1.75,2.4,3.73,6,3.23,9.75-.05.25-.29.42-.54.4Z"/><path class="cls-1" d="m463.26,275.43s-2.59-.64-3.45-.1c-.99.93-1.76,2.07-2.26,3.34-.43,1,.21,1.83,1.62,2.05s3.23-1.62,3.23-1.62l.86-3.67Z"/><path class="cls-5" d="m459.4,281.23c-.1,0-.21,0-.31,0-.82-.05-1.56-.48-2-1.17-.25-.5-.25-1.08,0-1.58.21-.46,1.31-2.84,2.46-3.56,1-.62,3.37-.07,3.83.05.27.06.43.33.37.6l-.86,3.66c-.02.09-.07.18-.14.24-.19.18-1.83,1.76-3.35,1.76Zm1.49-5.62c-.28-.02-.56.03-.81.14-.91.88-1.62,1.94-2.07,3.12-.12.22-.12.48,0,.7.3.39.75.63,1.24.65.88.15,2.17-.87,2.71-1.38l.71-3c-.59-.13-1.18-.21-1.78-.23h0Z"/><path class="cls-1" d="m477.39,272.85s6.57,9.48,6.79,12.83-1.3,6.79-4.53,7.33-3.77-1.51-3.77-1.51c0,0-7,1.51-7.34,1.51-.6-.08-1.11-.5-1.29-1.08-.19-.6-.44-1.18-.75-1.73-.67-.48-1.22-1.11-1.62-1.83-.32-.56-.61-1.13-.86-1.72-.55-.78-1.02-1.61-1.4-2.48-.15-.71-.22-1.43-.22-2.16-.64-.84-.99-1.86-1-2.91.11-1.51,1.62-4.2,4.74-5.93s7.55-2.48,9.06-2.26c1.01.25,1.82.97,2.19,1.94Z"/><path class="cls-5" d="m478.63,293.6c-1.21.09-2.36-.5-3-1.53-2.66.57-6.73,1.44-7,1.44-.84-.06-1.55-.63-1.78-1.44-.17-.53-.39-1.04-.66-1.53-.69-.52-1.26-1.17-1.67-1.93-.55-1-.79-1.56-.86-1.72-.58-.81-1.07-1.68-1.45-2.59-.15-.7-.22-1.41-.23-2.13-.66-.9-1.01-1.99-1-3.11.13-1.85,1.89-4.61,5-6.33s7.74-2.55,9.37-2.32c1.16.27,2.1,1.09,2.53,2.2.56.81,6.63,9.68,6.85,13s-1.24,7.24-4.95,7.86c-.38.08-.76.12-1.15.13Zm-2.75-2.6c.23,0,.42.15.48.37,0,.06.5,1.59,3.21,1.14,3.09-.51,4.3-3.89,4.11-6.8-.21-3.17-6.64-12.48-6.71-12.58-.02-.03-.04-.07-.05-.11,0,0-.57-1.45-1.76-1.62-3.05.02-6.05.78-8.75,2.21-3.1,1.71-4.39,4.3-4.48,5.53.02.93.32,1.82.87,2.57.06.09.1.19.1.3,0,.67.06,1.34.2,2,.36.82.81,1.6,1.33,2.33l.05.1c.25.57.53,1.13.84,1.67.36.65.86,1.21,1.45,1.66.07.04.12.1.16.17.33.58.59,1.19.8,1.83.12.37.44.65.82.72.33,0,4.61-.94,7.22-1.5h.11Z"/><path class="cls-5" d="m462.4,282.51c-.28,0-.5-.23-.49-.51,0-.17.09-.34.24-.42l8.86-5.09c.23-.14.53-.06.67.17,0,0,0,0,0,.01.14.24.06.55-.18.69l-8.86,5.08c-.08.05-.16.07-.25.07Z"/><path class="cls-5" d="m472.15,276.91c-.28,0-.5-.23-.49-.51,0-.17.09-.34.24-.42l1.14-.66c.24-.13.54-.05.68.19.14.23.06.53-.17.67,0,0,0,0-.01,0l-1.14.65c-.07.05-.16.07-.25.07Z"/><path class="cls-5" d="m464,287.15c-.28,0-.51-.21-.51-.49,0-.2.11-.38.28-.46l11.86-6.14c.24-.12.54-.03.67.21.13.25.03.55-.21.68l-11.86,6.14c-.07.04-.15.06-.23.06Z"/><path class="cls-5" d="m466.5,290.7c-.28,0-.5-.23-.49-.51,0-.19.11-.36.28-.44l7.77-3.45c.25-.11.55,0,.66.26s0,.55-.26.66l-7.76,3.44c-.06.03-.13.04-.2.04Z"/><path class="cls-5" d="m475.41,286.75c-.2,0-.37-.12-.45-.3-.11-.25,0-.55.25-.66l1.54-.68c.25-.11.55,0,.66.26h0c.11.25,0,.55-.25.66l-1.54.68c-.07.03-.14.04-.21.04Z"/><path class="cls-5" d="m507.54,362.56v63.16h-246.92v-63.16h-46.41v92.31c0,7.18,5.82,13,13,13h20.49c7.18,0,13-5.82,13-13h0v-4.26h22.49l10.53-6.7h179.85l13.43,7.65h20.58v3.31c0,7.18,5.82,13,13,13h20.42c7.18,0,13-5.82,13-13h0v-92.31h-46.46Z"/><path class="cls-5" d="m541,468.33h-20.49c-7.44.02-13.49-6.01-13.51-13.45,0,0,0,0,0-.01v-2.81h-20c-.08,0-.17-.02-.24-.06l-13.29-7.59h-179.68l-10.41,6.59c-.08.05-.17.08-.27.08h-22v3.76c-.01,7.43-6.03,13.45-13.46,13.46h-20.48c-7.43-.01-13.45-6.03-13.46-13.46v-92.28c0-.28.22-.5.5-.5h46.41c.28,0,.5.22.5.5v62.66h245.88v-62.66c0-.28.22-.5.5-.5h46.5c.28,0,.5.22.5.5v92.31c-.01,7.44-6.06,13.47-13.5,13.46h0Zm-53.9-17.27h20.44c.28,0,.5.22.5.5v3.31c.01,6.88,5.59,12.45,12.47,12.46h20.49c6.88,0,12.46-5.58,12.47-12.46v-91.81h-45.47v62.66c0,.28-.22.5-.5.5h-246.88c-.28,0-.5-.22-.5-.5v-62.66h-45.41v91.81c0,6.88,5.58,12.45,12.46,12.46h20.49c6.88,0,12.45-5.58,12.46-12.46v-4.26c0-.28.22-.5.5-.5h22.38l10.4-6.62c.08-.05.17-.08.27-.08h179.9c.08,0,.17.02.24.06l13.29,7.59Z"/><path class="cls-6" d="m544.39,317.1c-1.72-3.44-14.27-16.54-16.79-19.16-.29-.3-.54-.64-.74-1-3.07-5.86-29.11-73-33.68-81.49-8.37-15.62-15.1-13.27-24.05-14.41h-.79l-67.94-3.43c-11.19-.57-22.4-.57-33.59,0-18.39.92-36.78,1.84-55.17,2.76-15.35.78-30.14-.21-38.57,15.06-4.68,8.46-30.61,75.6-33.68,81.48-.2.36-.45.7-.74,1-2.54,2.63-15.07,15.72-16.79,19.16-1.91,3.83-9.57,18.18-9.57,21,0,2.48,1.78,43.42,9.65,75.5,2.28,9.61,9.56,17.25,19.06,19.99.47.15.95.25,1.44.3h59.61c1.61,0,3.09-.86,3.9-2.25l14.1-24.36c.28-.48.65-.9,1.08-1.25,5.97-4.62,13.32-7.11,20.87-7.07h82.31c7.53-.02,14.86,2.47,20.82,7.07.43.35.79.77,1.07,1.25l14.1,24.36c.81,1.39,2.29,2.25,3.9,2.25h59.61c.49-.05.97-.15,1.44-.3,9.47-2.72,16.75-10.33,19.06-19.91,7.87-32.08,9.65-73,9.65-75.5.04-2.87-7.66-17.22-9.57-21.05Zm-292.39-30.63c12-23.44,34.45-76.3,34.45-76.3,109.59-11,193.8-.48,193.8-.48l32.54,76.78c-74.16-7.17-260.79,0-260.79,0Z"/><path class="cls-5" d="m523.81,434.36h-59.61c-1.79,0-3.44-.95-4.33-2.5l-14.1-24.36c-.26-.43-.6-.81-1-1.11-5.88-4.54-13.1-7.01-20.53-7h-82.24c-7.43,0-14.65,2.45-20.53,7-.39.3-.71.68-.95,1.11l-14.11,24.36c-.89,1.55-2.54,2.5-4.33,2.5h-59.64c-.54-.04-1.07-.14-1.58-.32-9.63-2.79-17.04-10.52-19.41-20.27-8.18-33.37-9.66-75.25-9.66-75.62,0-2.33,4.3-10.9,8.33-18.74l1.3-2.53c1.7-3.42,13.34-15.63,16.87-19.29.26-.27.48-.58.65-.91,1.3-2.49,6.72-16,13-31.68,8.43-21.06,18-44.94,20.69-49.81,7.76-14.05,20.79-14.57,34.59-15.13,1.46-.06,2.92-.11,4.39-.19l37.87-1.9,17.3-.86c11.16-.56,22.48-.55,33.64,0l67.95,3.43c.09.01.19.01.28,0,.18-.03.37-.03.55,0,1.39.18,2.74.27,4,.36,7.08.48,13.19.89,20.39,14.31,2.56,4.77,11.83,27.86,20,48.23,6.34,15.78,12.32,30.69,13.67,33.25.17.33.39.64.65.91,2.51,2.61,15.12,15.78,16.87,19.29h0l1.3,2.53c4,7.84,8.33,16.41,8.33,18.74,0,.37-1.49,42.26-9.66,75.62-2.37,9.72-9.75,17.43-19.36,20.22-.51.19-1.04.31-1.58.36Zm-181.81-35.93h82.31c7.65-.02,15.1,2.51,21.16,7.18.48.39.88.86,1.19,1.39l14.1,24.36c.72,1.24,2.04,2,3.47,2h59.61c.44-.05.88-.14,1.3-.28,9.3-2.68,16.44-10.14,18.72-19.55,8.15-33.26,9.63-75,9.63-75.38,0-2.29-5.55-13.09-8.22-18.28-.54-1.06-1-1.94-1.3-2.55h0c-1.69-3.37-14.21-16.45-16.7-19-.32-.34-.6-.72-.82-1.13-1.37-2.61-7.09-16.85-13.71-33.35-8.17-20.34-17.43-43.4-20-48.13-6.93-12.93-12.5-13.31-19.57-13.79-1.31-.09-2.68-.18-4.1-.36-.11,0-.21,0-.32,0-.14.02-.29.02-.43,0l-67.95-3.43c-11.17-.56-22.37-.56-33.54,0l-17.3.86-37.87,1.9c-1.47.08-2.94.13-4.4.19-13.51.54-26.27,1.05-33.76,14.61-2.66,4.82-12.21,28.66-20.63,49.7-6.29,15.69-11.72,29.24-13,31.77-.22.42-.5.81-.82,1.15-2.5,2.59-15,15.66-16.7,19-.3.61-.76,1.49-1.3,2.55-2.67,5.19-8.22,16-8.22,18.28,0,.37,1.48,42.12,9.63,75.38,2.27,9.4,9.41,16.87,18.71,19.55.43.14.86.23,1.31.28h59.61c1.43,0,2.75-.76,3.47-2l14.06-24.35c.31-.53.71-1,1.19-1.39,6.07-4.68,13.53-7.2,21.19-7.18Zm170.8-111.43h0c-73.3-7.09-258.86-.07-260.73,0-.18,0-.34-.08-.44-.23-.09-.15-.09-.34,0-.49,11.75-23.2,34.15-75.78,34.37-76.28.07-.17.23-.28.41-.3,108.39-10.89,193.07-.58,193.92-.48.17.03.32.14.39.3l32.54,76.79c.09.15.09.34,0,.49-.11.14-.28.22-.46.2Zm-226-76.33c-1.75,4.09-22.49,52.63-34,75.3,13.75-.51,187.84-6.77,259.18,0l-32.1-75.75c-5.46-.72-88.1-10.09-193.07.42v.03Z"/><path class="cls-4" d="m304.65,433.86l-3.35,7.65h162.7l-2.39-7.65-15.79-27.28s-6.22-7.18-21.53-7.65-82.31,0-82.31,0c-7.88-.2-15.55,2.52-21.53,7.65l-15.8,27.28Z"/><path class="cls-5" d="m464,442h-162.7c-.17,0-.33-.08-.42-.22-.08-.15-.08-.33,0-.48l3.35-7.65v-.05l15.77-27.27s.06-.09.1-.13c6.1-5.19,13.89-7.95,21.9-7.77.63,0,67.14-.48,82.28,0,15.36.48,21.64,7.53,21.9,7.83l15.82,27.35s0,.07,0,.1l2.39,7.66c.05.15.02.31-.07.44-.08.1-.19.17-.32.19Zm-161.94-1h161.26l-2.18-6.95-15.76-27.23h0s-6.24-6.94-21.12-7.4c-15.13-.48-81.61,0-82.28,0-7.73-.17-15.25,2.49-21.15,7.48l-15.74,27.17-3.03,6.93Z"/><path class="cls-5" d="m318.52,342.94s12.92,23,16.75,26.8,8.14,3.82,13.4,4.3,77.52,0,77.52,0c0,0,5.74-1,8.62-5.26s12.44-25.84,12.44-25.84h-128.73Z"/><path class="cls-5" d="m371.12,374.76c-11.5,0-20.71-.06-22.49-.22l-1.45-.12c-4.65-.39-8.66-.73-12.26-4.33-3.83-3.83-16.3-26-16.83-26.91-.09-.15-.09-.34,0-.49.09-.16.26-.25.44-.25h128.72c.17,0,.33.09.42.23.08.15.08.32,0,.47-.39.88-9.62,21.62-12.48,25.92s-8.7,5.44-9,5.48c-1.91,0-32.79.22-55.07.22Zm-51.74-31.32c2.26,4,12.9,22.59,16.25,25.94s7,3.65,11.63,4l1.46.12c5.18.47,76.75,0,77.47,0,0,0,5.49-1,8.2-5,2.52-3.78,10.41-21.32,12.09-25.06h-127.1Z"/><path class="cls-4" d="m331.34,346.06s10.35,18.39,13.42,21.46,6.51,3.06,10.73,3.45,62.08,0,62.08,0c0,0,4.59-.77,6.89-4.22s10-20.69,10-20.69h-103.12Z"/><path class="cls-5" d="m373.46,371.64c-9.21,0-16.59-.05-18-.18l-1.16-.09c-3.74-.32-7-.59-9.88-3.5-3.08-3.08-13.07-20.81-13.49-21.57-.09-.15-.09-.34,0-.49.09-.15.25-.25.43-.25h103.07c.17,0,.33.08.42.23.08.15.08.32,0,.47-.31.71-7.7,17.32-10,20.77s-7,4.4-7.23,4.43c-1.62,0-26.31.18-44.16.18Zm-41.26-25.08c2,3.47,10.28,18,12.91,20.61s5.57,2.89,9.26,3.2l1.16.1c4.14.38,61.45,0,62,0,0,0,4.34-.77,6.49-4,2-3,8.14-16.64,9.61-19.91h-101.43Z"/><path class="cls-5" d="m436.87,425.72l-2.87-7.9c-1.81-5-6.6-8.3-11.92-8.19l-77.71.78c-5.49.11-10.25,3.8-11.72,9.09l-1.94,6.22h106.16Z"/><path class="cls-5" d="m436.87,426.22h-106.16c-.16,0-.31-.07-.4-.2-.09-.13-.12-.29-.08-.44l1.94-6.23c1.56-5.48,6.5-9.3,12.19-9.44l77.72-.78c5.53-.11,10.52,3.32,12.39,8.52l2.87,7.9c.05.15.03.32-.06.46-.1.13-.25.21-.41.21Zm-105.48-1h104.77l-2.63-7.22c-1.72-4.81-6.33-7.98-11.44-7.86l-77.72.78c-5.25.13-9.81,3.67-11.24,8.72l-1.74,5.58Z"/><polygon class="cls-5" points="329.52 429.55 327.14 437.21 441.03 437.21 438.25 429.55 329.52 429.55"/><path class="cls-5" d="m441,437.71h-113.86c-.16,0-.31-.08-.4-.21-.1-.12-.13-.29-.08-.44l2.34-7.66c.07-.21.26-.35.48-.35h108.77c.21,0,.4.13.47.33l2.78,7.62c.05.16.03.33-.07.46-.09.16-.25.25-.43.25Zm-113.21-1h112.52l-2.41-6.66h-108l-2.11,6.66Z"/><path class="cls-5" d="m527.16,297.48s2.39-18.66,6.7-18.66,23.45,5.26,23.92,9.09-3.78,8.09-7.65,9.09-12,1.92-12,1.92l-1.92,7.17-9.05-8.61Z"/><path class="cls-5" d="m536.25,306.59c-.13,0-.25-.04-.34-.13l-9.09-8.62c-.12-.1-.18-.26-.16-.42.25-2,2.59-19.1,7.2-19.1,4.09,0,23.88,5.24,24.42,9.53.51,4.1-4,8.62-8,9.64-3.42.85-10.09,1.69-11.69,1.88l-1.83,6.85c-.04.17-.17.31-.34.36h-.17Zm-8.56-9.29l8.29,7.86,1.7-6.36c.05-.2.22-.35.43-.37.08,0,8.14-1,11.9-1.9s7.72-5,7.28-8.55c-.41-3.24-18.67-8.65-23.43-8.65-2.78,0-5.24,10.91-6.17,17.97Z"/><path class="cls-5" d="m239.09,297.48s-2.39-18.66-6.7-18.66-23.45,5.26-23.92,9.09,3.82,8.13,7.65,9.09,12,1.92,12,1.92l1.92,7.17,9.05-8.61Z"/><path class="cls-5" d="m230,306.59h-.14c-.17-.05-.3-.19-.34-.36l-1.83-6.85c-1.6-.19-8.27-1-11.69-1.88-4.06-1-8.54-5.54-8-9.64.54-4.29,20.33-9.53,24.42-9.53,4.61,0,7,17.14,7.2,19.1.02.16-.04.32-.16.42l-9.09,8.62c-.1.09-.24.13-.37.12Zm2.39-27.27c-4.76,0-23,5.41-23.43,8.65-.44,3.51,3.64,7.64,7.28,8.55s11.82,1.89,11.9,1.9c.21.02.38.17.43.37l1.7,6.36,8.29-7.86c-.93-7.06-3.39-17.97-6.17-17.97Z"/><path class="cls-1" d="m294.6,340.55s8.61,9.09,11.48,25.84c0,0-40.67-1.92-56.46-8.14s-17.71-6.7-18.19-9.57,1-23.45,7.18-26.8,12.92-2.39,19.14,2.4c6.22,4.79,13.88,12,18.19,13.4s18.66,2.87,18.66,2.87Z"/><path class="cls-5" d="m306.08,366.89h0c-.41,0-40.94-2-56.62-8.17l-4-1.58c-12.4-4.86-14-5.49-14.48-8.38-.44-2.66.89-23.79,7.44-27.32,6.26-3.37,13.25-2.5,19.68,2.44,1.8,1.39,3.75,3,5.64,4.56,4.63,3.82,9.42,7.77,12.39,8.76,4.21,1.4,18.42,2.84,18.56,2.85.12.01.23.07.31.15.09.09,8.75,9.4,11.62,26.1.02.15-.02.3-.12.42-.1.12-.26.18-.42.17Zm-59.86-46.5c-2.58.02-5.12.68-7.37,1.94-5.81,3.13-7.46,23.06-6.92,26.27.39,2.33,1.92,2.93,13.85,7.61l4,1.58c14.47,5.7,50.49,7.79,55.68,8.07-2.72-15-10.08-23.67-11.12-24.83-1.79-.19-14.49-1.52-18.58-2.88-3.15-1-8-5.06-12.72-8.94-1.88-1.55-3.82-3.16-5.61-4.54-3.69-2.85-7.43-4.28-11.21-4.28h0Z"/><path class="cls-1" d="m266.73,341.94c0,6.2-5.02,11.22-11.22,11.22s-11.22-5.02-11.22-11.22,5.02-11.22,11.22-11.22c6.19,0,11.21,5.01,11.22,11.2v.02Z"/><path class="cls-5" d="m255.51,353.65c-6.47,0-11.72-5.25-11.72-11.72,0-6.47,5.25-11.72,11.72-11.72s11.72,5.25,11.72,11.72h0c0,6.48-5.25,11.72-11.72,11.72Zm0-22.43c-5.92,0-10.72,4.8-10.72,10.72,0,5.92,4.8,10.72,10.72,10.72s10.72-4.8,10.72-10.72h0c0-5.92-4.8-10.72-10.72-10.72Z"/><path class="cls-1" d="m286.75,356c0,2.88-2.33,5.21-5.21,5.21s-5.21-2.33-5.21-5.21,2.33-5.21,5.21-5.21h0c2.87,0,5.2,2.33,5.2,5.2h0Z"/><path class="cls-5" d="m281.55,361.66c-3.15,0-5.71-2.55-5.72-5.7s2.55-5.71,5.7-5.72,5.71,2.55,5.72,5.7v.02c0,3.15-2.55,5.69-5.7,5.7Zm0-10.41c-2.6,0-4.71,2.1-4.72,4.7s2.1,4.71,4.7,4.72,4.71-2.1,4.72-4.7h0c0-2.61-2.1-4.71-4.7-4.72Z"/><path class="cls-1" d="m473,340.55s-8.61,9.09-11.48,25.84c0,0,40.67-1.92,56.46-8.14s17.71-6.7,18.19-9.57-1-23.45-7.18-26.8-12.92-2.39-19.14,2.4-13.88,12-18.19,13.4-18.66,2.87-18.66,2.87Z"/><path class="cls-5" d="m461.52,366.89c-.14,0-.28-.06-.38-.17-.1-.12-.14-.27-.12-.42,2.87-16.7,11.53-26,11.62-26.1.08-.08.19-.14.31-.15.14,0,14.35-1.45,18.56-2.85,3-1,7.76-4.94,12.39-8.76,1.89-1.56,3.84-3.17,5.64-4.56,6.43-4.94,13.42-5.81,19.69-2.44,6.54,3.53,7.87,24.66,7.43,27.32-.48,2.89-2.07,3.52-14.48,8.38l-4,1.58c-15.69,6.18-56.22,8.15-56.63,8.17h-.03Zm11.72-25.89c-1,1.16-8.4,9.89-11.12,24.83,5.19-.28,41.21-2.37,55.68-8.07l4-1.58c11.93-4.68,13.47-5.28,13.85-7.61.54-3.21-1.1-23.14-6.92-26.27-6-3.23-12.41-2.41-18.6,2.34-1.79,1.38-3.73,3-5.61,4.54-4.7,3.88-9.57,7.89-12.72,8.94-4.07,1.39-16.8,2.72-18.56,2.88Z"/><path class="cls-1" d="m503.45,341.94c0,6.2,5.02,11.22,11.22,11.22s11.22-5.02,11.22-11.22-5.02-11.22-11.22-11.22h0c-6.19,0-11.21,5.01-11.22,11.2v.02Z"/><path class="cls-5" d="m514.67,353.65c-6.47,0-11.72-5.24-11.73-11.71,0-6.47,5.24-11.72,11.71-11.73,6.47,0,11.72,5.24,11.73,11.71v.02c-.01,6.46-5.25,11.7-11.71,11.71Zm0-22.43c-5.92,0-10.72,4.79-10.73,10.71,0,5.92,4.79,10.72,10.71,10.73,5.92,0,10.72-4.79,10.73-10.71h0c0-5.92-4.8-10.72-10.71-10.73Z"/><path class="cls-1" d="m483.42,356c0,2.88,2.33,5.21,5.21,5.21,2.88,0,5.21-2.33,5.21-5.21,0-2.88-2.33-5.21-5.21-5.21h0c-2.88,0-5.21,2.33-5.21,5.21Z"/><path class="cls-5" d="m488.63,361.66c-3.15,0-5.71-2.56-5.71-5.71s2.56-5.71,5.71-5.71,5.71,2.56,5.71,5.71h0c-.01,3.16-2.56,5.7-5.71,5.71Zm0-10.41c-2.6,0-4.71,2.11-4.71,4.71,0,2.6,2.11,4.71,4.71,4.71,2.6,0,4.71-2.11,4.71-4.71h0c0-2.6-2.11-4.7-4.71-4.71Z"/><path class="cls-5" d="m524.29,383.14s-44.5,8.61-46.42,10-5.74,9.57-5.74,9.57l9.09-2.39s21.06,1,28.23-2.39c7.17-3.39,14.84-14.79,14.84-14.79Z"/><path class="cls-5" d="m472.13,403.25c-.27,0-.5-.21-.5-.48,0-.08.02-.16.05-.23.16-.33,3.9-8.26,5.89-9.76s42.06-9.25,46.62-10.14c.2-.03.4.05.51.22.12.16.12.39,0,.55-.31.48-7.81,11.64-15,15s-26.79,2.51-28.39,2.45l-9,2.37-.18.02Zm51-19.39c-17.78,3.45-43.6,8.73-45,9.72s-3.82,5.75-5.12,8.42l8-2.12h.15c.21,0,21,.92,28-2.34,5.84-2.7,11.97-10.83,14.01-13.68h-.04Z"/><path class="cls-5" d="m245.31,383.14s44.5,8.61,46.42,10,5.74,9.57,5.74,9.57l-9.09-2.39s-21.06,1-28.23-2.39-14.84-14.79-14.84-14.79Z"/><path class="cls-5" d="m297.47,403.25h-.13l-9-2.37c-1.6.06-21.33.85-28.39-2.45-7.22-3.37-14.72-14.53-15-15-.12-.16-.12-.39,0-.55.11-.17.31-.25.51-.22,4.56.89,44.67,8.68,46.62,10.15s5.73,9.42,5.89,9.75c.12.24.02.54-.22.66-.07.04-.15.05-.23.05l-.05-.02Zm-9.09-3.39h.13l8,2.12c-1.3-2.67-3.82-7.44-5.12-8.42s-27.22-6.27-45-9.72c2,2.85,8.19,11,13.93,13.66,7,3.26,27.79,2.35,28,2.34l.06.02Z"/><path class="cls-5" d="m468.51,348.41h-.15l-11.81-3.94h-9.3c-.28,0-.5-.22-.5-.5s.22-.5.5-.5h9.38c.05,0,.11,0,.16,0l11.88,4c.28.04.46.3.42.58-.04.28-.3.46-.58.42v-.06Z"/><path class="cls-5" d="m299.87,347.85c-.18,0-.34-.1-.43-.26-.13-.24-.05-.54.19-.68l7.92-4.53c.08-.04.16-.06.25-.06l10.73.12c.28,0,.5.22.5.5,0,0,0,0,0,.01-.03.27-.24.47-.51.49l-10.59-.12-7.81,4.46c-.08.04-.16.07-.25.07Z"/><path class="cls-5" d="m502.2,294.89c-.18,0-.35-.09-.44-.25-.1-.24,0-.52.24-.64,1.23-.71,2.48-1.37,3.7-2,.26-.1.55.03.65.28.09.23,0,.49-.22.62-1.2.58-2.42,1.23-3.63,1.93-.09.05-.2.07-.3.06Z"/><path class="cls-5" d="m449.52,362.82c-.07.01-.14.01-.21,0-.25-.11-.36-.4-.25-.65,0,0,0,0,0-.01,8-17.61,25-49.53,48.7-65.55.22-.16.53-.1.68.12,0,0,0,0,0,.01.16.23.1.54-.12.7,0,0,0,0,0,0-23.52,15.84-40.39,47.56-48.33,65.09-.09.19-.28.3-.48.29Z"/><path class="cls-5" d="m445.31,372.75c-.06.01-.11.01-.17,0-.26-.09-.39-.38-.3-.64,0,0,.61-1.61,1.74-4.29.1-.26.4-.38.65-.27,0,0,0,0,0,0,.25.11.36.4.26.65-1.12,2.67-1.71,4.25-1.72,4.26-.09.18-.27.29-.47.29Z"/><path class="cls-5" d="m268.13,297.47c-.09,0-.18-.02-.26-.07-2-1.21-4.06-2.34-6.13-3.37-.26-.09-.4-.38-.31-.64.09-.26.38-.4.64-.31.04.01.07.03.11.05,2.1,1,4.19,2.18,6.21,3.41.23.15.3.46.15.69-.09.14-.24.23-.41.23h0Z"/><path class="cls-5" d="m316.06,363.19c-.22,0-.41-.13-.48-.34-5.3-15.85-18-45.07-43.52-62.73-.23-.15-.31-.45-.16-.69.15-.23.45-.31.69-.16.01,0,.03.02.04.03,25.75,17.82,38.56,47.27,43.9,63.23.09.26-.05.54-.31.63l-.16.03Z"/><path class="cls-5" d="m318.55,371.61c-.23,0-.44-.15-.49-.38,0,0-.36-1.54-1.13-4.13-.08-.26.06-.54.33-.63,0,0,0,0,.01,0,.26-.07.54.08.62.34.78,2.62,1.14,4.18,1.15,4.19.06.27-.11.54-.38.6,0,0,0,0,0,0h-.11Z"/><path class="cls-1" d="m248.38,320.18s-5.1-12.45-5.1-19.8"/><path class="cls-5" d="m248.38,320.68c-.21,0-.39-.12-.47-.31-.21-.51-5.13-12.62-5.13-20,0-.28.22-.5.5-.5s.5.22.5.5c0,7.17,5,19.49,5.06,19.61.1.26-.02.55-.27.66l-.19.04Z"/><path class="cls-1" d="m520.58,319.62c1.37-5.2,2.31-10.5,2.83-15.85"/><path class="cls-5" d="m520.58,320.12s-.1,0-.15,0c-.26-.08-.41-.35-.33-.61,0,0,0,0,0-.01,1.36-5.17,2.3-10.43,2.81-15.75.03-.28.28-.48.55-.45s.48.28.45.55c-.52,5.38-1.47,10.71-2.85,15.93-.07.2-.26.34-.48.33Z"/><path class="cls-5" d="m471.91,420.28c-.15,0-.29-.07-.39-.18-.44-.54-10.85-13.2-11.43-18.94-.61-6.12,7.62-14.66,10-15.25s40.28-8.17,41.9-8.5c.27-.05.53.13.59.4.05.27-.12.52-.38.58,0,0,0,0,0,0-.4.08-39.63,7.93-41.86,8.49-2.08.52-9.78,8.77-9.24,14.18.51,5.07,9.72,16.58,11.05,18.21l62.12-2.8,3.36-43.7c.03-.27.27-.48.54-.46.28.02.48.26.46.54,0,0,0,0,0,0l-3.4,44.15c-.02.25-.22.45-.47.46l-62.82,2.83h-.02Z"/><path class="cls-5" d="m297,420.28h0l-62.81-2.83c-.25,0-.46-.21-.48-.46l-3.39-44.14c-.02-.28.18-.52.46-.54,0,0,0,0,0,0,.27-.02.51.18.53.45,0,0,0,0,0,.01l3.36,43.7,62.13,2.8c1.32-1.63,10.54-13.14,11-18.21.54-5.41-7.17-13.66-9.25-14.18s-41.46-8.41-41.85-8.49c-.26-.04-.44-.29-.4-.55,0,0,0-.02,0-.03.05-.27.31-.45.58-.4,1.62.33,39.66,7.94,41.9,8.5s10.61,9.13,10,15.25c-.57,5.74-11,18.4-11.43,18.94-.09.11-.22.17-.36.18Z"/><path class="cls-5" d="m385,357.92c-1.02,0-2.02-.04-3-.12l-46.18-3.7c-.28-.02-.48-.26-.46-.54.02-.28.26-.48.54-.46l46.1,3.7c1.93.15,3.88.15,5.81,0l42.56-3.31c.26-.03.5.15.54.42,0,.01,0,.03,0,.04.02.28-.18.52-.46.54,0,0,0,0,0,0l-42.56,3.3c-.95.09-1.92.13-2.89.13Z"/><path class="cls-5" d="m385,362.51c-1.02,0-2.02-.04-3-.12l-43.14-3.45c-.27-.03-.47-.27-.46-.54.02-.28.26-.48.54-.46,0,0,0,0,0,0l43.06,3.45c1.93.15,3.88.15,5.81,0l41.07-3.19c.26-.04.5.14.53.39,0,.02,0,.04,0,.07.02.27-.19.51-.46.53l-41.07,3.19c-.95.09-1.92.13-2.89.13Z"/><path class="cls-5" d="m385,367.1c-1.02,0-2.02-.04-3-.12l-40-3.21c-.28-.02-.48-.26-.46-.54.02-.28.26-.48.54-.46l39.92,3.23c1.93.15,3.88.15,5.81,0l39-3c.26-.04.5.14.53.39,0,.02,0,.04,0,.07.02.27-.19.51-.46.54l-39,3c-.95.07-1.92.1-2.89.1Z"/><path class="cls-5" d="m512.8,287h0c-73.29-7.09-258.86-.07-260.73,0-.18,0-.34-.08-.44-.23-.09-.15-.09-.34,0-.49,11.75-23.2,34.15-75.78,34.37-76.28.07-.17.23-.28.41-.3,108.39-10.89,193.07-.58,193.92-.48.17.03.32.14.39.3l32.54,76.79c.09.15.09.34,0,.49-.11.14-.28.22-.46.2Zm-226-76.33c-1.75,4.09-22.49,52.63-34,75.3,13.75-.51,187.84-6.77,259.18,0l-32.1-75.75c-5.46-.72-88.1-10.09-193.07.42v.03Z"/><path class="cls-2" d="m428.78,198.05l-28.37-1.92c-11.17-.56-22.37-.56-33.54,0l-17.3.86-13.58,1.06"/></g><g><path class="cls-1" d="m353.56,189.45l-.34-.9h-2.91l-.34.92c-.13.36-.25.6-.34.73s-.25.19-.46.19c-.18,0-.34-.07-.48-.2s-.21-.28-.21-.45c0-.1.02-.2.05-.3s.09-.25.16-.43l1.83-4.65c.05-.13.11-.29.19-.48.07-.19.15-.34.23-.47.08-.12.19-.22.33-.3.14-.08.3-.11.5-.11s.37.04.5.11c.14.08.24.17.33.3.08.12.15.25.21.39.06.14.13.32.22.55l1.87,4.62c.15.35.22.61.22.77s-.07.32-.21.46c-.14.14-.3.21-.5.21-.11,0-.21-.02-.29-.06s-.15-.1-.21-.17-.12-.18-.18-.32c-.06-.15-.12-.27-.16-.38Zm-2.87-1.99h2.14l-1.08-2.95-1.06,2.95Z"/><path class="cls-1" d="m355.8,187.3v-3.44c0-.29.07-.51.2-.66.13-.15.31-.22.52-.22s.4.07.53.22c.13.15.2.37.2.66v3.52c0,.4.04.73.13,1,.09.27.25.48.48.62s.55.22.96.22c.57,0,.97-.15,1.2-.45s.35-.76.35-1.37v-3.55c0-.3.07-.52.2-.66s.3-.22.52-.22.39.07.53.22c.13.15.2.37.2.66v3.44c0,.56-.05,1.03-.16,1.4-.11.37-.32.7-.62.99-.26.24-.56.42-.91.53s-.75.17-1.21.17c-.55,0-1.02-.06-1.42-.18s-.72-.3-.97-.55-.43-.57-.55-.96-.18-.85-.18-1.39Z"/><path class="cls-1" d="m368.04,184.3h-1.58v5.2c0,.3-.07.52-.2.67s-.31.22-.52.22-.39-.07-.52-.22c-.14-.15-.2-.37-.2-.66v-5.2h-1.58c-.25,0-.43-.05-.55-.16s-.18-.25-.18-.43.06-.33.19-.44c.13-.11.31-.16.54-.16h4.61c.25,0,.44.06.56.17.12.11.18.26.18.43s-.06.32-.19.43-.31.16-.56.16Z"/><path class="cls-1" d="m372.66,182.98c.74,0,1.38.15,1.91.45.53.3.94.73,1.21,1.28s.41,1.21.41,1.96c0,.55-.08,1.06-.22,1.51s-.37.84-.67,1.18-.67.59-1.1.76-.94.26-1.5.26-1.06-.09-1.5-.27-.81-.44-1.11-.76-.52-.72-.67-1.19c-.15-.46-.23-.96-.23-1.5s.08-1.05.24-1.51c.16-.46.39-.85.69-1.17s.66-.57,1.09-.74.92-.26,1.46-.26Zm2.06,3.68c0-.52-.08-.98-.25-1.36s-.41-.67-.73-.87c-.31-.2-.67-.3-1.08-.3-.29,0-.56.05-.8.16-.25.11-.46.27-.63.48-.18.21-.32.47-.42.8-.1.32-.15.69-.15,1.09s.05.77.15,1.1c.1.33.25.6.44.82.19.22.4.38.64.49.24.11.51.16.8.16.37,0,.71-.09,1.02-.28.31-.19.56-.47.74-.86.18-.39.28-.86.28-1.43Z"/><path class="cls-1" d="m379.09,188.25h-1.54c-.23,0-.41-.05-.54-.16-.12-.11-.18-.25-.18-.42s.06-.32.18-.43c.12-.11.3-.16.54-.16h1.54c.24,0,.42.05.54.16.12.11.18.25.18.43s-.06.31-.18.42-.3.16-.54.16Z"/><path class="cls-1" d="m385.48,184.22h-3.27v1.76h3.01c.22,0,.39.05.5.15.11.1.16.23.16.39s-.05.3-.16.4-.27.15-.5.15h-3.01v2.04h3.38c.23,0,.4.05.51.16.12.11.17.25.17.42s-.06.31-.17.41c-.12.11-.29.16-.51.16h-3.94c-.32,0-.54-.07-.68-.21-.14-.14-.21-.37-.21-.68v-5.38c0-.21.03-.38.09-.51s.16-.23.29-.29c.13-.06.3-.09.51-.09h3.83c.23,0,.4.05.52.15.11.1.17.24.17.4s-.06.31-.17.41c-.11.1-.28.15-.52.15Z"/><path class="cls-1" d="m393.53,188c0,.23-.06.47-.17.74-.11.27-.29.53-.53.78s-.55.46-.92.62-.81.24-1.31.24c-.38,0-.72-.04-1.03-.11s-.59-.18-.84-.33c-.25-.15-.48-.35-.7-.6-.19-.22-.35-.48-.48-.75s-.23-.58-.3-.89c-.07-.32-.1-.65-.1-1.01,0-.58.08-1.09.25-1.55.17-.46.41-.85.72-1.17s.68-.57,1.1-.74.87-.25,1.34-.25c.58,0,1.1.12,1.55.35s.8.52,1.04.86.36.66.36.96c0,.17-.06.31-.18.44s-.26.19-.42.19c-.19,0-.32-.04-.42-.13-.09-.09-.2-.24-.31-.45-.19-.35-.41-.62-.67-.8-.25-.18-.57-.26-.94-.26-.6,0-1.07.23-1.42.68-.35.45-.53,1.1-.53,1.93,0,.56.08,1.02.23,1.39s.38.65.66.83.62.27,1.01.27c.42,0,.77-.1,1.06-.31.29-.21.5-.51.65-.91.06-.19.14-.34.23-.46s.24-.18.44-.18c.17,0,.32.06.44.18s.19.27.19.45Z"/><path class="cls-1" d="m397.98,182.98c.74,0,1.38.15,1.91.45.53.3.94.73,1.21,1.28s.41,1.21.41,1.96c0,.55-.08,1.06-.22,1.51s-.37.84-.67,1.18-.67.59-1.1.76-.94.26-1.5.26-1.06-.09-1.5-.27-.81-.44-1.11-.76-.52-.72-.67-1.19c-.15-.46-.23-.96-.23-1.5s.08-1.05.24-1.51c.16-.46.39-.85.69-1.17s.66-.57,1.09-.74.92-.26,1.46-.26Zm2.06,3.68c0-.52-.08-.98-.25-1.36s-.41-.67-.73-.87c-.31-.2-.67-.3-1.08-.3-.29,0-.56.05-.8.16-.25.11-.46.27-.63.48-.18.21-.32.47-.42.8-.1.32-.15.69-.15,1.09s.05.77.15,1.1c.1.33.25.6.44.82.19.22.4.38.64.49.24.11.51.16.8.16.37,0,.71-.09,1.02-.28.31-.19.56-.47.74-.86.18-.39.28-.86.28-1.43Z"/><path class="cls-1" d="m404.17,183.86v5.21h2.94c.23,0,.41.06.54.17.12.11.19.26.19.43s-.06.32-.19.43-.3.16-.54.16h-3.5c-.32,0-.54-.07-.68-.21-.14-.14-.21-.37-.21-.68v-5.51c0-.29.07-.51.2-.66.13-.15.31-.22.52-.22s.39.07.53.22c.13.15.2.37.2.66Z"/><path class="cls-1" d="m413.51,184.22h-3.27v1.76h3.01c.22,0,.39.05.5.15.11.1.16.23.16.39s-.05.3-.16.4-.27.15-.5.15h-3.01v2.04h3.38c.23,0,.4.05.51.16.12.11.17.25.17.42s-.06.31-.17.41c-.12.11-.29.16-.51.16h-3.94c-.32,0-.54-.07-.68-.21-.14-.14-.21-.37-.21-.68v-5.38c0-.21.03-.38.09-.51s.16-.23.29-.29c.13-.06.3-.09.51-.09h3.83c.23,0,.4.05.52.15.11.1.17.24.17.4s-.06.31-.17.41c-.11.1-.28.15-.52.15Z"/></g></svg>