<svg version="1.1" xml:space="preserve" xmlns="http://www.w3.org/2000/svg" viewBox="0 0 962.7 516"><defs><clipPath clipPathUnits="userSpaceOnUse" id="a"><path d="M0 387h722V0H0Z"/></clipPath></defs><g clip-path="url(#a)" transform="matrix(1.33333 0 0 -1.33333 0 516)"><path d="M0 0h4c9.6 26 10 50.6-.8 70.5-32.6 60.2-155.2 56.9-273.7-7.4a509 509 0 0 1-65.3-42.7v.1S-191 132-65.8 109C-65.8 108.9 28 94.2 0 0" fill="#ab092f" fill-opacity="1" fill-rule="nonzero" stroke="none" transform="translate(504.1 267.6)"/><path d="M0 0a235.5 235.5 0 0 1-95.3-4.1c-27.7-6.4-57-17-87.1-31.5a558.7 558.7 0 0 1-88.2-52.9.8.8 0 0 1-.3-.6v-.2c0-.3.2-.5.4-.7.3-.1.6 0 .9.1 20.3 15.7 44 31.2 65.1 42.7 118 64 240.3 67.4 272.7 7.7 10.4-19 10.6-43.2.7-69.9 0 .3.4.5.7.5h-4c.3 0 .6 0 .7-.3.2-.2.2-.4.1-.7C75-81.3 73.1-57.2 61.1-38 41.3-6.8.4 0 0 0m65.7-110.4h3.9c.3 0 .6.2.7.5 10.1 27 9.9 51.7-.7 71.2C53.6-9.4 16.3 6-35.8 4.6c-51.8-1.4-112-19.3-169.4-50.5-21.2-11.5-45-27-65.4-42.8.2.2.6.3.8.1.3-.1.5-.4.5-.7v.2c0-.3-.1-.5-.3-.6 1.4 1 146 110.8 269.3 88.2.4-.1 40.7-6.8 60-37.4 11.9-18.7 13.6-42.5 5.2-70.5 0-.3 0-.5.2-.7.1-.2.3-.3.6-.3" fill="#ab092f" fill-opacity="1" fill-rule="nonzero" stroke="none" transform="translate(438.4 377.3)"/><path d="M0 0c-88.7-27.6-167-18.9-192 27.4-4 7.3-6.5 15.2-7.5 23.6h3.3S-174-52-3 .2z" fill="#ab092f" fill-opacity="1" fill-rule="nonzero" stroke="none" transform="translate(270.1 76.4)"/><path d="M0 0c-36-11-68-15.9-95.4-14.5A125 125 0 0 0-153 1c-32.4 19-39.2 48.8-39.3 49 0 .4-.4.7-.8.7h-3.2a.8.8 0 0 1-.6-.3.8.8 0 0 1-.2-.6c1-8.5 3.6-16.6 7.5-23.9 12.3-22.6 37.5-37 72.8-41.8 34.4-4.6 76 .3 120.2 14 .4.2.6.5.5 1 0 .3-.3.6-.7.6L.2 0H0m3-.2c-90.4-28.2-167.1-17.3-191.2 27-3.8 7.1-6.3 15-7.4 23.3a.8.8 0 0 0-.7-.9h3.2c-.3 0-.7.3-.7.6 0-.3 7-30.7 40-50 16-9.4 35.6-14.8 58.3-15.9C-68-17.5-35.7-12.5.5-1.5H.2L3-1.8c-.4 0-.7.4-.7.7 0 .4.2.8.5.9" fill="#ab092f" fill-opacity="1" fill-rule="nonzero" stroke="none" transform="translate(267 77.4)"/><path d="m0 0 11.3 48.9c1.5 5.8 1.3 10.7-.8 14.6-1.6 3-5 6.5-12 6.5-4.4 0-8.8-1.6-12.9-5a22 22 0 0 1-7.8-11.6c-1.3-5-.8-9.4 1.7-12.9C-18.8 38-15.4 35-9.1 35V43c-3 0-4.1 1.2-4.8 2-1 1.5-1.1 3.6-.4 6.2.7 2.9 2.4 5.3 5 7.4 2.7 2.1 5.2 3.1 7.9 3.1 3.1 0 4.1-1 4.7-2.2 1-2 1.1-5 .1-8.8l-11.3-49 4-.9z" fill="#ab092f" fill-opacity="1" fill-rule="nonzero" stroke="none" transform="translate(232.9 147.3)"/><path d="M0 0c-12.6 0-21.6 4-27.7 12.2-6 8.3-7.4 18.5-4 31.2a60.5 60.5 0 0 0 21.5 32.2A55.6 55.6 0 0 0 25 88.8c13.6 0 23-3.8 28.4-11.6 5.5-7.7 6.4-18.7 2.8-32.6L44-7 48-8l4-.9 12 51.4C68.1 59 66.8 72.1 60 82 53 91.8 41 96.9 25 96.9c-14.3 0-27.8-5-40.3-15a68.3 68.3 0 0 1-24.3-36.4c-4-15-2.2-27.9 5.4-38.1C-26.6-3-15.2-8.1 0-8.1v4Z" fill="#ab092f" fill-opacity="1" fill-rule="nonzero" stroke="none" transform="translate(215.4 156)"/><path d="m0 0-26.8-1a4 4 0 0 1-3.8-3C-33-12.6-33-18.5-31-22.3c3.4-6 16-6.4 18.6-6.4a4 4 0 0 0-4 5l-9.6-36.8a4 4 0 0 0 3.7 3l-7.4-.2c-7 0-13.1 1.7-18.4 5a27 27 0 0 0-11 13.2 49.7 49.7 0 0 0 .7 29.6l20 76.2a4 4 0 0 0-4-3h34.6a4 4 0 0 0-4 5.1L-21 32.7a4.1 4.1 0 0 1 4-5.1h38.3v8.1H-17a4 4 0 0 0 3.9-5l9.3 35.6a4 4 0 0 1-.7 3.5 4 4 0 0 1-3.2 1.6h-34.5a4 4 0 0 1-4-3L-66.2-8a57.3 57.3 0 0 1-.4-34.6c2.9-7.2 7.7-13 14.3-17.1a41.9 41.9 0 0 1 22.7-6.2c.8 0 5.8 0 7.9.2a4 4 0 0 1 3.6 3l9.7 37a4 4 0 0 1-3.9 5c-6.2 0-10.8 1.5-11.6 2.3l.1-.1c-.3.6-1.3 3.5 1 12.4a4 4 0 0 0-3.7-3l26.8.9-.2 4Z" fill="#ab092f" fill-opacity="1" fill-rule="nonzero" stroke="none" transform="translate(441.8 214)"/><path d="M0 0c.4 4.7-.7 8.4-3 11-2.3 2.4-5.6 3.7-9.8 3.7-5.5 0-10.5-2.3-15-6.8a34.6 34.6 0 0 1-8.7-16 26.2 26.2 0 0 1 .3-17.2 13 13 0 0 1 12.5-8H7.5v8h-31.2c-2.6 0-4 1-5 3.3-1.3 2.8-1.3 6.8 0 11.9 1.4 5 3.6 9.2 6.8 12.3 2.8 3 5.8 4.3 9 4.3 1.4 0 3-.1 3.9-1 .7-.8 1-2.6.9-4.9l4-.3z" fill="#ab092f" fill-opacity="1" fill-rule="nonzero" stroke="none" transform="translate(519.8 208.7)"/><path d="M0 0h-20c-12.4 0-21.3 4-27.4 12.3-6.1 8.3-7.5 18.4-4.2 31A59.5 59.5 0 0 0-30 75.6c11 8.7 23 13.2 35.6 13.2 12 0 20.8-4 26.7-12.2 6-8.2 7.2-18.2 4-30.5a4 4 0 0 0 4 3H1.6V41h38.6a4 4 0 0 1 4 3c3.8 14.6 2 27.2-5.3 37.4-7.5 10.3-18.6 15.5-33.2 15.5-14.6 0-28.2-5-40.7-15a68.5 68.5 0 0 1-24.6-36.6c-3.9-14.9-2-27.6 5.6-37.9C-46.3-2.9-35-8-20-8H0v4z" fill="#ab092f" fill-opacity="1" fill-rule="nonzero" stroke="none" transform="translate(507.3 153.9)"/><path d="m0 0 11.6 45.8c3 11.5 7.6 11.5 9.1 11.5.7 0 3.3-1.2 4.2-3.3a4 4 0 0 1 3.4-2.4l4.4-.4a4 4 0 0 1 4.3 3l10.5 40.5a4 4 0 0 1-2.9 5l-3.3.9a110 110 0 0 1-15 1.2 52 52 0 0 1-34.8-13c-9.9-8.4-16.8-20-20.6-34.2L-42.5 2.1c-.3-1.3 0-2.5.8-3.5s2-1.6 3.2-1.6H-4a4 4 0 0 1 4 3m-34.6 0 13.4 52.6a57.8 57.8 0 0 0 18 30c8.7 7.5 18.3 11.1 29.5 11.1 2.7 0 9.5-.4 13.2-1l3-.9a4.1 4.1 0 0 0-2.9 5L29.1 56.3a4 4 0 0 0 4.3 3l-4.4.4a4 4 0 0 0 3.4-2.5 14.1 14.1 0 0 1-11.7 8.2c-5.6 0-13.2-3-17-17.5L-7.9 2c.5 1.8 2 3 4 3l-34.6.1a4 4 0 0 0 3.2-1.5c.8-1 1-2.3.7-3.6" fill="#ab092f" fill-opacity="1" fill-rule="nonzero" stroke="none" transform="translate(586.2 145)"/><path d="M0 0a31 31 0 0 0 25.9-13c4-7.2 4.3-16.1.8-29.7L3.5-131.2H-34l21.7 82.9c.7 5.9-5.6 7.6-5.6 7.6-8.4.4-10-7-10-7l-22-83.5-37.3.1 21.7 82.8c1.7 7.2-5.1 8-5.1 8-8.2.6-10-8-10-8l-21.7-82.8h-37.4l24 91.9c3 11.4 8.9 20.7 17.6 28A44.5 44.5 0 0 0-68.7-.5c12.9 0 26-6.1 29.8-18.2 0 0 11.7 20 38.9 18.6" fill="#ab092f" fill-opacity="1" fill-rule="nonzero" stroke="none" transform="translate(147.8 281.4)"/><path d="M0 0c-4.5 14.5-20.1 21-33.6 21-11.8 0-22.5-4-32-11.7a57.1 57.1 0 0 1-18.8-30.1l-24.1-91.8a4.1 4.1 0 0 1 4-5.1h37.3a4 4 0 0 1 4 3L-41.6-32c.2 1 1.4 5.3 5.7 5 .2 0 1-.4 1.5-1 .3-.5.2-1.5 0-2L-56-112.8c-.3-1.2 0-2.5.7-3.5a4 4 0 0 1 3.2-1.6h37.4a4 4 0 0 1 4 3l21.9 83.5c.2 1 1.4 4.1 5.9 4h-1c.7-.1 3-1 2.7-3.2l.1.6-21.7-82.9a4 4 0 0 1 4-5l37.3-.1a4 4 0 0 1 4 3l23.2 88.6c3.8 14.7 3.5 24.5-1.3 32.8a35 35 0 0 1-29.8 15h.6A46.7 46.7 0 0 1-7.4.8 4 4 0 0 0 0 0m35.5 13.3c7 .9 18.4-4.9 21.9-10.9 3.5-6.2 3.7-14.2.4-26.7l-23.2-88.5c.4 1.8 2 3 4 3H1a4 4 0 0 0 3.2-1.5c.8-1 1-2.3.8-3.5L26.8-32l.1.6c.9 7.4-5.2 11-8.6 12l-.9.2C8.1-19 4.1-25.7 3.3-29.4l-21.9-83.3a4 4 0 0 0 4 3H-52c1.2 0 2.4-.5 3.2-1.5.7-1 1-2.3.7-3.5L-26.4-32c1 4.3-.1 7.1-1.3 8.8-2.5 3.6-6.8 4.2-7.3 4.3-9.5.6-13.6-7-14.4-11.3l-21.7-82.6a4 4 0 0 0 3.9 3l-37.4.1a4 4 0 0 0 4-5l24 91.7A49.1 49.1 0 0 0-60.4 3c8 6.7 16.8 9.9 26.8 9.9 10.5 0 22.5-4.8 25.8-15.3a4 4 0 0 1 3.4-2.8 4 4 0 0 1 4 2 38.7 38.7 0 0 0 36 16.5" fill="#ab092f" fill-opacity="1" fill-rule="nonzero" stroke="none" transform="translate(112.8 264)"/><path d="m0 0-5.4 16.3L-10.7 0Zm-19.8-13.6L-8.1 21h5.7L9.3-13.6H4.4L1.3-4H-12l-3.1-9.7z" fill="#ab092f" fill-opacity="1" fill-rule="nonzero" stroke="none" transform="translate(321.9 73.6)"/><path d="M0 0c-1.7 0-3.4.2-4.9.7-1.5.5-2.7 1-3.7 1.5V7h.2l1.3-1c.5-.4 1.2-.7 2-1.1l2.5-1a9.4 9.4 0 0 1 5-.1l1.8.6c.5.4.9.8 1.1 1.2.3.4.4 1 .4 1.8 0 1-.3 1.8-.8 2.4a7 7 0 0 1-3 1.3l-2.2.5-2.5.6a8 8 0 0 0-4.4 2.6 7.1 7.1 0 0 0-1.3 4.4c0 2.3.9 4.3 2.6 5.7 1.8 1.5 4.2 2.2 7 2.2a18.5 18.5 0 0 0 8.1-1.8v-4.7H9A13.1 13.1 0 0 1 1 23.6c-1.4 0-2.6-.3-3.6-1A3 3 0 0 1-4 20c0-1 .3-1.9.8-2.4.6-.6 1.6-1 2.9-1.4l2.2-.5 2.5-.5c2-.5 3.4-1.3 4.3-2.4 1-1.1 1.5-2.7 1.5-4.6a7.6 7.6 0 0 0-2.6-5.7c-1-.8-2-1.4-3.2-1.8C3.3.2 1.8 0 0 0" fill="#ab092f" fill-opacity="1" fill-rule="nonzero" stroke="none" transform="translate(341.1 59.3)"/><path d="M0 0c-1.8 0-3.4.2-4.9.7-1.5.5-2.8 1-3.7 1.5V7h.2l1.3-1c.5-.4 1.2-.7 2-1.1a21 21 0 0 1 2.5-1 11.1 11.1 0 0 1 5-.2l1.7.7c.6.4 1 .8 1.2 1.2.3.4.4 1 .4 1.8 0 1-.3 1.8-.9 2.4a7 7 0 0 1-3 1.3l-2.1.5-2.6.6a8 8 0 0 0-4.3 2.6 7.1 7.1 0 0 0-1.3 4.4c0 2.3.9 4.3 2.6 5.7 1.8 1.5 4.1 2.2 7 2.2a18.6 18.6 0 0 0 8.1-1.8v-4.7H9a13.2 13.2 0 0 1-8 2.9c-1.3 0-2.5-.3-3.5-1A3 3 0 0 1-4 20c0-1 .3-1.9.8-2.4.6-.6 1.6-1 2.9-1.4l2.2-.5 2.5-.5a8 8 0 0 0 4.3-2.4c1-1.1 1.5-2.7 1.5-4.6 0-1-.2-2.2-.7-3.2a7 7 0 0 0-2-2.5c-.9-.8-2-1.4-3-1.8C3.1.2 1.7 0 0 0" fill="#ab092f" fill-opacity="1" fill-rule="nonzero" stroke="none" transform="translate(362.4 59.3)"/><path d="M0 0h-4.4v3C-5.7 1.6-7 .7-8.2.1a9 9 0 0 0-7.2-.4 7 7 0 0 0-2.7 1.8c-.7.8-1.3 1.9-1.7 3-.4 1.3-.6 2.8-.6 4.6V26h4.4V11.2l.1-3.4a7 7 0 0 1 .7-2.4c.4-.7.8-1.2 1.5-1.5.6-.3 1.5-.5 2.6-.5 1 0 2.2.4 3.4 1 1.2.6 2.3 1.3 3.3 2.2v19.5H0Z" fill="#ab092f" fill-opacity="1" fill-rule="nonzero" stroke="none" transform="translate(397 60)"/><path d="M0 0h-.2l-1 .2h-1.4C-3.7.2-4.9-.1-6-.6-7.2-1-8.3-1.8-9.4-2.9v-18.4h-4.3v26h4.3V1a19 19 0 0 0 4.2 3 8 8 0 0 0 3.4.8h1l.8-.1z" fill="#ab092f" fill-opacity="1" fill-rule="nonzero" stroke="none" transform="translate(417 81.2)"/><path d="M0 0v7.2l-4-.4c-1.5-.2-2.8-.4-3.8-.7a7 7 0 0 1-2.9-1.6 4 4 0 0 1-1.1-3c0-1.5.4-2.7 1.2-3.4.9-.8 2.1-1.1 3.7-1.1 1.4 0 2.6.3 3.8.8L0 0m0-3.6A66 66 0 0 1-3.2-6a10.8 10.8 0 0 0-5.3-1.3 7.8 7.8 0 0 0-7.2 5c-.4 1-.6 2.2-.6 3.3 0 1.8.4 3.4 1.1 4.6.8 1.3 2 2.3 3.6 3 1.5.7 3.2 1.2 5.2 1.4 2 .3 4.1.5 6.4.6v.9c0 1-.2 1.8-.5 2.4-.3.7-.7 1.2-1.3 1.5-.5.4-1.2.6-2 .7l-2.5.2a25 25 0 0 1-7.7-1.8h-.2v4.5a36 36 0 0 0 8 1.1c1.7 0 3.2 0 4.4-.4 1.3-.3 2.4-.8 3.4-1.5.9-.7 1.6-1.6 2-2.8.5-1 .8-2.5.8-4.1V-6.4H0Z" fill="#ab092f" fill-opacity="1" fill-rule="nonzero" stroke="none" transform="translate(434.2 66.3)"/><path d="M0 0h-4.4v14.9c0 1.2 0 2.3-.2 3.3 0 1-.3 1.9-.6 2.5-.4.7-.9 1.2-1.5 1.5-.6.3-1.5.5-2.6.5-1 0-2.2-.3-3.3-1-1.2-.5-2.3-1.3-3.4-2.2V0h-4.4v26h4.4v-2.8c1.3 1.1 2.6 2 3.8 2.6a9 9 0 0 0 4 1c2.6 0 4.6-.9 6-2.6C-.7 22.6 0 20.2 0 17Z" fill="#ab092f" fill-opacity="1" fill-rule="nonzero" stroke="none" transform="translate(465.2 60)"/><path d="M0 0a14 14 0 0 0-5 .8 10 10 0 0 0-3.8 2.5c-1 1.2-1.9 2.6-2.5 4.3-.6 1.7-.9 3.7-.9 6s.3 4.2 1 5.9c.6 1.7 1.4 3 2.4 4.2 1 1.1 2.3 2 3.9 2.6 1.5.6 3.2 1 4.9 1a19.4 19.4 0 0 0 7.7-2v-5h-.3a15.3 15.3 0 0 1-5.1 2.8l-2.4.3c-2.3 0-4.1-.8-5.5-2.6-1.4-1.7-2-4.1-2-7.2 0-3.1.6-5.5 2-7.2A6.8 6.8 0 0 1-.2 3.8c1.4 0 2.8.3 4.1 1C5.3 5.2 6.4 6 7.4 7h.3V2l-1.6-.7L4.3.7l-2-.5L0 0" fill="#ab092f" fill-opacity="1" fill-rule="nonzero" stroke="none" transform="translate(481.7 59.3)"/><path d="M0 0a12 12 0 0 1-.4 3.1c-.3.9-.6 1.6-1 2.2-.6.7-1.3 1.2-2 1.5-.9.4-1.9.5-3 .5-1.2 0-2.2-.2-3-.5A6.8 6.8 0 0 1-13.1 3a10 10 0 0 1-.7-3Zm-5.1-16.5c-4.1 0-7.4 1.2-9.6 3.5-2.3 2.4-3.5 5.7-3.5 10 0 4.2 1.1 7.6 3.4 10.1A11 11 0 0 0-6.2 11c1.7 0 3-.2 4.3-.7A8.3 8.3 0 0 0 1.4 8c1-1 1.6-2.2 2.1-3.7.5-1.4.8-3.2.8-5.3v-2.4h-18.1c0-3 .8-5.3 2.3-6.9a8.4 8.4 0 0 1 6.3-2.4c1 0 2 .2 2.9.4a14 14 0 0 1 5.8 2.8h.3v-4.8l-2-.8a28.8 28.8 0 0 0-4.3-1.2l-2.6-.2" fill="#ab092f" fill-opacity="1" fill-rule="nonzero" stroke="none" transform="translate(509.7 75.8)"/><path d="M0 0h-4.6v30l-9-20.4h-2.8l-9 20.3V0h-4.3v34.7h6.3l8.6-19.3 8.4 19.3H0Z" fill="#ab092f" fill-opacity="1" fill-rule="nonzero" stroke="none" transform="translate(563.5 60)"/><path d="M0 0h-4.4v3C-5.7 1.6-7 .7-8.2.1c-1.2-.6-2.6-1-4-1a9 9 0 0 0-3.2.7c-1 .3-2 1-2.7 1.7-.7.8-1.3 1.9-1.7 3-.4 1.3-.6 2.8-.6 4.6V26h4.4V11.2l.1-3.4c.1-1 .4-1.7.7-2.4.4-.7.8-1.2 1.5-1.5.6-.3 1.5-.5 2.6-.5 1 0 2.2.4 3.4 1 1.2.6 2.3 1.3 3.3 2.2v19.5H0Z" fill="#ab092f" fill-opacity="1" fill-rule="nonzero" stroke="none" transform="translate(590.5 60)"/><path d="M0 0c-2.4 0-4.3.7-5.6 2-1.3 1.4-2 3.6-2 6.5V23h-3v3.6h3v7.5h4.4v-7.5h8V23h-8V7.5c0-.7.3-1.4.6-2 .2-.6.7-1 1.3-1.3a6.9 6.9 0 0 1 4.5 0l1.4.5H5v-4A23.9 23.9 0 0 0 0 0" fill="#ab092f" fill-opacity="1" fill-rule="nonzero" stroke="none" transform="translate(604.7 59.3)"/><path d="M0 0h-4.4v3C-5.7 1.6-7 .7-8.2.1c-1.2-.6-2.6-1-4-1a9 9 0 0 0-3.3.7A7 7 0 0 0-18 1.6c-.7.8-1.3 1.9-1.7 3-.4 1.3-.6 2.8-.6 4.6V26h4.4V11.2l.1-3.4c.1-1 .3-1.7.7-2.4.4-.7.8-1.2 1.5-1.5.6-.3 1.4-.5 2.6-.5 1 0 2.2.4 3.4 1a16 16 0 0 1 3.3 2.2v19.5H0Z" fill="#ab092f" fill-opacity="1" fill-rule="nonzero" stroke="none" transform="translate(633 60)"/><path d="M0 0c0 1.2-.2 2.2-.4 3.1-.3.9-.6 1.6-1 2.2-.6.7-1.3 1.2-2 1.5-.9.4-1.8.5-3 .5s-2.2-.2-3-.5c-.8-.4-1.6-.9-2.3-1.5A7.5 7.5 0 0 1-13 3a10 10 0 0 1-.7-3Zm-5.1-16.5c-4.1 0-7.4 1.2-9.6 3.5-2.3 2.4-3.5 5.7-3.5 10A15 15 0 0 0-14.9 7C-12.6 9.6-9.7 11-6 11c1.6 0 3-.2 4.2-.7A8.3 8.3 0 0 0 1.4 8c1-1 1.6-2.2 2.1-3.7.5-1.4.8-3.2.8-5.3v-2.4h-18.1c0-3 .8-5.3 2.3-6.9a8.3 8.3 0 0 1 6.3-2.4 14.5 14.5 0 0 1 8.7 3.1h.3v-4.7l-2-.8a28.3 28.3 0 0 0-4.3-1.2l-2.6-.2" fill="#ab092f" fill-opacity="1" fill-rule="nonzero" stroke="none" transform="translate(655.7 75.8)"/><path d="M669 60h-4.4v36.2h4.4zM680 60h-4.3v36.2h4.3z" fill="#ab092f" fill-opacity="1" fill-rule="nonzero" stroke="none"/><path d="M0 0c0 1.2-.2 2.2-.4 3.1-.3.9-.6 1.6-1 2.2-.6.7-1.3 1.2-2 1.5-.9.4-1.8.5-3 .5s-2.2-.2-3-.5c-.8-.4-1.6-.9-2.2-1.5A7.5 7.5 0 0 1-13.1 3c-.4-.9-.6-1.9-.7-3Zm-5.1-16.5c-4.1 0-7.4 1.2-9.6 3.5-2.3 2.4-3.5 5.7-3.5 10 0 4.2 1.1 7.6 3.4 10.1A11 11 0 0 0-6.2 11c1.7 0 3.1-.2 4.3-.7A8.3 8.3 0 0 0 1.4 8c1-1 1.6-2.2 2.1-3.7.5-1.4.8-3.2.8-5.3v-2.4h-18.1c0-3 .8-5.3 2.3-6.9a8.4 8.4 0 0 1 6.3-2.4c1 0 2 .2 2.9.4a14 14 0 0 1 5.8 2.8h.3v-4.8l-2-.8a31.3 31.3 0 0 0-4.3-1.2l-2.6-.2" fill="#ab092f" fill-opacity="1" fill-rule="nonzero" stroke="none" transform="translate(702.8 75.8)"/><path d="M0 0v17c-1.2.6-2.4 1-3.3 1.2-1 .2-2 .3-3.2.3-2.6 0-4.6-1-6-2.8-1.5-2-2.2-4.7-2.2-8.3 0-3.4.5-6 1.7-8 1-1.7 2.8-2.7 5.3-2.7 1.3 0 2.6.3 4 .9C-2.5-1.8-1.3-1 0 0m5-7.2H0v3l-2-1.6c-.6-.4-1.2-.8-2-1.1A10.6 10.6 0 0 0-8.8-8a9.7 9.7 0 0 0-8 4c-1 1.2-1.7 2.8-2.2 4.8a25 25 0 0 0 .2 13.3c.7 1.9 1.6 3.5 2.8 5a11.5 11.5 0 0 0 8.7 4 13.6 13.6 0 0 0 7.3-2V34h5z" fill="#ab092f" fill-opacity="1" fill-rule="nonzero" stroke="none" transform="translate(323.6 13)"/><path d="M0 0c0 1.3-.2 2.5-.5 3.5s-.7 1.8-1.2 2.4c-.6.8-1.3 1.4-2.2 1.7-1 .4-2 .6-3.4.6A7.5 7.5 0 0 1-13.2 6a8.1 8.1 0 0 1-1.7-2.6c-.4-1-.6-2-.7-3.3Zm-5.8-18.7c-4.7 0-8.4 1.4-11 4-2.5 2.7-3.8 6.4-3.8 11.3 0 4.8 1.2 8.6 3.7 11.4 2.5 2.9 5.9 4.3 10 4.3 1.8 0 3.4-.3 4.8-.8A9.4 9.4 0 0 0 1.6 9C2.6 8 3.5 6.5 4 5c.6-1.6.9-3.6.9-6v-2.7h-20.5c0-3.4.9-6 2.6-7.8a9.4 9.4 0 0 1 7.2-2.7 14 14 0 0 1 6 1.3A20.7 20.7 0 0 1 4-10.7h.3v-5.5a55.6 55.6 0 0 0-7.1-2.3 18 18 0 0 0-3-.2" fill="#ab092f" fill-opacity="1" fill-rule="nonzero" stroke="none" transform="translate(356.2 23.8)"/><path d="M0 0a21.7 21.7 0 0 0-9.8 2.5v5.6h.3a22.4 22.4 0 0 1 3.7-2.4l2.8-1a11 11 0 0 1 5.7-.2c.9.2 1.5.4 2 .7.6.4 1 .8 1.3 1.3.3.4.4 1.1.4 2 0 1.2-.3 2.1-1 2.7a8 8 0 0 1-3.3 1.5l-2.5.5-2.8.7a9.1 9.1 0 0 0-5 3 8 8 0 0 0-1.5 5 8 8 0 0 0 3 6.4 12 12 0 0 0 8 2.6 20.7 20.7 0 0 0 9.1-2.2v-5.3h-.2a15.4 15.4 0 0 1-9 3.3c-1.6 0-3-.4-4-1a3.4 3.4 0 0 1-1.8-3.1c0-1.3.4-2.2 1-2.8.7-.6 1.8-1.1 3.2-1.5l2.5-.6 2.9-.6a9.4 9.4 0 0 0 4.9-2.7c1-1.3 1.6-3 1.6-5.2a8.6 8.6 0 0 0-3-6.5c-1-.9-2.2-1.5-3.5-2C3.7.2 2 0 0 0" fill="#ab092f" fill-opacity="1" fill-rule="nonzero" stroke="none" transform="translate(376 5.2)"/><path d="m0 0-6 18.6L-12.2 0Zm-22.4-15.4 13.2 39.3h6.5l13.2-39.3H5L1.4-4.5h-15l-3.5-11z" fill="#ab092f" fill-opacity="1" fill-rule="nonzero" stroke="none" transform="translate(431.5 21.3)"/><path d="M0 0h-5v3.2C-6.5 2-8 1-9.3.2a11 11 0 0 0-8.2-.4 7.6 7.6 0 0 0-3 2 9 9 0 0 0-2 3.5 16 16 0 0 0-.7 5v19.2h5V12.7c0-1.6 0-2.9.2-4 .1-1 .4-1.8.8-2.6s1-1.3 1.6-1.7a8.5 8.5 0 0 1 6.9.5c1.3.7 2.6 1.5 3.7 2.6v22h5Z" fill="#ab092f" fill-opacity="1" fill-rule="nonzero" stroke="none" transform="translate(469.9 5.8)"/><path d="M0 0c-2.7 0-4.8.8-6.3 2.3-1.5 1.5-2.3 4-2.3 7.3v16.3H-12V30h3.4v8.4h5v-8.4h9.1v-4.2h-9.1V8.4c.1-.8.3-1.5.7-2.2.3-.7.7-1.1 1.4-1.4.7-.3 1.6-.5 2.7-.5a12.7 12.7 0 0 1 4 1h.3V.8A21.7 21.7 0 0 0 0 0" fill="#ab092f" fill-opacity="1" fill-rule="nonzero" stroke="none" transform="translate(488 5.3)"/><path d="M0 0c0 3.8-.7 6.6-2 8.5a7 7 0 0 1-6 2.8 7 7 0 0 1-6-2.8c-1.4-1.9-2.1-4.7-2.1-8.5 0-3.7.7-6.5 2-8.4a7 7 0 0 1 6-2.9 7 7 0 0 1 6 2.8C-.7-6.5 0-3.8 0 0m5.1 0c0-5-1.2-8.8-3.6-11.5-2.4-2.7-5.6-4-9.5-4a12 12 0 0 0-9.7 4.1A17.1 17.1 0 0 0-21.2 0c0 5 1.2 8.7 3.6 11.5 2.4 2.7 5.6 4 9.6 4s7.1-1.3 9.5-4A17 17 0 0 0 5.1 0" fill="#ab092f" fill-opacity="1" fill-rule="nonzero" stroke="none" transform="translate(518.2 20.6)"/><path d="M544 20.7h-15v4.7h15z" fill="#ab092f" fill-opacity="1" fill-rule="nonzero" stroke="none"/><path d="M0 0v39.3h24.7v-4.6H5.2V23.9h18.1v-4.6h-18V4.6h19.4V0Z" fill="#ab092f" fill-opacity="1" fill-rule="nonzero" stroke="none" transform="translate(552.2 5.8)"/><path d="M0 0c-2 0-3.9.3-5.6 1-1.7.6-3.2 1.5-4.4 2.8a12.9 12.9 0 0 0-2.8 4.8c-.7 1.9-1 4.2-1 6.8 0 2.6.4 4.8 1 6.7a15 15 0 0 0 2.8 4.8c1.2 1.2 2.7 2.2 4.4 3a16.6 16.6 0 0 0 10.3.4c1.5-.6 2.9-1.1 4-1.7V23h-.2L7 24a17 17 0 0 1-4.5 2.1c-1 .3-1.8.4-2.7.4-2.6 0-4.7-1-6.2-2.9-1.6-2-2.4-4.7-2.4-8.2 0-3.5.8-6.2 2.3-8.1 1.5-2 3.6-3 6.3-3 1.6 0 3.2.4 4.7 1A15 15 0 0 1 8.5 8h.3V2.3a55.8 55.8 0 0 0-4-1.5L2.7.2 0 0" fill="#ab092f" fill-opacity="1" fill-rule="nonzero" stroke="none" transform="translate(595.8 5.2)"/><path d="M0 0c0 3.8-.7 6.6-2 8.5a7 7 0 0 1-6 2.8 7 7 0 0 1-6-2.8c-1.4-1.9-2.1-4.7-2.1-8.5 0-3.7.7-6.5 2-8.4a7 7 0 0 1 6-2.9 7 7 0 0 1 6 2.8A14 14 0 0 1 0 0m5.1 0c0-5-1.2-8.8-3.6-11.5-2.4-2.7-5.6-4-9.5-4a12 12 0 0 0-9.7 4.1A17.2 17.2 0 0 0-21.2 0c0 5 1.2 8.7 3.6 11.5 2.4 2.7 5.6 4 9.6 4s7.1-1.3 9.5-4A17 17 0 0 0 5.1 0" fill="#ab092f" fill-opacity="1" fill-rule="nonzero" stroke="none" transform="translate(630 20.6)"/><path d="M647.3 5.8h-5V47h5z" fill="#ab092f" fill-opacity="1" fill-rule="nonzero" stroke="none"/><path d="M0 0c0 1.3-.2 2.5-.5 3.5a7 7 0 0 1-1.2 2.4c-.6.8-1.3 1.4-2.2 1.7-1 .4-2 .6-3.4.6A7.7 7.7 0 0 1-13.2 6a8.1 8.1 0 0 1-1.7-2.6c-.4-1-.6-2-.7-3.3Zm-5.8-18.7c-4.7 0-8.3 1.4-11 4-2.5 2.7-3.9 6.4-3.9 11.3 0 4.8 1.3 8.6 3.8 11.4 2.6 2.9 5.8 4.3 10 4.3 1.8 0 3.4-.3 4.8-.8A9.6 9.6 0 0 0 1.6 9C2.6 8 3.4 6.5 4 5c.6-1.6.9-3.6.9-6v-2.7h-20.5c0-3.4.9-6 2.6-7.8a9.4 9.4 0 0 1 7.2-2.7 14 14 0 0 1 6 1.3A20.2 20.2 0 0 1 4-10.7h.3v-5.5a51.5 51.5 0 0 0-7.1-2.3l-3-.2" fill="#ab092f" fill-opacity="1" fill-rule="nonzero" stroke="none" transform="translate(675 23.8)"/><path d="M0 0a21.6 21.6 0 0 0-9.8 2.5v5.6h.3a23.3 23.3 0 0 1 3.7-2.4 18 18 0 0 1 2.8-1 11 11 0 0 1 5.7-.2c.9.2 1.5.4 2 .7.6.4 1 .8 1.3 1.3.3.4.4 1.1.4 2 0 1.2-.3 2.1-1 2.7a8 8 0 0 1-3.3 1.5A77.4 77.4 0 0 1-3.2 14a9 9 0 0 0-5 3 8 8 0 0 0-1.5 5 8 8 0 0 0 3 6.4 12 12 0 0 0 8 2.6 20.7 20.7 0 0 0 9.1-2.2v-5.3h-.2c-1.3 1-2.7 1.8-4.2 2.4-1.6.6-3.2.9-4.8.9-1.6 0-3-.4-4-1a3.4 3.4 0 0 1-1.8-3.1c0-1.3.4-2.2 1-2.8.7-.6 1.8-1.1 3.2-1.5l2.5-.6 2.8-.6a9.4 9.4 0 0 0 5-2.7c1-1.3 1.6-3 1.6-5.2a8 8 0 0 0-3-6.5c-1-.9-2.2-1.5-3.5-2C3.7.2 2 0 0 0" fill="#ab092f" fill-opacity="1" fill-rule="nonzero" stroke="none" transform="translate(694.8 5.2)"/><path d="M0 0c-2 .6-47.4 14.8-64.2-4-8.7-9.9-8-26 2-48.1 1.7-4 2.4-9.8.9-11.1-1.3-1.2-7.1-1.1-20.4 6.3l-2-3.5-2-3.6c15-8.3 24.4-10 29.8-5.3 6.7 5.9 2.2 18 1.2 20.4-8.7 19-9.8 32.2-3.5 39.4 11 12.4 44 5.5 55.7 1.7l1.3 4z" fill="#ab092f" fill-opacity="1" fill-rule="nonzero" stroke="none" transform="translate(372.2 250.9)"/><path d="M0 0c2.2-.2 53.3-4.9 68.6 17.1 6 8.8 5.7 20.1-1 33.8l-.2.3c-1.5 2.5-3.1 7-1.9 8.7.4.4 3.8 4 22.8-1.5l1.2 3.9 1 4c-17 4.9-27 4.4-31.5-1.5-5.1-6.9.8-16.8 1.5-17.9l-.2.4c5.3-10.8 5.8-19.4 1.6-25.5C51.5 6.8 14.2 6.8.8 8l-.4-4Z" fill="#ab092f" fill-opacity="1" fill-rule="nonzero" stroke="none" transform="translate(277.8 151.4)"/><path d="M0 0c-103.4-56-209.2-61-236.3-11-1.4 2.5-2.5 5-3.4 7.7h12.8s55.2-76 221.7 3.8z" fill="#ab092f" fill-opacity="1" fill-rule="nonzero" stroke="none" transform="translate(345.7 130.6)"/><path d="M0 0c-163.1-78.3-219.1-5-219.7-4.3l-.5.7H-236l.7-2c.9-2.7 2-5.4 3.5-8 7.7-14.2 21.4-24.4 40.9-30.1 49-14.6 124.8.9 197.6 40.4l4.5 2.4L6-.4.8.1H.4zm5.2-.6c-71-38.5-147.7-54.3-195.3-40.1-18.6 5.5-31.7 15.1-39 28.5-1.3 2.5-2.4 5-3.2 7.5l-1.5-2h12.8l-1.2.6c.6-.8 14.5-19.6 49.3-28.7C-141.1-43-85-44.3 1.4-2.8L.5-3l5.3-.5Z" fill="#ab092f" fill-opacity="1" fill-rule="nonzero" stroke="none" transform="translate(339.7 132.5)"/><path d="M0 0c16.1 12.1 34 24.2 53.3 34.7 103.4 56 209.2 61 236.4 11 9.1-17 8.1-37.9-1.1-60.4H280s32.3 85.8-70.9 91c0 0-86.7 8.5-201.2-76.3z" fill="#ab092f" fill-opacity="1" fill-rule="nonzero" stroke="none" transform="translate(194.1 282.1)"/><path d="M0 0c112.6 83.4 199.3 76.1 200.2 76 32-1.6 54-11.2 65.4-28.5 16.8-25.7 4.2-60 4-60.4l-.8-2.1h11.8l.5 1c9.7 23.6 10 45 1 61.7-27.5 50.7-134.5 46-238.5-10.4-17.5-9.5-35-20.9-53.5-34.8l-3.7-2.8H-.4zm-8 0A425.5 425.5 0 0 0 45 34.6c102.5 55.6 207.6 60.8 234.2 11.6 8.7-15.9 8.2-36.3-1.1-59l1.4.9h-8.5l1.5-2.1c.5 1.4 13.3 36.2-4.4 63.2-12 18.2-34.8 28.3-67.8 30-.8 0-88.6 7.5-202.2-76.7l.9.3h-8z" fill="#ab092f" fill-opacity="1" fill-rule="nonzero" stroke="none" transform="translate(203 280.9)"/></g></svg>