<svg
   version="1.1"
   id="svg2"
   xml:space="preserve"
   width="962.66669"
   height="516"
   viewBox="0 0 962.66669 516"
   sodipodi:docname="logo-resized.ai"
   xmlns:inkscape="http://www.inkscape.org/namespaces/inkscape"
   xmlns:sodipodi="http://sodipodi.sourceforge.net/DTD/sodipodi-0.dtd"
   xmlns="http://www.w3.org/2000/svg"
   xmlns:svg="http://www.w3.org/2000/svg"><defs
     id="defs6"><clipPath
       clipPathUnits="userSpaceOnUse"
       id="clipPath16"><path
         d="M 0,387 H 722 V 0 H 0 Z"
         id="path14" /></clipPath></defs><sodipodi:namedview
     id="namedview4"
     pagecolor="#ffffff"
     bordercolor="#666666"
     borderopacity="1.0"
     inkscape:pageshadow="2"
     inkscape:pageopacity="0.0"
     inkscape:pagecheckerboard="0" /><g
     id="g8"
     inkscape:groupmode="layer"
     inkscape:label="logo-resized"
     transform="matrix(1.3333333,0,0,-1.3333333,0,516)"><g
       id="g10"><g
         id="g12"
         clip-path="url(#clipPath16)"><g
           id="g18"
           transform="translate(504.107,267.6466)"><path
             d="m 0,0 h 3.911 c 9.737,26.094 10.151,50.563 -0.68,70.53 -32.656,60.167 -155.227,56.84 -273.755,-7.445 -22.65,-12.27 -46.601,-28.285 -65.281,-42.725 v 0.152 c 0,0 144.791,111.376 269.96,88.361 0,0 93.877,-14.718 65.845,-108.873"
             style="fill:#ab092f;fill-opacity:1;fill-rule:nonzero;stroke:none"
             id="path20" /></g><g
           id="g22"
           transform="translate(438.4234,377.2865)"><path
             d="m 0,0 c -28.679,5.269 -60.749,3.877 -95.322,-4.108 -27.646,-6.37 -56.944,-16.979 -87.099,-31.495 -51.328,-24.727 -87.826,-52.602 -88.175,-52.884 -0.199,-0.147 -0.315,-0.389 -0.315,-0.641 v -0.151 c 0,-0.293 0.181,-0.561 0.449,-0.688 0.25,-0.156 0.565,-0.106 0.815,0.071 20.305,15.667 44.052,31.202 65.182,42.66 117.956,63.982 240.294,67.465 272.693,7.757 10.336,-19.089 10.574,-43.25 0.64,-69.878 0.112,0.303 0.409,0.504 0.727,0.504 h -3.911 c 0.253,0 0.474,-0.131 0.626,-0.332 0.151,-0.193 0.192,-0.434 0.12,-0.692 8.491,28.542 6.693,52.687 -5.369,71.786 C 41.327,-6.798 0.383,-0.051 0,0 m 65.684,-110.423 h 3.911 c 0.323,0 0.632,0.208 0.732,0.495 10.085,27.088 9.838,51.694 -0.732,71.186 C 53.651,-9.352 16.252,6.041 -35.765,4.624 -87.61,3.23 -147.772,-14.707 -205.207,-45.859 c -21.203,-11.493 -45.036,-27.094 -65.389,-42.795 0.235,0.192 0.55,0.222 0.816,0.091 0.267,-0.141 0.434,-0.403 0.434,-0.716 v 0.151 c 0,-0.227 -0.102,-0.454 -0.301,-0.616 1.449,1.12 145.966,110.887 269.334,88.205 0.434,-0.061 40.721,-6.724 60.072,-37.385 11.795,-18.7 13.531,-42.437 5.177,-70.494 -0.084,-0.232 -0.035,-0.494 0.117,-0.686 0.147,-0.203 0.384,-0.319 0.631,-0.319"
             style="fill:#ab092f;fill-opacity:1;fill-rule:nonzero;stroke:none"
             id="path24" /></g><g
           id="g26"
           transform="translate(270.096,76.4373)"><path
             d="m 0,0 c -88.704,-27.627 -166.923,-18.897 -192.023,27.366 -3.959,7.34 -6.44,15.243 -7.472,23.632 h 3.263 c 0,0 22.334,-102.994 193.294,-50.765 z"
             style="fill:#ab092f;fill-opacity:1;fill-rule:nonzero;stroke:none"
             id="path28" /></g><g
           id="g30"
           transform="translate(266.935,77.4182)"><path
             d="m 0,0 c -35.967,-10.995 -68.067,-15.879 -95.446,-14.516 -22.367,1.101 -41.73,6.358 -57.575,15.635 -32.403,18.988 -39.21,48.757 -39.283,49.059 -0.071,0.354 -0.386,0.606 -0.767,0.606 h -3.263 c -0.225,0 -0.439,-0.096 -0.583,-0.252 -0.149,-0.162 -0.215,-0.389 -0.19,-0.616 1.056,-8.529 3.586,-16.575 7.547,-23.914 12.285,-22.616 37.447,-37.071 72.762,-41.779 34.366,-4.594 75.94,0.255 120.194,14.055 0.366,0.115 0.591,0.458 0.54,0.843 -0.025,0.364 -0.333,0.655 -0.706,0.687 L 0.282,0.029 C 0.184,0.045 0.082,0.02 0,0 m 2.927,-0.224 c -90.284,-28.142 -167.073,-17.285 -191.112,26.994 -3.846,7.152 -6.335,15 -7.375,23.328 0.025,-0.222 -0.04,-0.444 -0.192,-0.611 -0.141,-0.156 -0.365,-0.258 -0.582,-0.258 h 3.263 c -0.351,0 -0.681,0.258 -0.749,0.616 0.049,-0.303 6.982,-30.718 39.976,-50.069 16.06,-9.407 35.659,-14.758 58.298,-15.868 27.545,-1.367 59.857,3.57 96.005,14.607 -0.101,-0.041 -0.184,-0.05 -0.293,-0.05 l 2.937,-0.221 c -0.372,0.029 -0.673,0.321 -0.706,0.705 -0.051,0.364 0.184,0.712 0.53,0.827"
             style="fill:#ab092f;fill-opacity:1;fill-rule:nonzero;stroke:none"
             id="path32" /></g><g
           id="g34"
           transform="translate(232.8506,147.3206)"><path
             d="m 0,0 11.309,48.877 c 1.539,5.805 1.273,10.761 -0.79,14.597 -1.583,2.943 -4.952,6.491 -11.932,6.521 -4.535,0 -8.889,-1.645 -12.959,-4.916 -4.017,-3.216 -6.664,-7.157 -7.855,-11.7 -1.306,-5.036 -0.74,-9.367 1.698,-12.88 1.759,-2.523 5.15,-5.496 11.434,-5.516 l 0.011,4.063 0.012,4.068 c -3.019,0.02 -4.174,1.17 -4.792,2.034 -1.023,1.478 -1.181,3.507 -0.483,6.172 0.733,2.847 2.405,5.27 5.078,7.395 2.629,2.124 5.183,3.134 7.846,3.134 C 1.731,61.838 2.746,60.723 3.328,59.608 4.394,57.669 4.411,54.631 3.404,50.846 3.379,50.715 -7.94,1.838 -7.94,1.838 l 3.971,-0.899 z"
             style="fill:#ab092f;fill-opacity:1;fill-rule:nonzero;stroke:none"
             id="path36" /></g><g
           id="g38"
           transform="translate(215.4105,156.0526)"><path
             d="m 0,0 c -12.584,0 -21.637,4.008 -27.677,12.214 -6.092,8.263 -7.439,18.463 -4.096,31.223 3.314,12.557 10.57,23.378 21.584,32.181 C 0.797,84.354 12.597,88.78 24.913,88.76 38.543,88.749 47.83,84.99 53.306,77.247 58.779,69.48 59.713,58.498 56.051,44.567 56.026,44.461 44.037,-6.945 44.037,-6.945 l 3.959,-0.919 3.977,-0.918 11.975,51.39 c 4.285,16.258 2.937,29.516 -4.011,39.349 -7,9.891 -18.79,14.929 -35.017,14.944 C 10.724,96.906 -2.796,91.889 -15.263,81.976 -27.677,72.064 -35.898,59.794 -39.644,45.486 -43.588,30.415 -41.773,17.605 -34.236,7.389 -26.647,-2.907 -15.13,-8.116 -0.018,-8.126 L 0,-4.068 Z"
             style="fill:#ab092f;fill-opacity:1;fill-rule:nonzero;stroke:none"
             id="path40" /></g><g
           id="g42"
           transform="translate(441.7542,213.9286)"><path
             d="m 0,0 -26.831,-0.913 c -1.797,-0.066 -3.351,-1.302 -3.785,-3.048 -2.292,-8.682 -2.357,-14.507 -0.263,-18.363 3.346,-6.056 16.045,-6.39 18.575,-6.39 -1.283,0 -2.464,0.586 -3.232,1.586 -0.761,0.993 -1.029,2.296 -0.706,3.512 l -9.676,-36.895 c 0.43,1.681 1.934,2.907 3.68,3.024 -1.725,-0.101 -6.5,-0.177 -7.374,-0.177 -6.96,0 -13.137,1.655 -18.377,4.962 -5.188,3.255 -8.812,7.555 -11.074,13.158 -2.77,7.207 -2.532,17.19 0.743,29.626 l 20.002,76.223 c -0.475,-1.787 -2.08,-3.008 -3.942,-3.008 l 34.533,-0.055 c -1.267,0 -2.448,0.59 -3.215,1.599 -0.768,1.001 -1.03,2.292 -0.707,3.513 l -9.342,-35.643 c -0.319,-1.222 -0.051,-2.534 0.712,-3.523 0.776,-0.999 1.958,-1.594 3.214,-1.594 l 38.379,-0.031 0.016,4.078 v 4.058 l -38.379,0.041 c 1.251,-0.01 2.442,-0.591 3.204,-1.586 0.783,-0.999 1.046,-2.301 0.722,-3.512 l 9.338,35.643 c 0.318,1.211 0.07,2.513 -0.716,3.513 -0.763,1.01 -1.955,1.585 -3.201,1.585 l -34.544,0.03 c -1.846,0 -3.461,-1.242 -3.946,-3.033 L -66.184,-7.858 c -3.72,-14.112 -3.881,-25.781 -0.459,-34.664 2.927,-7.208 7.732,-12.941 14.334,-17.08 6.536,-4.118 14.177,-6.214 22.697,-6.214 0.782,0 5.86,0.076 7.868,0.207 1.768,0.116 3.242,1.334 3.685,3.025 l 9.691,36.909 c 0.308,1.212 0.06,2.514 -0.716,3.513 -0.774,0.999 -1.954,1.584 -3.22,1.595 -6.224,0 -10.771,1.484 -11.569,2.302 0,0 0.061,-0.057 0.121,-0.152 -0.334,0.636 -1.333,3.472 0.995,12.391 -0.45,-1.736 -1.994,-2.978 -3.777,-3.028 L 0.283,-8.12 0.141,-4.053 Z"
             style="fill:#ab092f;fill-opacity:1;fill-rule:nonzero;stroke:none"
             id="path44" /></g><g
           id="g46"
           transform="translate(519.7838,208.6945)"><path
             d="m 0,0 c 0.364,4.724 -0.686,8.419 -3.054,10.983 -2.256,2.443 -5.537,3.685 -9.776,3.699 -5.466,0 -10.468,-2.266 -14.879,-6.738 -4.179,-4.214 -7.121,-9.609 -8.777,-16.019 -1.822,-6.859 -1.742,-12.674 0.272,-17.262 2.307,-5.188 6.729,-8.035 12.492,-8.035 H 7.49 v 4.063 4.093 h -31.197 c -2.589,0 -4.053,0.909 -5.066,3.17 -1.227,2.832 -1.182,6.839 0.145,11.932 1.302,5.007 3.564,9.166 6.714,12.335 2.845,2.917 5.834,4.321 9.084,4.321 1.282,0 2.999,-0.177 3.811,-1.071 0.762,-0.817 1.085,-2.558 0.903,-4.87 l 4.048,-0.308 z"
             style="fill:#ab092f;fill-opacity:1;fill-rule:nonzero;stroke:none"
             id="path48" /></g><g
           id="g50"
           transform="translate(507.3018,153.852)"><path
             d="m 0,0 h -19.986 c -12.366,0.01 -21.314,4.018 -27.412,12.275 -6.117,8.307 -7.495,18.432 -4.209,31 3.382,12.869 10.497,23.423 21.718,32.317 11.028,8.757 23.01,13.178 35.628,13.158 12.022,-0.02 20.723,-3.988 26.634,-12.123 5.941,-8.228 7.258,-18.215 4.028,-30.535 0.464,1.786 2.084,3.027 3.947,3.027 H 1.701 v -4.057 -4.083 h 38.647 c 1.832,0 3.447,1.267 3.922,3.043 3.831,14.607 2.048,27.173 -5.3,37.369 C 31.53,91.662 20.356,96.876 5.759,96.876 -8.757,96.916 -22.44,91.889 -34.947,81.982 -47.428,72.084 -55.676,59.769 -59.486,45.339 -63.372,30.435 -61.52,17.706 -53.94,7.44 -46.328,-2.876 -34.896,-8.116 -19.986,-8.141 H 0 v 4.063 z"
             style="fill:#ab092f;fill-opacity:1;fill-rule:nonzero;stroke:none"
             id="path52" /></g><g
           id="g54"
           transform="translate(586.2255,144.9088)"><path
             d="m 0,0 11.562,45.828 c 3.02,11.452 7.647,11.452 9.172,11.452 0.656,-0.045 3.28,-1.16 4.198,-3.27 0.597,-1.363 1.894,-2.307 3.388,-2.433 l 4.386,-0.388 c 1.984,-0.172 3.79,1.099 4.29,3.038 l 10.517,40.499 c 0.556,2.18 -0.716,4.381 -2.866,4.956 l -3.352,0.909 c -4.704,0.847 -12.131,1.24 -14.968,1.251 C 13.293,101.852 1.6,97.506 -8.474,88.881 -18.393,80.392 -25.341,68.858 -29.062,54.63 -29.073,54.585 -42.457,2.054 -42.457,2.054 c -0.303,-1.217 -0.03,-2.504 0.731,-3.498 0.782,-0.989 1.953,-1.565 3.206,-1.575 L -3.967,-3.084 C -2.079,-3.084 -0.45,-1.807 0,0 m -34.568,0.029 13.37,52.552 c 3.305,12.588 9.372,22.733 18.018,30.112 8.666,7.44 18.307,11.028 29.462,11.012 2.735,-0.029 9.547,-0.393 13.243,-1.048 -0.359,0.09 2.977,-0.833 2.977,-0.833 -2.145,0.59 -3.418,2.811 -2.871,4.951 L 29.123,56.276 c 0.484,1.918 2.305,3.19 4.274,3.029 l -4.392,0.373 c 1.49,-0.111 2.792,-1.055 3.389,-2.432 -2.419,5.571 -8.38,8.175 -11.66,8.175 C 15.07,65.421 7.5,62.378 3.7,47.857 3.685,47.816 -7.904,2.008 -7.904,2.008 c 0.47,1.792 2.095,3.059 3.966,3.059 l -34.568,0.051 c 1.277,0 2.438,-0.571 3.206,-1.556 0.782,-0.999 1.039,-2.301 0.732,-3.533"
             style="fill:#ab092f;fill-opacity:1;fill-rule:nonzero;stroke:none"
             id="path56" /></g><g
           id="g58"
           transform="translate(147.8081,281.3953)"><path
             d="m 0,0 c 8.87,1.029 21.715,-5.663 25.852,-12.921 4.135,-7.243 4.393,-16.192 0.832,-29.779 l -23.222,-88.528 -37.379,0.056 21.742,82.829 c 0.7,5.895 -5.617,7.641 -5.617,7.641 -8.388,0.375 -10.021,-6.97 -10.021,-6.97 l -21.9,-83.484 -37.38,0.059 21.736,82.84 c 1.641,7.168 -5.191,7.979 -5.191,7.979 -8.196,0.567 -9.97,-7.979 -9.97,-7.979 l -21.728,-82.83 -37.37,0.062 24.065,91.793 c 3.011,11.416 8.838,20.759 17.55,27.981 8.714,7.233 18.482,10.836 29.332,10.806 12.832,0 25.977,-6.066 29.725,-18.14 0,0 11.739,19.947 38.944,18.585"
             style="fill:#ab092f;fill-opacity:1;fill-rule:nonzero;stroke:none"
             id="path60" /></g><g
           id="g62"
           transform="translate(112.7574,264.012)"><path
             d="M 0,0 C -4.512,14.496 -20.135,21.007 -33.619,21.007 -45.374,21.042 -56.12,17.095 -65.546,9.257 -74.857,1.529 -81.217,-8.581 -84.445,-20.799 l -24.065,-91.809 c -0.317,-1.226 -0.06,-2.524 0.714,-3.508 0.768,-1.009 1.967,-1.585 3.224,-1.599 l 37.362,-0.045 c 1.854,0 3.469,1.24 3.936,3.033 l 21.751,82.819 c 0.232,1.034 1.414,5.259 5.759,4.977 0.115,-0.051 1.055,-0.349 1.431,-0.879 0.35,-0.554 0.189,-1.594 0.058,-2.161 0.043,0.133 -21.711,-82.713 -21.711,-82.713 -0.308,-1.216 -0.058,-2.528 0.707,-3.517 0.774,-1.005 1.955,-1.59 3.222,-1.59 l 37.395,-0.051 c 1.83,0 3.463,1.252 3.936,3.048 l 21.904,83.472 c 0.254,1.034 1.42,4.138 5.897,3.946 -0.315,0.011 -0.616,0.06 -0.909,0.142 0.643,-0.207 2.923,-1.061 2.665,-3.241 0.018,0.193 0.058,0.379 0.109,0.555 l -21.744,-82.834 c -0.325,-1.232 -0.068,-2.534 0.707,-3.533 0.775,-0.994 1.981,-1.575 3.231,-1.575 l 37.362,-0.06 c 1.854,0 3.477,1.261 3.944,3.043 l 23.232,88.543 c 3.861,14.707 3.495,24.51 -1.224,32.806 -5.068,8.889 -19.588,16.142 -29.874,14.961 0.234,0.01 0.452,0.03 0.673,0.01 C 5.915,22.925 -6.867,1.766 -7.396,0.858 -6.574,2.251 -5.024,3.019 -3.422,2.837 -1.814,2.66 -0.481,1.529 0,0 m 35.515,13.339 c 6.997,0.823 18.425,-4.89 21.851,-10.911 3.58,-6.264 3.713,-14.249 0.434,-26.705 L 34.566,-112.81 c 0.467,1.782 2.1,3.043 3.946,3.043 l -37.378,0.051 c 1.263,-0.015 2.444,-0.59 3.209,-1.6 0.783,-0.994 1.05,-2.281 0.735,-3.507 l 21.732,82.834 c 0.043,0.172 0.069,0.364 0.102,0.555 0.883,7.399 -5.209,11.114 -8.57,12.043 -0.303,0.076 -0.601,0.121 -0.917,0.142 -9.311,0.393 -13.339,-6.466 -14.164,-10.155 0.035,0.141 -21.86,-83.329 -21.86,-83.329 0.459,1.785 2.09,3.027 3.937,3.027 l -37.38,0.066 c 1.267,-0.015 2.448,-0.6 3.221,-1.59 0.764,-1.01 1.032,-2.291 0.706,-3.517 l 21.743,82.839 c 0.992,4.31 -0.174,7.157 -1.329,8.782 -2.532,3.604 -6.824,4.219 -7.307,4.29 -9.514,0.647 -13.589,-7.056 -14.437,-11.225 0.058,0.223 -21.685,-82.607 -21.685,-82.607 0.457,1.802 2.08,3.028 3.934,3.028 l -37.369,0.076 c 1.256,0 2.445,-0.586 3.213,-1.585 0.764,-0.994 1.039,-2.302 0.714,-3.523 l 24.072,91.804 c 2.789,10.553 8.232,19.244 16.201,25.862 8.059,6.667 16.785,9.907 26.728,9.887 10.511,-0.025 22.586,-4.755 25.865,-15.309 0.474,-1.519 1.822,-2.629 3.422,-2.821 1.603,-0.192 3.152,0.596 3.967,1.979 0.432,0.717 10.953,17.806 35.242,16.585 0.214,0 0.441,0 0.656,0.024"
             style="fill:#ab092f;fill-opacity:1;fill-rule:nonzero;stroke:none"
             id="path64" /></g><g
           id="g66"
           transform="translate(321.8702,73.5667)"><path
             d="M 0,0 -5.357,16.306 -10.692,0 Z m -19.82,-13.644 11.724,34.711 h 5.684 L 9.297,-13.644 H 4.429 l -3.136,9.702 h -13.274 l -3.13,-9.702 z"
             style="fill:#ab092f;fill-opacity:1;fill-rule:nonzero;stroke:none"
             id="path68" /></g><g
           id="g70"
           transform="translate(341.1354,59.3441)"><path
             d="M 0,0 C -1.73,0 -3.369,0.231 -4.883,0.701 -6.397,1.164 -7.646,1.664 -8.646,2.175 V 7.08 h 0.235 c 0.374,-0.308 0.813,-0.615 1.312,-0.979 0.5,-0.364 1.173,-0.737 2.014,-1.126 0.743,-0.348 1.564,-0.635 2.463,-0.922 0.892,-0.274 1.817,-0.396 2.781,-0.396 0.7,0 1.433,0.082 2.231,0.245 0.788,0.16 1.378,0.372 1.767,0.626 0.544,0.352 0.939,0.736 1.181,1.15 0.237,0.403 0.363,1.02 0.363,1.827 0,1.048 -0.293,1.837 -0.848,2.371 -0.559,0.526 -1.564,0.981 -2.997,1.342 -0.567,0.131 -1.298,0.274 -2.188,0.475 -0.907,0.167 -1.74,0.373 -2.504,0.585 -1.991,0.577 -3.44,1.454 -4.345,2.661 -0.896,1.207 -1.349,2.66 -1.349,4.365 0,2.342 0.899,4.261 2.665,5.73 1.769,1.469 4.127,2.206 7.056,2.206 1.447,0 2.895,-0.183 4.359,-0.536 1.464,-0.343 2.695,-0.793 3.679,-1.333 V 20.698 H 8.992 c -1.11,0.889 -2.352,1.61 -3.725,2.109 -1.362,0.52 -2.756,0.778 -4.152,0.778 -1.437,0 -2.654,-0.307 -3.653,-0.92 -0.983,-0.615 -1.479,-1.533 -1.479,-2.755 0,-1.09 0.289,-1.901 0.863,-2.442 0.591,-0.547 1.532,-0.99 2.839,-1.322 C 0.333,15.974 1.058,15.823 1.856,15.64 2.663,15.488 3.5,15.278 4.394,15.075 6.317,14.607 7.77,13.793 8.744,12.672 9.704,11.553 10.193,10.043 10.193,8.131 10.193,7.005 9.981,5.94 9.527,4.946 9.078,3.94 8.447,3.092 7.589,2.362 6.65,1.589 5.6,0.992 4.419,0.599 3.254,0.19 1.789,0 0,0"
             style="fill:#ab092f;fill-opacity:1;fill-rule:nonzero;stroke:none"
             id="path72" /></g><g
           id="g74"
           transform="translate(362.4474,59.3441)"><path
             d="m 0,0 c -1.752,0 -3.367,0.231 -4.886,0.701 -1.523,0.463 -2.77,0.963 -3.76,1.474 V 7.08 h 0.213 c 0.378,-0.308 0.827,-0.615 1.322,-0.979 0.514,-0.364 1.186,-0.737 2.018,-1.126 0.748,-0.348 1.566,-0.635 2.464,-0.922 0.877,-0.274 1.812,-0.396 2.776,-0.396 0.701,0 1.433,0.082 2.231,0.245 0.797,0.16 1.382,0.372 1.766,0.626 0.55,0.352 0.928,0.736 1.182,1.15 0.231,0.403 0.362,1.02 0.362,1.827 0,1.048 -0.287,1.837 -0.847,2.371 -0.555,0.526 -1.566,0.981 -2.993,1.342 -0.571,0.131 -1.298,0.274 -2.196,0.475 -0.909,0.167 -1.742,0.373 -2.514,0.585 -1.979,0.577 -3.412,1.454 -4.331,2.661 -0.897,1.207 -1.342,2.66 -1.342,4.365 0,2.342 0.888,4.261 2.66,5.73 1.771,1.469 4.119,2.206 7.056,2.206 1.449,0 2.892,-0.183 4.361,-0.536 1.464,-0.343 2.695,-0.793 3.679,-1.333 V 20.698 H 8.99 c -1.122,0.889 -2.352,1.61 -3.736,2.109 -1.373,0.52 -2.755,0.778 -4.159,0.778 -1.433,0 -2.644,-0.307 -3.644,-0.92 -0.988,-0.615 -1.494,-1.533 -1.494,-2.755 0,-1.09 0.299,-1.901 0.878,-2.442 0.586,-0.547 1.535,-0.99 2.827,-1.322 0.666,-0.172 1.384,-0.323 2.19,-0.506 0.793,-0.152 1.64,-0.362 2.524,-0.565 1.928,-0.468 3.392,-1.282 4.351,-2.403 0.979,-1.119 1.458,-2.629 1.458,-4.541 C 10.185,7.005 9.968,5.94 9.53,4.946 9.09,3.94 8.439,3.092 7.571,2.362 6.638,1.589 5.578,0.992 4.427,0.599 3.246,0.19 1.772,0 0,0"
             style="fill:#ab092f;fill-opacity:1;fill-rule:nonzero;stroke:none"
             id="path76" /></g><g
           id="g78"
           transform="translate(396.9398,59.9228)"><path
             d="M 0,0 H -4.385 V 2.909 C -5.734,1.736 -7,0.83 -8.211,0.224 c -1.217,-0.617 -2.56,-0.94 -4.048,-0.94 -1.13,0 -2.196,0.203 -3.185,0.576 -1.005,0.384 -1.863,0.97 -2.614,1.756 -0.747,0.819 -1.328,1.847 -1.732,3.07 -0.409,1.23 -0.626,2.724 -0.626,4.475 v 16.895 h 4.391 v -14.84 c 0,-1.392 0.046,-2.534 0.142,-3.452 0.111,-0.904 0.338,-1.706 0.696,-2.393 0.349,-0.656 0.828,-1.16 1.448,-1.478 0.596,-0.288 1.5,-0.45 2.63,-0.45 1.065,0 2.196,0.318 3.412,0.924 1.196,0.606 2.301,1.372 3.312,2.251 V 26.056 H 0 Z"
             style="fill:#ab092f;fill-opacity:1;fill-rule:nonzero;stroke:none"
             id="path80" /></g><g
           id="g82"
           transform="translate(417.073,81.2429)"><path
             d="m 0,0 h -0.242 c -0.313,0.081 -0.661,0.131 -1.029,0.151 -0.354,0.032 -0.798,0.032 -1.302,0.032 -1.177,0 -2.342,-0.244 -3.493,-0.769 -1.161,-0.508 -2.261,-1.261 -3.291,-2.28 V -21.32 h -4.38 V 4.736 h 4.38 V 0.868 c 1.58,1.424 2.968,2.428 4.159,3.004 1.181,0.57 2.332,0.864 3.442,0.864 0.444,0 0.777,0 1,-0.032 0.222,-0.021 0.469,-0.05 0.756,-0.1 z"
             style="fill:#ab092f;fill-opacity:1;fill-rule:nonzero;stroke:none"
             id="path84" /></g><g
           id="g86"
           transform="translate(434.1786,66.3492)"><path
             d="M 0,0 V 7.156 C -1.044,7.071 -2.358,6.93 -3.942,6.788 -5.537,6.616 -6.809,6.383 -7.798,6.092 -8.964,5.748 -9.918,5.194 -10.685,4.467 c -0.767,-0.728 -1.15,-1.748 -1.15,-3.038 0,-1.474 0.423,-2.595 1.266,-3.332 0.842,-0.757 2.079,-1.142 3.685,-1.142 1.372,0 2.619,0.299 3.744,0.875 C -2.035,-1.585 -0.984,-0.843 0,0 M 0,-3.63 C -0.358,-3.893 -0.833,-4.265 -1.439,-4.74 -2.035,-5.215 -2.6,-5.597 -3.165,-5.87 -3.942,-6.259 -4.679,-6.587 -5.41,-6.799 c -0.718,-0.217 -1.711,-0.344 -3.029,-0.344 -1.065,0 -2.084,0.224 -3.044,0.626 -0.968,0.409 -1.806,0.975 -2.543,1.687 -0.707,0.712 -1.242,1.595 -1.666,2.644 -0.429,1.049 -0.636,2.141 -0.636,3.321 0,1.801 0.383,3.332 1.146,4.584 0.752,1.281 1.949,2.28 3.609,3.017 1.453,0.676 3.169,1.122 5.148,1.379 1.998,0.256 4.128,0.459 6.425,0.574 v 0.864 c 0,1.019 -0.156,1.858 -0.469,2.484 -0.313,0.644 -0.747,1.123 -1.298,1.474 -0.565,0.352 -1.246,0.585 -2.044,0.716 -0.817,0.111 -1.65,0.177 -2.498,0.177 -1.005,0 -2.196,-0.168 -3.569,-0.466 -1.357,-0.317 -2.741,-0.762 -4.088,-1.336 h -0.258 v 4.451 c 0.809,0.237 1.974,0.495 3.468,0.766 1.514,0.294 3.008,0.416 4.482,0.416 1.777,0 3.291,-0.122 4.512,-0.416 1.237,-0.271 2.343,-0.787 3.316,-1.512 C 2.493,17.604 3.21,16.661 3.68,15.54 4.143,14.41 4.386,13.031 4.386,11.39 V -6.426 H 0 Z"
             style="fill:#ab092f;fill-opacity:1;fill-rule:nonzero;stroke:none"
             id="path88" /></g><g
           id="g90"
           transform="translate(465.173,59.9228)"><path
             d="m 0,0 h -4.385 v 14.869 c 0,1.191 -0.047,2.312 -0.167,3.343 -0.117,1.04 -0.349,1.867 -0.666,2.493 -0.364,0.656 -0.849,1.151 -1.48,1.458 -0.63,0.319 -1.498,0.491 -2.599,0.491 -1.079,0 -2.195,-0.303 -3.351,-0.88 -1.156,-0.594 -2.291,-1.347 -3.371,-2.28 V 0 H -20.4 v 26.056 h 4.381 v -2.878 c 1.302,1.151 2.583,2.048 3.846,2.665 1.281,0.635 2.614,0.949 4.017,0.949 2.554,0 4.553,-0.85 6.001,-2.545 C -0.727,22.572 0,20.12 0,16.923 Z"
             style="fill:#ab092f;fill-opacity:1;fill-rule:nonzero;stroke:none"
             id="path92" /></g><g
           id="g94"
           transform="translate(481.6828,59.3441)"><path
             d="m 0,0 c -1.791,0 -3.417,0.267 -4.921,0.823 -1.494,0.554 -2.776,1.372 -3.846,2.498 -1.085,1.146 -1.928,2.547 -2.503,4.245 -0.586,1.695 -0.889,3.704 -0.889,6.005 0,2.297 0.308,4.266 0.929,5.925 0.605,1.657 1.418,3.069 2.463,4.2 1.02,1.13 2.301,2.009 3.836,2.62 1.534,0.621 3.189,0.924 4.931,0.924 1.439,0 2.821,-0.203 4.153,-0.606 C 5.476,26.25 6.657,25.771 7.697,25.23 V 20.339 H 7.445 C 7.131,20.597 6.738,20.9 6.243,21.232 5.748,21.575 5.154,21.899 4.452,22.263 3.836,22.565 3.124,22.828 2.286,23.06 c -0.828,0.231 -1.615,0.349 -2.376,0.349 -2.282,0 -4.114,-0.859 -5.492,-2.58 -1.383,-1.715 -2.08,-4.129 -2.08,-7.258 0,-3.069 0.672,-5.44 1.994,-7.167 1.353,-1.696 3.2,-2.575 5.578,-2.575 1.427,0 2.8,0.314 4.092,0.879 C 5.304,5.294 6.44,6.031 7.445,6.96 H 7.697 V 2.043 C 7.263,1.847 6.722,1.589 6.067,1.307 5.41,1.024 4.83,0.823 4.305,0.66 3.553,0.468 2.887,0.296 2.281,0.185 1.701,0.054 0.944,0 0,0"
             style="fill:#ab092f;fill-opacity:1;fill-rule:nonzero;stroke:none"
             id="path96" /></g><g
           id="g98"
           transform="translate(509.7297,75.8315)"><path
             d="M 0,0 C -0.02,1.207 -0.162,2.242 -0.414,3.119 -0.661,3.967 -1.03,4.715 -1.494,5.31 -2.008,5.961 -2.66,6.456 -3.472,6.82 -4.254,7.179 -5.259,7.339 -6.44,7.339 -7.606,7.339 -8.6,7.147 -9.418,6.804 -10.245,6.447 -10.982,5.947 -11.649,5.26 -12.304,4.573 -12.799,3.791 -13.143,2.963 -13.496,2.111 -13.698,1.141 -13.799,0 Z m -5.107,-16.487 c -4.135,0 -7.355,1.164 -9.631,3.506 -2.291,2.353 -3.432,5.653 -3.432,9.963 0,4.241 1.091,7.611 3.321,10.145 2.211,2.504 5.118,3.757 8.692,3.757 1.615,0 3.029,-0.229 4.285,-0.719 C -0.626,9.702 0.444,8.981 1.383,7.966 2.307,6.987 3.019,5.775 3.528,4.331 4.008,2.877 4.265,1.121 4.265,-0.968 V -3.35 h -18.064 c 0,-3.018 0.758,-5.321 2.281,-6.914 1.539,-1.596 3.655,-2.394 6.329,-2.394 0.964,0 1.924,0.122 2.847,0.339 0.929,0.201 1.756,0.49 2.514,0.811 0.777,0.38 1.443,0.719 2.018,1.04 0.526,0.335 0.98,0.651 1.338,0.941 h 0.258 v -4.777 c -0.52,-0.201 -1.151,-0.443 -1.908,-0.757 -0.757,-0.292 -1.438,-0.529 -2.04,-0.71 -0.868,-0.228 -1.644,-0.4 -2.331,-0.531 -0.682,-0.131 -1.554,-0.185 -2.614,-0.185"
             style="fill:#ab092f;fill-opacity:1;fill-rule:nonzero;stroke:none"
             id="path100" /></g><g
           id="g102"
           transform="translate(563.5222,59.9228)"><path
             d="m 0,0 h -4.627 v 29.905 l -9.02,-20.334 h -2.801 l -8.938,20.334 V 0 h -4.336 v 34.71 h 6.303 l 8.656,-19.314 8.359,19.314 H 0 Z"
             style="fill:#ab092f;fill-opacity:1;fill-rule:nonzero;stroke:none"
             id="path104" /></g><g
           id="g106"
           transform="translate(590.4502,59.9228)"><path
             d="M 0,0 H -4.376 V 2.909 C -5.723,1.736 -7.012,0.83 -8.216,0.224 c -1.203,-0.617 -2.55,-0.94 -4.033,-0.94 -1.126,0 -2.197,0.203 -3.192,0.576 -0.999,0.384 -1.871,0.97 -2.624,1.756 -0.737,0.819 -1.306,1.847 -1.725,3.07 -0.404,1.23 -0.612,2.724 -0.612,4.475 v 16.895 h 4.376 v -14.84 c 0,-1.392 0.045,-2.534 0.167,-3.452 0.086,-0.904 0.314,-1.706 0.681,-2.393 0.343,-0.656 0.822,-1.16 1.444,-1.478 0.606,-0.288 1.485,-0.45 2.636,-0.45 1.064,0 2.194,0.318 3.401,0.924 1.196,0.606 2.306,1.372 3.321,2.251 V 26.056 H 0 Z"
             style="fill:#ab092f;fill-opacity:1;fill-rule:nonzero;stroke:none"
             id="path108" /></g><g
           id="g110"
           transform="translate(604.6975,59.3441)"><path
             d="m 0,0 c -2.396,0 -4.259,0.68 -5.597,2.043 -1.347,1.352 -2.018,3.513 -2.018,6.46 v 14.485 h -2.927 v 3.646 h 2.927 v 7.505 h 4.38 V 26.634 H 4.871 V 22.988 H -3.235 V 10.554 c 0,-1.323 0.03,-2.353 0.07,-3.07 C -3.113,6.772 -2.936,6.112 -2.624,5.486 -2.362,4.93 -1.933,4.528 -1.331,4.243 -0.75,3.971 0.065,3.829 1.08,3.829 1.797,3.829 2.489,3.94 3.16,4.152 3.827,4.36 4.315,4.528 4.609,4.677 H 4.871 V 0.746 C 4.039,0.513 3.21,0.332 2.362,0.19 1.51,0.066 0.732,0 0,0"
             style="fill:#ab092f;fill-opacity:1;fill-rule:nonzero;stroke:none"
             id="path112" /></g><g
           id="g114"
           transform="translate(633.0427,59.9228)"><path
             d="M 0,0 H -4.396 V 2.909 C -5.732,1.736 -7.01,0.83 -8.226,0.224 c -1.198,-0.617 -2.545,-0.94 -4.043,-0.94 -1.126,0 -2.186,0.203 -3.181,0.576 -0.999,0.384 -1.883,0.97 -2.613,1.756 -0.757,0.819 -1.333,1.847 -1.736,3.07 -0.404,1.23 -0.621,2.724 -0.621,4.475 v 16.895 h 4.385 v -14.84 c 0,-1.392 0.052,-2.534 0.158,-3.452 0.095,-0.904 0.312,-1.706 0.68,-2.393 0.348,-0.656 0.832,-1.16 1.454,-1.478 0.61,-0.288 1.474,-0.45 2.624,-0.45 1.06,0 2.211,0.318 3.413,0.924 1.201,0.606 2.306,1.372 3.31,2.251 V 26.056 H 0 Z"
             style="fill:#ab092f;fill-opacity:1;fill-rule:nonzero;stroke:none"
             id="path116" /></g><g
           id="g118"
           transform="translate(655.746,75.8315)"><path
             d="M 0,0 C -0.02,1.207 -0.172,2.242 -0.421,3.119 -0.671,3.967 -1.02,4.715 -1.49,5.31 -2.005,5.961 -2.67,6.456 -3.468,6.82 -4.27,7.179 -5.249,7.339 -6.447,7.339 -7.611,7.339 -8.601,7.147 -9.419,6.804 -10.231,6.447 -10.974,5.947 -11.659,5.26 -12.315,4.573 -12.796,3.791 -13.144,2.963 -13.488,2.111 -13.714,1.141 -13.804,0 Z m -5.104,-16.487 c -4.139,0 -7.357,1.164 -9.634,3.506 -2.301,2.353 -3.442,5.653 -3.442,9.963 0,4.241 1.114,7.611 3.311,10.145 2.231,2.504 5.127,3.757 8.721,3.757 1.6,0 3.033,-0.229 4.274,-0.719 C -0.637,9.702 0.438,8.981 1.377,7.966 2.317,6.987 3.022,5.775 3.521,4.331 4.008,2.877 4.27,1.121 4.27,-0.968 V -3.35 h -18.074 c 0,-3.018 0.757,-5.321 2.301,-6.914 1.53,-1.596 3.623,-2.394 6.313,-2.394 0.97,0 1.919,0.122 2.853,0.339 0.917,0.201 1.745,0.49 2.513,0.811 0.787,0.38 1.449,0.719 1.989,1.04 0.561,0.335 0.999,0.651 1.356,0.941 h 0.254 v -4.777 c -0.511,-0.201 -1.151,-0.443 -1.903,-0.757 -0.758,-0.292 -1.438,-0.529 -2.044,-0.71 -0.848,-0.228 -1.63,-0.4 -2.312,-0.531 -0.701,-0.131 -1.56,-0.185 -2.62,-0.185"
             style="fill:#ab092f;fill-opacity:1;fill-rule:nonzero;stroke:none"
             id="path120" /></g><path
           d="m 668.994,59.923 h -4.385 v 36.27 h 4.385 z"
           style="fill:#ab092f;fill-opacity:1;fill-rule:nonzero;stroke:none"
           id="path122" /><path
           d="m 680.038,59.923 h -4.376 v 36.27 h 4.376 z"
           style="fill:#ab092f;fill-opacity:1;fill-rule:nonzero;stroke:none"
           id="path124" /><g
           id="g126"
           transform="translate(702.8209,75.8315)"><path
             d="M 0,0 C -0.016,1.207 -0.167,2.242 -0.414,3.119 -0.656,3.967 -1.015,4.715 -1.49,5.31 -2.003,5.961 -2.661,6.456 -3.459,6.82 -4.254,7.179 -5.249,7.339 -6.44,7.339 -7.602,7.339 -8.605,7.147 -9.403,6.804 -10.235,6.447 -10.972,5.947 -11.643,5.26 -12.301,4.573 -12.801,3.791 -13.149,2.963 -13.492,2.111 -13.709,1.141 -13.795,0 Z m -5.104,-16.487 c -4.143,0 -7.353,1.164 -9.638,3.506 -2.283,2.353 -3.423,5.653 -3.423,9.963 0,4.241 1.101,7.611 3.321,10.145 2.21,2.504 5.117,3.757 8.687,3.757 1.614,0 3.053,-0.229 4.294,-0.719 C -0.631,9.702 0.454,8.981 1.383,7.966 2.312,6.987 3.029,5.775 3.512,4.331 4.008,2.877 4.27,1.121 4.27,-0.968 V -3.35 h -18.065 c 0,-3.018 0.768,-5.321 2.287,-6.914 1.535,-1.596 3.639,-2.394 6.325,-2.394 0.974,0 1.917,0.122 2.837,0.339 0.929,0.201 1.765,0.49 2.522,0.811 0.787,0.38 1.465,0.719 1.989,1.04 0.565,0.335 0.999,0.651 1.372,0.941 H 3.79 v -4.777 c -0.519,-0.201 -1.155,-0.443 -1.907,-0.757 -0.769,-0.292 -1.449,-0.529 -2.05,-0.71 -0.848,-0.228 -1.63,-0.4 -2.311,-0.531 -0.691,-0.131 -1.566,-0.185 -2.626,-0.185"
             style="fill:#ab092f;fill-opacity:1;fill-rule:nonzero;stroke:none"
             id="path128" /></g><g
           id="g130"
           transform="translate(323.6197,13.0107)"><path
             d="m 0,0 v 17.003 c -1.242,0.576 -2.357,0.969 -3.328,1.186 -0.983,0.217 -2.039,0.319 -3.195,0.319 -2.565,0 -4.569,-0.94 -6.01,-2.837 -1.447,-1.919 -2.162,-4.663 -2.162,-8.248 0,-3.447 0.533,-6.107 1.663,-7.95 1.101,-1.81 2.88,-2.735 5.328,-2.735 1.33,0 2.636,0.283 3.944,0.864 C -2.423,-1.792 -1.173,-1.006 0,0 M 4.976,-7.163 H 0 v 2.988 c -0.782,-0.655 -1.464,-1.18 -2.014,-1.614 -0.565,-0.42 -1.232,-0.804 -1.988,-1.153 -0.71,-0.357 -1.439,-0.594 -2.198,-0.786 -0.757,-0.176 -1.631,-0.283 -2.638,-0.283 -1.597,0 -3.093,0.328 -4.459,0.999 -1.365,0.688 -2.531,1.657 -3.479,2.932 -0.965,1.318 -1.712,2.914 -2.247,4.831 -0.525,1.907 -0.782,4.118 -0.782,6.586 0,2.579 0.333,4.831 0.999,6.729 0.664,1.892 1.598,3.554 2.779,4.955 1.065,1.284 2.372,2.297 3.893,3.029 1.54,0.728 3.13,1.081 4.792,1.081 1.492,0 2.774,-0.152 3.872,-0.48 1.09,-0.334 2.256,-0.813 3.47,-1.51 v 12.79 h 4.976 z"
             style="fill:#ab092f;fill-opacity:1;fill-rule:nonzero;stroke:none"
             id="path132" /></g><g
           id="g134"
           transform="translate(356.2449,23.8471)"><path
             d="M 0,0 C -0.04,1.331 -0.197,2.513 -0.47,3.481 -0.757,4.462 -1.161,5.269 -1.686,5.936 -2.272,6.686 -3.019,7.258 -3.917,7.64 -4.826,8.024 -5.946,8.237 -7.278,8.237 -8.601,8.237 -9.726,8.024 -10.64,7.62 -11.579,7.238 -12.422,6.652 -13.173,5.888 -13.902,5.122 -14.478,4.258 -14.86,3.3 -15.251,2.362 -15.5,1.261 -15.591,0 Z m -5.78,-18.675 c -4.708,0 -8.372,1.331 -10.962,3.996 -2.605,2.651 -3.899,6.395 -3.899,11.266 0,4.794 1.255,8.612 3.775,11.458 2.514,2.837 5.828,4.249 9.891,4.249 1.837,0 3.452,-0.246 4.855,-0.786 C -0.707,11.001 0.535,10.154 1.585,9.035 2.645,7.902 3.457,6.521 4.017,4.901 4.583,3.275 4.855,1.286 4.855,-1.085 v -2.697 h -20.446 c 0,-3.426 0.858,-6.051 2.589,-7.836 1.722,-1.818 4.109,-2.717 7.162,-2.717 1.09,0 2.176,0.122 3.22,0.368 1.045,0.249 1.999,0.572 2.847,0.965 0.903,0.403 1.661,0.807 2.277,1.18 0.62,0.384 1.12,0.742 1.533,1.072 H 4.32 v -5.412 c -0.58,-0.253 -1.297,-0.536 -2.16,-0.868 -0.868,-0.343 -1.635,-0.626 -2.332,-0.818 -0.969,-0.262 -1.848,-0.463 -2.64,-0.615 -0.772,-0.131 -1.761,-0.212 -2.968,-0.212"
             style="fill:#ab092f;fill-opacity:1;fill-rule:nonzero;stroke:none"
             id="path136" /></g><g
           id="g138"
           transform="translate(376.0595,5.1718)"><path
             d="m 0,0 c -1.978,0 -3.82,0.283 -5.541,0.818 -1.716,0.513 -3.13,1.079 -4.245,1.696 v 5.542 h 0.257 C -9.12,7.722 -8.61,7.348 -8.035,6.955 -7.455,6.551 -6.702,6.121 -5.764,5.694 -4.926,5.289 -3.992,4.957 -2.997,4.663 -1.978,4.36 -0.938,4.22 0.151,4.22 c 0.788,0 1.631,0.091 2.53,0.283 0.898,0.172 1.549,0.402 1.998,0.691 0.616,0.398 1.065,0.848 1.328,1.307 0.272,0.434 0.403,1.121 0.403,2.018 0,1.203 -0.317,2.089 -0.949,2.681 -0.651,0.599 -1.766,1.094 -3.386,1.508 -0.631,0.151 -1.469,0.323 -2.473,0.531 -1.035,0.206 -1.984,0.43 -2.837,0.671 -2.241,0.656 -3.886,1.655 -4.91,3.013 -1.011,1.368 -1.525,3.014 -1.525,4.942 0,2.665 0.999,4.83 2.999,6.48 2.008,1.675 4.673,2.523 8.004,2.523 1.635,0 3.28,-0.21 4.936,-0.615 1.656,-0.405 3.044,-0.913 4.169,-1.524 V 23.42 h -0.267 c -1.267,0.999 -2.665,1.795 -4.225,2.371 -1.554,0.585 -3.124,0.868 -4.7,0.868 -1.629,0 -3.017,-0.343 -4.122,-1.028 -1.131,-0.683 -1.687,-1.707 -1.687,-3.079 0,-1.252 0.329,-2.161 0.99,-2.767 0.662,-0.617 1.736,-1.101 3.19,-1.478 0.747,-0.217 1.564,-0.389 2.462,-0.565 0.909,-0.188 1.869,-0.421 2.878,-0.651 2.176,-0.547 3.805,-1.465 4.915,-2.717 1.081,-1.277 1.636,-2.988 1.636,-5.167 0,-1.269 -0.242,-2.453 -0.758,-3.599 C 10.261,4.478 9.53,3.513 8.57,2.694 7.506,1.826 6.324,1.151 4.988,0.696 3.655,0.233 1.989,0 0,0"
             style="fill:#ab092f;fill-opacity:1;fill-rule:nonzero;stroke:none"
             id="path140" /></g><g
           id="g142"
           transform="translate(431.4582,21.2612)"><path
             d="M 0,0 -6.087,18.574 -12.134,0 Z m -22.395,-15.414 13.229,39.308 h 6.425 L 10.488,-15.414 H 4.982 L 1.443,-4.5 h -15.05 l -3.528,-10.914 z"
             style="fill:#ab092f;fill-opacity:1;fill-rule:nonzero;stroke:none"
             id="path144" /></g><g
           id="g146"
           transform="translate(469.887,5.8476)"><path
             d="M 0,0 H -4.971 V 3.235 C -6.495,1.908 -7.949,0.888 -9.316,0.197 c -1.384,-0.692 -2.913,-1.045 -4.593,-1.045 -1.273,0 -2.479,0.238 -3.629,0.636 -1.116,0.424 -2.115,1.1 -2.953,2.02 -0.848,0.907 -1.505,2.044 -1.964,3.456 -0.459,1.373 -0.706,3.063 -0.706,5.043 v 19.159 h 4.991 V 12.69 c 0,-1.567 0.051,-2.869 0.167,-3.913 0.117,-1.015 0.368,-1.912 0.782,-2.69 0.399,-0.757 0.95,-1.322 1.631,-1.654 0.701,-0.355 1.681,-0.531 2.997,-0.531 1.197,0 2.489,0.327 3.862,1.03 1.362,0.681 2.614,1.515 3.76,2.523 V 29.466 H 0 Z"
             style="fill:#ab092f;fill-opacity:1;fill-rule:nonzero;stroke:none"
             id="path148" /></g><g
           id="g150"
           transform="translate(487.936,5.2532)"><path
             d="M 0,0 C -2.706,0 -4.814,0.766 -6.329,2.281 -7.843,3.815 -8.601,6.257 -8.601,9.58 v 16.277 h -3.371 v 4.204 h 3.371 v 8.449 h 4.978 V 30.061 H 5.502 V 25.857 H -3.623 V 11.881 c 0,-1.504 0.025,-2.656 0.075,-3.463 0.056,-0.803 0.257,-1.544 0.611,-2.261 0.303,-0.617 0.787,-1.06 1.453,-1.379 0.667,-0.307 1.574,-0.449 2.71,-0.449 0.803,0 1.58,0.092 2.327,0.343 0.778,0.233 1.323,0.441 1.656,0.597 H 5.502 V 0.848 C 4.563,0.574 3.624,0.368 2.66,0.222 1.697,0.075 0.813,0 0,0"
             style="fill:#ab092f;fill-opacity:1;fill-rule:nonzero;stroke:none"
             id="path152" /></g><g
           id="g154"
           transform="translate(518.1541,20.581)"><path
             d="m 0,0 c 0,3.8 -0.702,6.627 -2.085,8.465 -1.393,1.872 -3.376,2.785 -5.961,2.785 -2.584,0 -4.587,-0.913 -5.981,-2.785 C -15.44,6.627 -16.136,3.8 -16.136,0 c 0,-3.709 0.696,-6.492 2.109,-8.404 1.394,-1.897 3.397,-2.857 5.981,-2.857 2.569,0 4.543,0.944 5.946,2.807 C -0.702,-6.587 0,-3.761 0,0 m 5.113,0 c 0,-4.971 -1.212,-8.818 -3.594,-11.512 -2.382,-2.717 -5.582,-4.069 -9.565,-4.069 -4.092,0 -7.313,1.404 -9.675,4.189 -2.352,2.807 -3.513,6.591 -3.513,11.392 0,4.912 1.196,8.736 3.624,11.483 2.422,2.735 5.612,4.077 9.564,4.077 3.983,0 7.183,-1.342 9.565,-4.057 C 3.901,8.772 5.113,4.937 5.113,0"
             style="fill:#ab092f;fill-opacity:1;fill-rule:nonzero;stroke:none"
             id="path156" /></g><path
           d="m 543.97,20.676 h -14.889 v 4.74 h 14.889 z"
           style="fill:#ab092f;fill-opacity:1;fill-rule:nonzero;stroke:none"
           id="path158" /><g
           id="g160"
           transform="translate(552.1863,5.8476)"><path
             d="M 0,0 V 39.308 H 24.665 V 34.679 H 5.231 V 23.888 H 23.343 V 19.261 H 5.231 V 4.614 H 24.665 V 0 Z"
             style="fill:#ab092f;fill-opacity:1;fill-rule:nonzero;stroke:none"
             id="path162" /></g><g
           id="g164"
           transform="translate(595.7758,5.1718)"><path
             d="m 0,0 c -2.025,0 -3.884,0.332 -5.583,0.958 -1.707,0.627 -3.169,1.565 -4.381,2.828 -1.223,1.271 -2.17,2.871 -2.837,4.804 -0.662,1.907 -1.015,4.19 -1.015,6.803 0,2.584 0.369,4.81 1.051,6.693 0.717,1.879 1.63,3.468 2.801,4.774 1.176,1.284 2.625,2.263 4.376,2.964 1.732,0.691 3.587,1.044 5.588,1.044 1.634,0 3.214,-0.242 4.717,-0.685 1.526,-0.461 2.857,-0.99 4.044,-1.587 V 22.995 H 8.467 c -0.361,0.323 -0.811,0.635 -1.376,1.031 -0.552,0.393 -1.232,0.786 -2.034,1.2 -0.697,0.344 -1.511,0.651 -2.46,0.918 -0.918,0.253 -1.831,0.404 -2.694,0.404 -2.6,0 -4.679,-0.994 -6.252,-2.932 -1.571,-1.934 -2.363,-4.678 -2.363,-8.223 0,-3.492 0.767,-6.198 2.286,-8.126 1.519,-1.978 3.614,-2.927 6.329,-2.927 1.625,0 3.176,0.323 4.658,1.01 1.465,0.676 2.76,1.524 3.906,2.575 H 8.761 V 2.333 C 8.275,2.109 7.645,1.826 6.898,1.514 6.157,1.18 5.495,0.938 4.894,0.766 4.042,0.536 3.28,0.348 2.597,0.212 1.942,0.081 1.064,0 0,0"
             style="fill:#ab092f;fill-opacity:1;fill-rule:nonzero;stroke:none"
             id="path166" /></g><g
           id="g168"
           transform="translate(630.0703,20.581)"><path
             d="m 0,0 c 0,3.8 -0.692,6.627 -2.089,8.465 -1.399,1.872 -3.388,2.785 -5.96,2.785 -2.595,0 -4.584,-0.913 -5.992,-2.785 C -15.445,6.627 -16.137,3.8 -16.137,0 c 0,-3.709 0.692,-6.492 2.096,-8.404 1.408,-1.897 3.397,-2.857 5.992,-2.857 2.563,0 4.541,0.944 5.945,2.807 C -0.708,-6.587 0,-3.761 0,0 m 5.097,0 c 0,-4.971 -1.191,-8.818 -3.578,-11.512 -2.398,-2.717 -5.576,-4.069 -9.568,-4.069 -4.094,0 -7.324,1.404 -9.672,4.189 -2.351,2.807 -3.518,6.591 -3.518,11.392 0,4.912 1.208,8.736 3.628,11.483 2.419,2.735 5.599,4.077 9.562,4.077 3.992,0 7.17,-1.342 9.568,-4.057 C 3.906,8.772 5.097,4.937 5.097,0"
             style="fill:#ab092f;fill-opacity:1;fill-rule:nonzero;stroke:none"
             id="path170" /></g><path
           d="m 647.292,5.848 h -4.977 v 41.094 h 4.977 z"
           style="fill:#ab092f;fill-opacity:1;fill-rule:nonzero;stroke:none"
           id="path172" /><g
           id="g174"
           transform="translate(674.9955,23.8471)"><path
             d="M 0,0 C -0.041,1.331 -0.201,2.513 -0.484,3.481 -0.757,4.462 -1.175,5.269 -1.7,5.936 -2.267,6.686 -3.013,7.258 -3.931,7.64 -4.826,8.024 -5.961,8.237 -7.308,8.237 -8.605,8.237 -9.736,8.024 -10.66,7.62 -11.582,7.238 -12.416,6.652 -13.174,5.888 -13.91,5.122 -14.48,4.258 -14.869,3.3 -15.258,2.362 -15.495,1.261 -15.61,0 Z m -5.78,-18.675 c -4.717,0 -8.368,1.331 -10.961,3.996 -2.606,2.651 -3.912,6.395 -3.912,11.266 0,4.794 1.261,8.612 3.775,11.458 2.534,2.837 5.816,4.249 9.893,4.249 1.836,0 3.443,-0.246 4.865,-0.786 C -0.712,11.001 0.524,10.154 1.589,9.035 2.629,7.902 3.443,6.521 4.012,4.901 4.557,3.275 4.86,1.286 4.86,-1.085 v -2.697 h -20.47 c 0,-3.426 0.877,-6.051 2.592,-7.836 1.732,-1.818 4.114,-2.717 7.179,-2.717 1.079,0 2.159,0.122 3.203,0.368 1.051,0.249 2.005,0.572 2.853,0.965 0.893,0.403 1.655,0.807 2.26,1.18 0.626,0.384 1.137,0.742 1.556,1.072 h 0.278 v -5.412 c -0.577,-0.253 -1.298,-0.536 -2.166,-0.868 -0.863,-0.343 -1.645,-0.626 -2.321,-0.818 -0.979,-0.262 -1.854,-0.463 -2.636,-0.615 -0.787,-0.131 -1.756,-0.212 -2.968,-0.212"
             style="fill:#ab092f;fill-opacity:1;fill-rule:nonzero;stroke:none"
             id="path176" /></g><g
           id="g178"
           transform="translate(694.8009,5.1718)"><path
             d="m 0,0 c -1.964,0 -3.815,0.283 -5.527,0.818 -1.731,0.513 -3.139,1.079 -4.26,1.696 v 5.542 h 0.269 C -9.105,7.722 -8.61,7.348 -8.036,6.955 -7.475,6.551 -6.709,6.121 -5.76,5.694 -4.925,5.289 -3.992,4.957 -2.993,4.663 -1.969,4.36 -0.929,4.22 0.156,4.22 c 0.782,0 1.63,0.091 2.525,0.283 0.893,0.172 1.559,0.402 1.993,0.691 0.615,0.398 1.058,0.848 1.332,1.307 0.282,0.434 0.409,1.121 0.409,2.018 0,1.203 -0.323,2.089 -0.954,2.681 -0.646,0.599 -1.768,1.094 -3.386,1.508 -0.633,0.151 -1.46,0.323 -2.493,0.531 -1.015,0.206 -1.955,0.43 -2.812,0.671 -2.267,0.656 -3.877,1.655 -4.912,3.013 -1.015,1.368 -1.528,3.014 -1.528,4.942 0,2.665 0.999,4.83 3.013,6.48 2.007,1.675 4.679,2.523 7.995,2.523 1.63,0 3.28,-0.21 4.93,-0.615 1.657,-0.405 3.038,-0.913 4.164,-1.524 V 23.42 h -0.247 c -1.272,0.999 -2.676,1.795 -4.229,2.371 -1.546,0.585 -3.131,0.868 -4.711,0.868 -1.629,0 -3.001,-0.343 -4.123,-1.028 -1.114,-0.683 -1.679,-1.707 -1.679,-3.079 0,-1.252 0.312,-2.161 0.992,-2.767 0.654,-0.617 1.723,-1.101 3.181,-1.478 0.732,-0.217 1.564,-0.389 2.463,-0.565 0.914,-0.188 1.863,-0.421 2.867,-0.651 2.181,-0.547 3.826,-1.465 4.925,-2.717 1.096,-1.277 1.657,-2.988 1.657,-5.167 0,-1.269 -0.262,-2.453 -0.762,-3.599 C 10.267,4.478 9.539,3.513 8.569,2.694 7.516,1.826 6.313,1.151 4.982,0.696 3.66,0.233 2.003,0 0,0"
             style="fill:#ab092f;fill-opacity:1;fill-rule:nonzero;stroke:none"
             id="path180" /></g><g
           id="g182"
           transform="translate(372.1638,250.8848)"><path
             d="m 0,0 c -1.928,0.606 -47.429,14.844 -64.236,-4.094 -8.691,-9.791 -7.964,-25.932 2.095,-48.034 1.623,-4.043 2.364,-9.735 0.833,-11.088 -1.318,-1.151 -7.089,-1.111 -20.389,6.359 l -1.996,-3.548 -1.996,-3.554 c 14.937,-8.382 24.397,-10.094 29.763,-5.365 6.682,5.885 2.232,18.029 1.264,20.422 -8.693,19.038 -9.827,32.251 -3.494,39.393 11.045,12.441 43.943,5.497 55.683,1.741 l 1.237,3.881 z"
             style="fill:#ab092f;fill-opacity:1;fill-rule:nonzero;stroke:none"
             id="path184" /></g><g
           id="g186"
           transform="translate(277.761,151.4492)"><path
             d="m 0,0 c 2.17,-0.222 53.298,-4.895 68.561,17.13 6.057,8.742 5.733,20.078 -0.96,33.726 -0.059,0.131 -0.125,0.247 -0.201,0.363 -1.535,2.504 -3.101,7.026 -1.862,8.636 0.327,0.45 3.739,4.059 22.808,-1.459 l 1.13,3.907 1.111,3.907 C 73.537,71.151 63.516,70.687 59.032,64.776 53.879,57.943 59.804,48.024 60.496,46.909 60.43,47.021 60.355,47.141 60.304,47.272 65.599,36.496 66.123,27.917 61.878,21.774 51.459,6.734 14.245,6.809 0.782,8.096 L 0.391,4.048 Z"
             style="fill:#ab092f;fill-opacity:1;fill-rule:nonzero;stroke:none"
             id="path188" /></g><g
           id="g190"
           transform="translate(345.655,130.6254)"><path
             d="m 0,0 c -103.401,-56.08 -209.216,-61.03 -236.342,-11.004 -1.348,2.51 -2.488,5.089 -3.394,7.743 h 12.865 c 0,0 55.219,-76.121 221.635,3.755 z"
             style="fill:#ab092f;fill-opacity:1;fill-rule:nonzero;stroke:none"
             id="path192" /></g><g
           id="g194"
           transform="translate(339.7374,132.5421)"><path
             d="m 0,0 c -163.138,-78.311 -219.134,-4.996 -219.689,-4.26 l -0.467,0.637 h -0.798 -12.865 -2.18 l 0.699,-2.059 c 0.881,-2.635 2.079,-5.331 3.485,-7.985 7.697,-14.173 21.443,-24.287 40.875,-30.042 49.086,-14.566 124.794,0.909 197.605,40.429 l 4.513,2.422 -5.109,0.495 -5.244,0.495 -0.434,0.05 z m 5.166,-0.555 c -71.011,-38.504 -147.626,-54.298 -195.218,-40.166 -18.604,5.522 -31.719,15.122 -39.007,28.538 -1.333,2.509 -2.433,5.017 -3.281,7.52 l -1.479,-2.069 h 12.865 l -1.267,0.636 c 0.583,-0.798 14.529,-19.583 49.281,-28.669 31.829,-8.318 87.905,-9.534 174.295,31.94 L 0.534,-2.977 5.766,-3.492 Z"
             style="fill:#ab092f;fill-opacity:1;fill-rule:nonzero;stroke:none"
             id="path196" /></g><g
           id="g198"
           transform="translate(194.1052,282.1323)"><path
             d="m 0,0 c 16.129,12.133 33.986,24.195 53.315,34.704 103.393,56.084 209.223,61.005 236.342,10.983 9.16,-16.899 8.182,-37.88 -1.105,-60.431 h -8.49 c 0,0 32.343,85.853 -70.812,91.092 0,0 -86.709,8.429 -201.227,-76.348 z"
             style="fill:#ab092f;fill-opacity:1;fill-rule:nonzero;stroke:none"
             id="path200" /></g><g
           id="g202"
           transform="translate(203.052,280.8699)"><path
             d="m 0,0 c 112.646,83.395 199.289,76.147 200.151,76.052 32.056,-1.631 54.056,-11.221 65.408,-28.538 16.832,-25.7 4.213,-60.102 4.092,-60.435 l -0.806,-2.12 h 2.27 8.49 1.05 l 0.399,0.969 c 9.75,23.682 10.118,45.052 1.034,61.758 C 254.591,98.396 147.611,93.747 43.628,37.339 26.104,27.84 8.603,16.434 -9.895,2.509 l -3.725,-2.822 h 4.673 8.023 0.515 z m -8.005,0.01 c 18.364,13.835 35.747,25.145 53.117,34.578 102.483,55.58 207.546,60.799 234.225,11.614 8.616,-15.863 8.207,-36.305 -1.181,-59.093 l 1.449,0.98 h -8.49 l 1.453,-2.11 c 0.546,1.453 13.321,36.209 -4.395,63.241 -11.917,18.196 -34.73,28.28 -67.789,29.976 -0.808,0.076 -88.563,7.49 -202.224,-76.687 l 0.916,0.307 h -8.023 z"
             style="fill:#ab092f;fill-opacity:1;fill-rule:nonzero;stroke:none"
             id="path204" /></g></g></g></g></svg>
