<?xml version="1.0" encoding="UTF-8"?><svg id="Calque_1" xmlns="http://www.w3.org/2000/svg" viewBox="0 0 497.87 471.71"><defs><style>.cls-1,.cls-2,.cls-3{fill:#fff;}.cls-4{opacity:.5;}.cls-2,.cls-5,.cls-6,.cls-7{stroke:#263238;stroke-linecap:round;stroke-linejoin:round;}.cls-5,.cls-8{fill:#004785;}.cls-3{isolation:isolate;opacity:.7;}.cls-6{fill:none;}.cls-7,.cls-9{fill:#263238;}</style></defs><g id="freepik--background-simple--inject-220"><path class="cls-8" d="m473.1,195.73c-3.61-19.14-8.24-38.07-13.88-56.71-16.92-53.96-50.55-108.56-108.34-126.92-42.64-13.55-88.7-4.13-124.76,23.43-56.51,43.26-97.68,102.29-159.54,139.78C14.92,206.59-12.12,257.15,5.26,328.61c17.38,71.46,75.36,113.13,138.82,108,52.77-4.26,107.93.29,153.55,25.91,40.75,22.88,112.79,3.02,172.38-59.54,34.7-36.44,31.35-82.76,20.04-126.09-6.97-26.68-11.52-54.04-16.94-81.16Z"/><path class="cls-3" d="m473.1,195.73c-3.61-19.14-8.24-38.07-13.88-56.71-16.92-53.96-50.55-108.56-108.34-126.92-42.64-13.55-88.7-4.13-124.76,23.43-56.51,43.26-97.68,102.29-159.54,139.78C14.92,206.59-12.12,257.15,5.26,328.61c17.38,71.46,75.36,113.13,138.82,108,52.77-4.26,107.93.29,153.55,25.91,40.75,22.88,112.79,3.02,172.38-59.54,34.7-36.44,31.35-82.76,20.04-126.09-6.97-26.68-11.52-54.04-16.94-81.16Z"/></g><g id="freepik--Plants--inject-220"><path class="cls-8" d="m101.6,26.99s6.45-5.09,8.09-8.35c1.38-2.76,2.43-6.71.98-9.65-1.23-2.79-4.49-4.05-7.27-2.82-.2.09-.39.18-.57.29-3.97,2.47-4.4,10.89-3.38,14.94.08.32,2.08,5.64,2.15,5.58Z"/><path class="cls-8" d="m41.99,69.41c.26.25,4.87,3.57,4.89,3.5s2.56-7.8,2.14-11.44c-.36-3.1-1.68-6.89-4.52-8.61-2.57-1.64-5.97-.89-7.61,1.68-.11.18-.22.36-.31.56-1.96,4.24,2.34,11.49,5.42,14.32Z"/><path class="cls-8" d="m177.07,34.71s-23.6,24.37-23.43,54.29c.17,29.92,23.94,54.08,23.94,54.08,0,0,23.61-24.35,23.43-54.29-.18-29.94-23.94-54.08-23.94-54.08Z"/><path class="cls-8" d="m143.43,106.91c.31-.33.6-.69.85-1.06,1.71-2.6,3.18-6.39,2.08-9.51-.9-2.91-3.99-4.53-6.9-3.63-.2.06-.4.14-.6.22-3.21,1.52-4.78,6.66-5.11,10.86-1.28-.29-2.44-.51-3.43-.69-.41-.95-.84-1.9-1.28-2.87s-.79-2-1.2-3.02c-.57-1.49-1.06-3.06-1.57-4.63,1.86-.83,7.29-3.38,9.32-5.61s4.13-5.84,3.5-9.08c-.46-3.01-3.27-5.08-6.28-4.62-.21.03-.41.07-.61.13-4.49,1.38-7.13,9.34-7.21,13.52,0,.12,0,1.01.15,2.07-.44-1.54-.91-3.09-1.31-4.67-1.16-4.48-2.19-9.08-3.24-13.69-.22-.95-.45-1.92-.68-2.87,1.57-.7,7.48-3.4,9.65-5.75s4.13-5.84,3.5-9.08c-.46-3.01-3.27-5.08-6.28-4.62-.21.03-.41.07-.61.13-4.48,1.38-7.11,9.34-7.21,13.52,0,.14.08,1.2.19,2.38-.61-2.49-1.24-4.98-1.96-7.41-1.19-4.2-2.66-8.31-4.41-12.31.57-.23,7.57-3.27,9.92-5.87,2.08-2.32,4.13-5.84,3.49-9.08-.46-3.01-3.27-5.08-6.28-4.62-.21.03-.41.07-.61.13-4.48,1.38-7.11,9.34-7.21,13.52,0,.29.34,4.13.51,5.51,0-.05,0-.09,0-.14-1.81-3.88-3.96-7.59-6.42-11.09-2.19-3.14-4.56-6.15-7.1-9.01-2.33-2.76-4.62-4.99-6.66-7.02-1.12-1.09-2.16-2.07-3.14-2.96h.1c.08,0-2.18-5.21-2.36-5.51-2.09-3.61-8.27-9.36-12.83-8.37-2.97.66-4.85,3.6-4.2,6.57.05.21.1.41.17.61,1.02,3.14,4.49,5.25,7.43,6.27s9.65.54,11.26.39c.99.96,2.05,2,3.2,3.16,2,2.07,4.23,4.42,6.49,7.14.61.73,1.23,1.53,1.83,2.3-1.3-1.09-3.11-2.54-3.31-2.66-3.51-2.23-11.65-4.49-15.23-1.52-2.31,1.99-2.57,5.47-.58,7.77.15.17.31.34.48.49,2.34,2.32,6.41,2.59,9.5,2.14s8.96-4.13,10.21-4.87c1.38,1.71,2.66,3.51,3.94,5.51,2.36,3.49,4.4,7.18,6.11,11.03.1.22.17.47.26.69-.55-.65-3.83-3.96-4.13-4.13-3.25-2.62-11.03-5.75-14.98-3.18-2.5,1.74-3.12,5.17-1.38,7.67.12.17.25.34.39.5,2.08,2.56,6.08,3.28,9.19,3.17,3.6-.12,10.67-3.69,10.93-3.83,1.59,3.91,2.92,7.91,4,11.99.8,3.02,1.5,6.11,2.16,9.21-.73-.83-3.79-3.9-4.04-4.13-3.25-2.6-11.03-5.75-14.98-3.17-2.5,1.74-3.12,5.17-1.38,7.67.12.17.25.34.39.5,2.08,2.55,6.08,3.28,9.19,3.17,3.51-.14,10.31-3.53,10.87-3.82l.91,4.24c.95,4.62,1.89,9.25,2.95,13.78.37,1.57.79,3.11,1.2,4.66-1.14-1.2-3.27-3.34-3.47-3.5-3.25-2.6-11.03-5.75-14.98-3.17-2.5,1.74-3.12,5.17-1.38,7.67.12.17.25.34.39.5,2.08,2.55,6.08,3.28,9.19,3.16s8.9-2.84,10.53-3.62c.7,2.56,1.46,5.09,2.33,7.54.4,1.05.73,2.15,1.17,3.13l.66,1.57-.81-.12s-.07,1.46.07,3.83c-3.43-2.44-8.38-4.55-11.6-3.07-2.73,1.34-3.87,4.64-2.53,7.38.09.19.2.37.31.55.2.36.44.69.72.99.61,3.62,2.14,7.03,4.44,9.9.18.19,2.51,2.36,3.72,3.43-1.17-.65-2.34-1.27-3.56-1.96-1.75-.96-3.57-2.05-5.35-3.1l-2.76-1.74c-.94-.57-1.76-1.23-2.66-1.85-1.3-.92-2.59-1.96-3.87-2.98,1.09-1.74,4.22-6.89,4.67-9.84s.21-7.14-2.09-9.5c-2.01-2.28-5.5-2.5-7.78-.49-.17.15-.34.32-.49.49-3,3.58-.79,11.71,1.45,15.24,0,.12.62.81,1.27,1.64-1.23-1.03-2.45-2.07-3.67-3.17-3.43-3.1-6.89-6.37-10.25-9.65l-2.15-2.03c.94-1.45,4.37-6.96,4.85-10.09s.21-7.14-2.09-9.51c-2.01-2.28-5.5-2.5-7.78-.49-.17.15-.34.32-.49.49-3,3.58-.79,11.71,1.38,15.26.08.12.74.95,1.49,1.87-1.89-1.74-3.79-3.46-5.73-5.1-3.31-2.84-6.8-5.46-10.46-7.83.34-.51,4.51-6.89,5.03-10.36.47-3.09.21-7.14-2.09-9.51-2.01-2.28-5.5-2.5-7.78-.49-.17.15-.34.32-.49.49-3,3.58-.79,11.71,1.38,15.26.15.25,2.55,3.24,3.43,4.27l-.12-.08c-3.65-2.25-7.49-4.16-11.48-5.72-3.56-1.41-7.19-2.61-10.89-3.6-3.42-.95-6.6-1.61-9.43-2.18-1.53-.29-2.94-.54-4.24-.74h0s-4.7-3.16-5.02-3.31c-3.73-1.86-12.06-3.25-15.31.1-2.1,2.21-2.01,5.7.2,7.79.18.17.37.33.57.48,2.58,2.05,6.64,1.9,9.65,1.12s8.27-4.85,9.65-5.87c1.38.25,2.76.52,4.41.85,2.76.63,5.97,1.38,9.34,2.38.91.26,1.86.59,2.76.9-1.68-.18-4-.39-4.22-.39-4.13.07-12.2,2.67-13.55,7.14-.8,2.94.94,5.97,3.88,6.77.19.05.39.09.59.13,3.24.63,6.77-1.38,9.1-3.45s5.24-8.35,5.83-9.65c2.07.7,4.13,1.46,6.31,2.38,3.91,1.63,7.66,3.6,11.22,5.9.19.12.4.29.59.43-.81-.23-5.38-1.19-5.71-1.21-4.13-.39-12.4,1.38-14.25,5.61-1.13,2.83.24,6.04,3.07,7.17.2.08.41.15.61.21,3.16.98,6.89-.62,9.43-2.44,2.92-2.09,6.89-8.97,6.99-9.23,3.48,2.39,6.8,4.99,9.95,7.8,2.33,2.07,4.62,4.27,6.89,6.49-1.08-.28-5.32-1.17-5.64-1.2-4.13-.39-12.4,1.38-14.25,5.62-1.13,2.83.25,6.03,3.08,7.16.19.08.39.14.6.2,3.16.98,6.89-.62,9.43-2.44,2.85-2.04,6.64-8.61,6.96-9.17,1.03,1.01,2.07,2.01,3.09,3.03,3.35,3.34,6.68,6.68,10.09,9.88,1.17,1.12,2.37,2.16,3.57,3.23-1.61-.37-4.56-.98-4.82-1.01-4.13-.39-12.4,1.38-14.25,5.62-1.13,2.83.25,6.03,3.08,7.16.19.08.39.14.6.2,3.14.99,6.89-.62,9.41-2.43s5.86-7.29,6.77-8.83c2.01,1.74,4.04,3.43,6.12,5,.91.65,1.79,1.38,2.76,1.96l2.69,1.79c1.87,1.17,3.61,2.25,5.39,3.28.88.54,1.74,1.02,2.62,1.52-1.58-.62-4.13-1.54-4.34-1.61-4.05-1.01-12.47-.58-14.94,3.39-1.55,2.62-.67,6,1.95,7.55.18.11.38.21.57.29,2.96,1.45,6.89.43,9.65-.98,3.07-1.56,7.69-7.26,8.27-7.97,2.15,1.23,4.24,2.38,6.23,3.45,5.29,2.84,9.92,5.1,13.51,6.78,11.66,10.09,28.06,11.19,28.06,11.19,0,0,.87-19.65-10.7-32.58-3.95-4.26-8.77-7.63-14.13-9.88Zm-20.81,19.17c.36-.81,3.16-7.06,3.35-10.57l1.93-.4c1.18,6.21,3.65,12.1,7.24,17.3-2.12-1-4.42-2.12-6.89-3.36-1.78-.92-3.68-1.92-5.62-2.96h0Z"/><path class="cls-8" d="m229.4,103.16s-19.67.59-31.7,13.11-11.88,32.17-11.88,32.17c0,0,19.65-.61,31.7-13.11,12.05-12.5,11.88-32.17,11.88-32.17Z"/><g class="cls-4"><path class="cls-1" d="m101.6,26.99s6.45-5.09,8.09-8.35c1.38-2.76,2.43-6.71.98-9.65-1.23-2.79-4.49-4.05-7.27-2.82-.2.09-.39.18-.57.29-3.97,2.47-4.4,10.89-3.38,14.94.08.32,2.08,5.64,2.15,5.58Z"/><path class="cls-1" d="m41.99,69.41c.26.25,4.87,3.57,4.89,3.5s2.56-7.8,2.14-11.44c-.36-3.1-1.68-6.89-4.52-8.61-2.57-1.64-5.97-.89-7.61,1.68-.11.18-.22.36-.31.56-1.96,4.24,2.34,11.49,5.42,14.32Z"/><path class="cls-1" d="m177.07,34.71s-23.6,24.37-23.43,54.29c.17,29.92,23.94,54.08,23.94,54.08,0,0,23.61-24.35,23.43-54.29-.18-29.94-23.94-54.08-23.94-54.08Z"/><path class="cls-1" d="m143.43,106.91c.31-.33.6-.69.85-1.06,1.71-2.6,3.18-6.39,2.08-9.51-.9-2.91-3.99-4.53-6.9-3.63-.2.06-.4.14-.6.22-3.21,1.52-4.78,6.66-5.11,10.86-1.28-.29-2.44-.51-3.43-.69-.41-.95-.84-1.9-1.28-2.87s-.79-2-1.2-3.02c-.57-1.49-1.06-3.06-1.57-4.63,1.86-.83,7.29-3.38,9.32-5.61s4.13-5.84,3.5-9.08c-.46-3.01-3.27-5.08-6.28-4.62-.21.03-.41.07-.61.13-4.49,1.38-7.13,9.34-7.21,13.52,0,.12,0,1.01.15,2.07-.44-1.54-.91-3.09-1.31-4.67-1.16-4.48-2.19-9.08-3.24-13.69-.22-.95-.45-1.92-.68-2.87,1.57-.7,7.48-3.4,9.65-5.75s4.13-5.84,3.5-9.08c-.46-3.01-3.27-5.08-6.28-4.62-.21.03-.41.07-.61.13-4.48,1.38-7.11,9.34-7.21,13.52,0,.14.08,1.2.19,2.38-.61-2.49-1.24-4.98-1.96-7.41-1.19-4.2-2.66-8.31-4.41-12.31.57-.23,7.57-3.27,9.92-5.87,2.08-2.32,4.13-5.84,3.49-9.08-.46-3.01-3.27-5.08-6.28-4.62-.21.03-.41.07-.61.13-4.48,1.38-7.11,9.34-7.21,13.52,0,.29.34,4.13.51,5.51,0-.05,0-.09,0-.14-1.81-3.88-3.96-7.59-6.42-11.09-2.19-3.14-4.56-6.15-7.1-9.01-2.33-2.76-4.62-4.99-6.66-7.02-1.12-1.09-2.16-2.07-3.14-2.96h.1c.08,0-2.18-5.21-2.36-5.51-2.09-3.61-8.27-9.36-12.83-8.37-2.97.66-4.85,3.6-4.2,6.57.05.21.1.41.17.61,1.02,3.14,4.49,5.25,7.43,6.27s9.65.54,11.26.39c.99.96,2.05,2,3.2,3.16,2,2.07,4.23,4.42,6.49,7.14.61.73,1.23,1.53,1.83,2.3-1.3-1.09-3.11-2.54-3.31-2.66-3.51-2.23-11.65-4.49-15.23-1.52-2.31,1.99-2.57,5.47-.58,7.77.15.17.31.34.48.49,2.34,2.32,6.41,2.59,9.5,2.14s8.96-4.13,10.21-4.87c1.38,1.71,2.66,3.51,3.94,5.51,2.36,3.49,4.4,7.18,6.11,11.03.1.22.17.47.26.69-.55-.65-3.83-3.96-4.13-4.13-3.25-2.62-11.03-5.75-14.98-3.18-2.5,1.74-3.12,5.17-1.38,7.67.12.17.25.34.39.5,2.08,2.56,6.08,3.28,9.19,3.17,3.6-.12,10.67-3.69,10.93-3.83,1.59,3.91,2.92,7.91,4,11.99.8,3.02,1.5,6.11,2.16,9.21-.73-.83-3.79-3.9-4.04-4.13-3.25-2.6-11.03-5.75-14.98-3.17-2.5,1.74-3.12,5.17-1.38,7.67.12.17.25.34.39.5,2.08,2.55,6.08,3.28,9.19,3.17,3.51-.14,10.31-3.53,10.87-3.82l.91,4.24c.95,4.62,1.89,9.25,2.95,13.78.37,1.57.79,3.11,1.2,4.66-1.14-1.2-3.27-3.34-3.47-3.5-3.25-2.6-11.03-5.75-14.98-3.17-2.5,1.74-3.12,5.17-1.38,7.67.12.17.25.34.39.5,2.08,2.55,6.08,3.28,9.19,3.16s8.9-2.84,10.53-3.62c.7,2.56,1.46,5.09,2.33,7.54.4,1.05.73,2.15,1.17,3.13l.66,1.57-.81-.12s-.07,1.46.07,3.83c-3.43-2.44-8.38-4.55-11.6-3.07-2.73,1.34-3.87,4.64-2.53,7.38.09.19.2.37.31.55.2.36.44.69.72.99.61,3.62,2.14,7.03,4.44,9.9.18.19,2.51,2.36,3.72,3.43-1.17-.65-2.34-1.27-3.56-1.96-1.75-.96-3.57-2.05-5.35-3.1l-2.76-1.74c-.94-.57-1.76-1.23-2.66-1.85-1.3-.92-2.59-1.96-3.87-2.98,1.09-1.74,4.22-6.89,4.67-9.84s.21-7.14-2.09-9.5c-2.01-2.28-5.5-2.5-7.78-.49-.17.15-.34.32-.49.49-3,3.58-.79,11.71,1.45,15.24,0,.12.62.81,1.27,1.64-1.23-1.03-2.45-2.07-3.67-3.17-3.43-3.1-6.89-6.37-10.25-9.65l-2.15-2.03c.94-1.45,4.37-6.96,4.85-10.09s.21-7.14-2.09-9.51c-2.01-2.28-5.5-2.5-7.78-.49-.17.15-.34.32-.49.49-3,3.58-.79,11.71,1.38,15.26.08.12.74.95,1.49,1.87-1.89-1.74-3.79-3.46-5.73-5.1-3.31-2.84-6.8-5.46-10.46-7.83.34-.51,4.51-6.89,5.03-10.36.47-3.09.21-7.14-2.09-9.51-2.01-2.28-5.5-2.5-7.78-.49-.17.15-.34.32-.49.49-3,3.58-.79,11.71,1.38,15.26.15.25,2.55,3.24,3.43,4.27l-.12-.08c-3.65-2.25-7.49-4.16-11.48-5.72-3.56-1.41-7.19-2.61-10.89-3.6-3.42-.95-6.6-1.61-9.43-2.18-1.53-.29-2.94-.54-4.24-.74h0s-4.7-3.16-5.02-3.31c-3.73-1.86-12.06-3.25-15.31.1-2.1,2.21-2.01,5.7.2,7.79.18.17.37.33.57.48,2.58,2.05,6.64,1.9,9.65,1.12s8.27-4.85,9.65-5.87c1.38.25,2.76.52,4.41.85,2.76.63,5.97,1.38,9.34,2.38.91.26,1.86.59,2.76.9-1.68-.18-4-.39-4.22-.39-4.13.07-12.2,2.67-13.55,7.14-.8,2.94.94,5.97,3.88,6.77.19.05.39.09.59.13,3.24.63,6.77-1.38,9.1-3.45s5.24-8.35,5.83-9.65c2.07.7,4.13,1.46,6.31,2.38,3.91,1.63,7.66,3.6,11.22,5.9.19.12.4.29.59.43-.81-.23-5.38-1.19-5.71-1.21-4.13-.39-12.4,1.38-14.25,5.61-1.13,2.83.24,6.04,3.07,7.17.2.08.41.15.61.21,3.16.98,6.89-.62,9.43-2.44,2.92-2.09,6.89-8.97,6.99-9.23,3.48,2.39,6.8,4.99,9.95,7.8,2.33,2.07,4.62,4.27,6.89,6.49-1.08-.28-5.32-1.17-5.64-1.2-4.13-.39-12.4,1.38-14.25,5.62-1.13,2.83.25,6.03,3.08,7.16.19.08.39.14.6.2,3.16.98,6.89-.62,9.43-2.44,2.85-2.04,6.64-8.61,6.96-9.17,1.03,1.01,2.07,2.01,3.09,3.03,3.35,3.34,6.68,6.68,10.09,9.88,1.17,1.12,2.37,2.16,3.57,3.23-1.61-.37-4.56-.98-4.82-1.01-4.13-.39-12.4,1.38-14.25,5.62-1.13,2.83.25,6.03,3.08,7.16.19.08.39.14.6.2,3.14.99,6.89-.62,9.41-2.43s5.86-7.29,6.77-8.83c2.01,1.74,4.04,3.43,6.12,5,.91.65,1.79,1.38,2.76,1.96l2.69,1.79c1.87,1.17,3.61,2.25,5.39,3.28.88.54,1.74,1.02,2.62,1.52-1.58-.62-4.13-1.54-4.34-1.61-4.05-1.01-12.47-.58-14.94,3.39-1.55,2.62-.67,6,1.95,7.55.18.11.38.21.57.29,2.96,1.45,6.89.43,9.65-.98,3.07-1.56,7.69-7.26,8.27-7.97,2.15,1.23,4.24,2.38,6.23,3.45,5.29,2.84,9.92,5.1,13.51,6.78,11.66,10.09,28.06,11.19,28.06,11.19,0,0,.87-19.65-10.7-32.58-3.95-4.26-8.77-7.63-14.13-9.88Zm-20.81,19.17c.36-.81,3.16-7.06,3.35-10.57l1.93-.4c1.18,6.21,3.65,12.1,7.24,17.3-2.12-1-4.42-2.12-6.89-3.36-1.78-.92-3.68-1.92-5.62-2.96h0Z"/><path class="cls-1" d="m229.4,103.16s-19.67.59-31.7,13.11-11.88,32.17-11.88,32.17c0,0,19.65-.61,31.7-13.11,12.05-12.5,11.88-32.17,11.88-32.17Z"/></g><polygon class="cls-1" points="178.05 115.83 197.36 98.46 196.53 97.54 178.03 114.16 177.94 91.42 178.03 91.49 194.38 67.61 193.35 66.9 177.94 89.45 177.69 34.71 176.46 34.71 176.61 71.86 164.32 61.22 163.51 62.16 176.63 73.52 176.74 100.08 158.1 83.59 157.28 84.52 176.74 101.74 176.85 125.93 162.85 114.95 162.09 115.91 176.86 127.52 176.92 143.08 178.16 143.08 178.05 115.82 178.05 115.83"/><polygon class="cls-1" points="160.25 122.53 159.03 122.39 157.47 136.13 149.17 126.87 149.2 126.87 147.09 110.22 145.87 110.39 147.74 125.27 127.14 102.23 126.21 103.05 140.2 118.68 131.34 118.79 131.37 120.03 141.29 119.91 151.1 130.87 137.25 130.88 137.25 132.12 152.21 132.11 161.12 142.07 151.35 142.66 151.43 143.89 162.17 143.24 168.11 149.89 169.03 149.06 158.57 137.37 160.25 122.53"/><polygon class="cls-1" points="206.92 127.43 223.35 124.09 223.1 122.87 208.41 125.86 229.84 103.59 228.95 102.74 214.4 117.84 213.63 109.02 212.41 109.13 213.26 119.03 203.06 129.63 202.01 115.82 200.77 115.91 201.92 130.82 192.64 140.44 191.33 130.76 190.09 130.92 191.54 141.59 185.37 148.01 186.26 148.87 197.14 137.56 212.08 138.13 212.12 136.9 198.29 136.37 206.91 127.41 206.92 127.43"/></g><g id="freepik--Characters--inject-220"><ellipse class="cls-7" cx="215.31" cy="67.7" rx="11.67" ry="11.8"/><path class="cls-7" d="m247.72,99.98s5.51-.23,6.89,9.54c1.38,9.77,7.14,35.26,7.62,38.82s-1.67,7.87-6.89,9.54c-5.22,1.67-8.1-3.34-8.59-5.72s-5.09-31.41-5.09-31.41l6.05-20.77Z"/><path class="cls-5" d="m194.06,123.74s-24.15,10.21-24.15,13.92,14.87,39.97,14.87,39.97l64.07-16.72-7.18-40.13s-9.54-11.89-47.62,2.96Z"/><path class="cls-7" d="m216.09,101.83s-6.89,4.29-12.4,7.37-13.78,7.39-13.78,15.97,6.2,42.64,6.2,46.21c-.11,1.59-.04,3.19.23,4.77,0-.72,41.93-14.54,41.93-14.54,1.29-5.48,2.88-10.89,4.77-16.19,2.15-5.24,0-9.77,2.38-18.34s6.89-14.29,5-20.67-2.38-6.19-9.29-6.44-18.37-.29-25.04,1.86Z"/><path class="cls-2" d="m212.94,98.08s-3.1,1.67-4.3,9.29c-.78,6.08-1.17,12.21-1.19,18.34,0,0,12.86-7.14,14.77-7.39s15.73,5.51,15.73,5.51c-1.12-6.31-2.71-12.52-4.77-18.59-2.85-7.65-17.39-10.5-20.25-7.17Z"/><path class="cls-2" d="m210.56,96.18l.23.81c.92,3.23,4.38,15.16,6.44,21.1,2.38,6.89,5.95,9.77,5.95,9.77l3.57-14.25s-14.06-13.63-16.19-17.43Z"/><path class="cls-2" d="m223.16,65.68s-11.67-1.9-15.73,13.34c-4.05,15.24,9.05,28.35,12.86,33.35s9.32,6.6,12.4,1.67c4.77-7.62,6.2-11.44,6.89-21.45s-.48-16.68-5-21.91c-2.95-3.17-7.09-4.98-11.43-5Z"/><path class="cls-7" d="m234.62,70.68c-2.96-3.18-7.1-4.99-11.44-5,0,0-11.67-1.9-15.73,13.34-1.11,4.32-1,8.87.32,13.13.43-1.09,1.08-1.94,2.07-1.94,2.85,0,3.1,4.05,4.05,3.82s4.75-3.57,4.05-6.67.23-4.52,5.24-4.52,6.19,2.14,7.86,1.67,2.87-3.82,4.53-3.82c1.5.05,2.93.71,3.94,1.82-.37-4.35-2.08-8.49-4.89-11.83Z"/><path class="cls-2" d="m213.9,95.46s-1.92-4.77-4.05-5.25-3.34.96-2.15,5,2.87,5.72,3.82,5.72,1.38-1.38,1.38-1.38"/><path class="cls-6" d="m196.5,144.29s1.19,7.64,6.44,11.03,12.4,1.67,12.4,1.67"/><path class="cls-6" d="m223.16,127.86s3.34,12.62,2.62,18.1"/><path class="cls-2" d="m151.98,124.64s2.89,1.2,5.07,8.68,7.95,21.22,9.4,26.53.96,12.06-5.31,13.78-13.02-15.44-13.99-16.88-3.38-14.95-2.16-22.19,4.34-10.87,6.99-9.92Z"/><path class="cls-5" d="m117.64,149.69s-37.68,36.76-37.68,42.27,22.18,51.1,28.38,50.07,34.11-30.78,34.11-30.78l-24.81-61.57Z"/><path class="cls-2" d="m118.7,130.44c-7.16,6.33-13.93,13.1-20.26,20.26-8.45,9.88-7.72,26.53-5.07,37.86,2.65,11.33,7.48,43.41,13.51,44.63s10.86-11.58,21.47-20.67,19.06-16.88,19.78-22.92-.23-25.32.25-26.77c1.15-7.1,1.79-14.28,1.93-21.47,0-6.99-5.31-14.71-10.61-16.4-5.31-1.7-18.83,3.82-20.99,5.49Z"/><path class="cls-2" d="m167.56,357.32s-7.8,16.04-18.96,26.26c-11.16,10.21-28.68,22.85-28.68,22.85,0,0,18.47,5.84,22.37,6.33s2.91,2.43-1.46,4.38-9.73,3.4-21.89,3.4-19.93,0-20.43-2.92,7.3-10.21,13.13-16.04c5.83-5.83,28.2-42.31,30.14-44.25s15.56-8.27,25.77,0Z"/><path class="cls-7" d="m142.28,412.76c-3.21-.4-16.29-4.42-20.81-5.83l-3.5,7.77c-5.36.87-10.81-.84-14.72-4.6-2.91,3.16-5,5.97-4.75,7.53.5,2.92,8.27,2.92,20.43,2.92s17.5-1.46,21.89-3.4c4.38-1.94,5.36-3.9,1.47-4.38Z"/><path class="cls-2" d="m307.06,357.32s7.79,16.04,18.96,26.26c11.18,10.21,28.69,22.85,28.69,22.85,0,0-18.48,5.84-22.37,6.33s-2.92,2.43,1.46,4.38,9.65,3.4,21.87,3.4,19.94,0,20.43-2.92-7.29-10.21-13.13-16.04c-5.84-5.83-28.2-42.31-30.14-44.25s-15.56-8.27-25.77,0Z"/><path class="cls-7" d="m332.35,412.76c3.2-.4,16.29-4.42,20.81-5.83l3.5,7.77c5.35.86,10.8-.85,14.71-4.6,2.89,3.16,5,5.97,4.74,7.53-.48,2.92-8.27,2.92-20.43,2.92s-17.5-1.46-21.87-3.4c-4.37-1.94-5.35-3.9-1.46-4.38Z"/><path class="cls-7" d="m55.23,364.13s6.81,12.64,6.33,17.02c-.4,3.57-8.9,30.83-12,40.7-.41,1.31.32,2.7,1.63,3.11.31.1.64.13.96.1h0c.99-.09,1.83-.76,2.14-1.71l13.6-41.72s2.43-2.92,10.21-4.37c5.95-1.13,35.61-2.52,49.15-3.11,5.19-.3,9.68,3.57,10.16,8.75v.19c.43,5.61,9.65,34.62,11.74,41.04.24.73.97,1.17,1.72,1.05h0c.84-.14,1.41-.94,1.27-1.78,0-.02,0-.05-.01-.07-1.65-7.53-8.75-39.97-11.32-56.29,0,0-51.55,2.43-63.22-.5-7.02-1.75-13.73-4.54-19.93-8.27,0,0-2.91.01-2.43,5.84Z"/><path class="cls-5" d="m50.88,278.56s-17.52,54.94-14.61,64.67c2.91,9.73,17.02,23.33,22.37,23.33s9.73-53.48,9.73-58.34-9.22-22.33-12.16-29.66c-2.94-7.33-5.33,0-5.33,0Z"/><path class="cls-5" d="m146.58,360.73c-.18,5.51-1.03,9.73-3.34,9.73-4.37,0-52.03,4.85-63.21,4.37-11.18-.48-19.45-6.24-19.45-14.51s.48-44.74,8.75-49.62,52.03-5.35,62.24-5.35c12.57,0,13.11,24.28,13.64,32.51.15,2.37,1.63,14.18,1.35,22.86Z"/><path class="cls-2" d="m134.01,361.21s31.12.98,33.55-3.89,0-15.08-6.31-17.02-32.58-.48-32.58-.48l5.35,21.39Z"/><path class="cls-7" d="m58.64,315.51c-1.85,6.5-2.67,13.25-2.43,20,.48,10.71,3.4,21.4,17.92,30.16,14.51,8.75,62.24-1.46,62.24-1.46l-3.4-63.7s-31.6-3.89-49.11-.48c-17.5,3.4-24.71,13.55-25.22,15.49Z"/><path class="cls-2" d="m286.56,91.38c-3.5,3.69-6.24,8.02-8.08,12.76-2.6,7.3-11.21,29.19-10.94,33.35s3.9,9.39,7.55,6.52,12.5-18.23,13.02-19.02,1.05-11.73,1.05-18.51.45-15.37-2.6-15.11Z"/><path class="cls-5" d="m294.96,114.78c2.85-.55,68,13.78,68,21.13s-14.71,47.78-14.71,47.78l-62.48-16.54s1.25-50.79,9.18-52.37Z"/><path class="cls-2" d="m316.97,83.04s-14.07-1.57-23.98,3.39-9.9,13.29-9.37,21.36c.52,8.08,3.21,51.64,4,54.77s18.67,2.3,29.09,4.38,17.72-6.52,19.3-9.91,19.81-36.48,19.81-43.51-7.55-20.33-18.25-26.59c-6.18-3.71-13.48-5.1-20.59-3.9Z"/><polygon class="cls-7" points="307.06 109.88 309.93 116.13 298.73 155.22 301.33 162.77 308.9 157.04 313.06 116.92 318.79 110.66 315.93 103.62 307.06 109.88"/><path class="cls-2" d="m307.85,93.72c-1.54,2.93-2.85,5.98-3.91,9.12-.7,3.43-1.05,6.92-1.03,10.42,0,0,8.34-3.91,10.68-3.91s7.03,10.7,7.03,10.7c0,0,7.04-10.43,8.09-17.92s-7.04-13.02-12.78-13.02c-3.33-.03-6.41,1.73-8.08,4.62Z"/><path class="cls-2" d="m337.55,86.17s2.62-3.91,3.13-.26-2.6,6.51-4.42,7.55c-.94.65-2.19.65-3.13,0"/><path class="cls-2" d="m310.98,71.05s-2.6-2.08-4.13,2.08,1.05,9.39,1.05,9.39l2.6-5.51"/><path class="cls-2" d="m310.98,105.98c-.41,1.39.38,2.86,1.78,3.27.27.08.55.12.83.11,3.39.26,10.42-7.03,10.94-8.6s-13.55,5.22-13.55,5.22Z"/><path class="cls-2" d="m323.23,55.16s-9.12,4.13-11.21,10.68-5.51,19.81-5.51,24.81,1.56,15.16,4.95,16.68,14.6-5.73,17.71-7.81,6.78-10.16,10.7-14.86c3.91-4.7,7.03-13.29,5.51-20.32s-13.04-15.44-22.15-9.18Z"/><path class="cls-7" d="m345.38,64.28c-1.57-7.04-13.04-15.38-22.15-9.12,0,0-9.12,4.13-11.21,10.68-.99,3.1-2.27,7.72-3.35,12.25,1.78-2.76,4.73-7.51,4.91-8.6.26-1.57.26-1.83,2.08-1.83s5.21,5.21,9.91,6.26,10.94.26,10.94,2.87-3.65,6.78-1.31,8.08c1.83,1.02.19,4.53.36,6.06,1.3-2.21,2.75-4.32,4.34-6.33,3.9-4.69,7.03-13.29,5.47-20.32Z"/><path class="cls-2" d="m311.24,80.44s9.12,4.42,13.55,6,8.86,3.38,7.29,6.24-6.77,4.13-9.9,2.87-2.34-7.81-4.13-8.08-3.11,3.13-6.51,3.13-7.04-5.21-6.52-8.86,6.22-1.3,6.22-1.3Z"/><line class="cls-6" x1="332.86" y1="90.07" x2="338.86" y2="84.08"/><line class="cls-6" x1="306.55" y1="80.17" x2="309.67" y2="73.13"/><path class="cls-7" d="m379.32,135.44s-17.28,15.38-21.76,19.83c-4.48,4.45-4.69,13.01-.43,14.93s17.71-5.97,19.83-7.68,7.9-26.02,2.36-27.08Z"/><path class="cls-5" d="m422.53,173.89s23.22,23.21,18.58,30.64-49.22,30.65-49.22,30.65l-8.37-36.22,39-25.07Z"/><path class="cls-7" d="m392.75,133.95s-9.8-.85-13.42,1.49-6.19,24.11-6.89,37.12c-.7,13.01-2.34,23.43-1.49,26.01s23.03,30.5,26.19,34.35,29.01-35.41,32.64-43.3c3.62-7.9,1.28-15.16-3.42-26.01s-14.71-20.91-20.67-26.45c-3.47-3.22-8.36-4.42-12.93-3.2Z"/><path class="cls-2" d="m392.54,159.75l-.15.83c-.28,1.53-.87,5.03-1.38,8.99-.65,5.33-.43,12.4,1.28,12.4s24.09-16.21,24.52-30.91c.43-14.71-22.56,2.52-24.27,8.7Z"/><path class="cls-2" d="m391.48,130.76s-2.14,7.88-2.14,9.17c.16,1.51.45,3.01.85,4.48,0,0-3.62,5.76-3.2,6.39.51.63,1.07,1.2,1.7,1.71,0,0-.41,8.1,1.28,9.81s8.75.63,8.75.63c0,0-3.42,4.27.43,4.48s14.07-8.27,17.06-13.22,2.76-13.86,0-18.34-19.2-10.67-24.74-5.11Z"/><path class="cls-7" d="m410.03,115.39s-16.43,2.14-19.41,8.53,3.83,14.29,8.74,15.37c2.65.62,5.38.91,8.1.84,0,0-5.11,4.48-1.92,5.51s4.69.43,4.69,1.49-3.2,4.48-.43,4.7,3.62-4.7,5.33-3.62-.63,5.32.22,5.51,8.96-8.27,12.4-17.28c3.45-9.01-1.28-14.5-4.69-17.48s-9-4.63-13.05-3.57Z"/><path class="cls-2" d="m410.03,152.71s2.99-6.89,4.91-5.32,1.28,6.39-.85,8.1-6.19-.22-6.19-.22"/><polyline class="cls-2" points="391.05 171.48 397.87 168.08 396.81 178.3"/><path class="cls-7" d="m445.33,352.62s-12.27,24.15-11.78,28.53c.4,3.57,8.9,30.83,12.02,40.7.4,1.32-.34,2.71-1.66,3.11-.31.09-.63.13-.94.1h0c-.99-.09-1.83-.76-2.14-1.71l-13.59-41.72s-2.44-2.92-10.21-4.37c-5.97-1.13-35.61-2.52-49.16-3.11-5.19-.29-9.67,3.58-10.14,8.75,0,.06,0,.13,0,.19-.44,5.61-9.65,34.62-11.76,41.04-.24.73-.97,1.17-1.72,1.05h0c-.84-.14-1.41-.94-1.27-1.78,0-.02,0-.05.01-.07,1.65-7.53,8.75-39.97,11.33-56.29,0,0,51.53,2.43,63.21-.5,11.67-2.92,25.4-19.78,25.4-19.78,0,0,2.89,0,2.41,5.84Z"/><path class="cls-5" d="m453.56,272.56s13.42,56.08,9.8,65.56-18.67,22.05-24.01,21.64-5.79-54.05-5.43-58.91,10.86-21.62,14.31-28.75c3.45-7.13,5.33.45,5.33.45Z"/><path class="cls-5" d="m348.58,360.73c.17,5.51,1.03,9.73,3.32,9.73,4.38,0,52.03,4.85,63.22,4.37,11.19-.48,19.41-6.24,19.41-14.51s-.5-44.81-8.77-49.62-52.03-5.35-62.24-5.35c-12.57,0-13.12,24.28-13.64,32.51-.15,2.37-1.61,14.18-1.3,22.86Z"/><path class="cls-7" d="m431.05,315.49s-4.02,9.83-4.02,17.63-3.78,23.15-11.58,27.67c-7.8,4.52-16.54,7.06-29.45,5.29-12.91-1.76-41.02-6.3-41.02-6.3,0,0,28.94-20.67,36.23-30.96,7.29-10.28,9.81-18.87,15.6-24.66,5.79-5.79,33.73-11.58,34.24,11.32Z"/><ellipse class="cls-7" cx="257.87" cy="274.08" rx="154.71" ry="119.56"/><ellipse class="cls-5" cx="257.87" cy="270.49" rx="154.71" ry="119.56"/><polygon class="cls-2" points="334.53 197.08 354.16 218.62 319.38 243.56 299.35 219.25 334.53 197.08"/><polygon class="cls-2" points="228.38 198.94 196.27 215.45 224.71 250.3 257.74 228.29 228.38 198.94"/><polygon class="cls-2" points="277.07 233.85 244.97 250.36 273.41 285.21 306.43 263.2 277.07 233.85"/><polygon class="cls-2" points="273.49 236.38 238.91 246.72 260.47 286.21 296.96 270.62 273.49 236.38"/><path class="cls-2" d="m232.23,179.35s6.24-2.33,6.24-.77,0,3.11-2.76,3.9-12.09-1.17-9.74-2.34c2-.73,4.14-1,6.26-.79Z"/><path class="cls-7" d="m197.69,112.37s-8.09,2.85-12.14,7.87-5.95,18.1-6.89,23.82-5.24,27.4-2.85,30.02,27.87,11.44,32.87,12.87,11.03,3.57,14.31,3.34c2.4-.34,4.68-1.24,6.67-2.62,0,0,5.72,2.62,7.14,2.62s3.34-2.62,1.67-5.25-6.31-6.45-8.93-6.45-12.27,1.45-12.27,1.45c0,0-16.44-8.34-21.21-11.67-2.99-2.12-5.78-4.51-8.34-7.14l9.77-30.5"/><path class="cls-2" d="m229.5,178.58c-2.62,0-12.27,1.45-12.27,1.45,0,0-1.82-.91-4.41-2.26-2.01,1.37-3.55,3.32-4.41,5.6-.31,1.1-.48,2.23-.51,3.36l.74.22c5,1.38,11.03,3.57,14.31,3.34,2.4-.34,4.68-1.24,6.67-2.62,0,0,5.72,2.62,7.14,2.62s3.34-2.62,1.67-5.25-6.31-6.45-8.93-6.45Z"/><path class="cls-2" d="m120.38,135.98c-.73.22-6.27,6.27-6.75,13.27s4.82,18.56,5.79,20.49-.23,5.31,2.18,5.31,9.9-11.09,9.9-11.09c0,0,8.43.48,9.4-1.68s-6.75-14.24-8.43-19.3-7.97-8.2-12.07-7Z"/><path class="cls-2" d="m119.9,132.37c.02,3.32-.31,6.63-.96,9.88-.96,3.38-1.2,5.07,2.41,10.38,3.63,4.77,7.58,9.28,11.83,13.51,0,0,.48-5.51.73-8.68s5.06-5.07,6.02-6.52-5.31-2.41-7.72-6.75-2.41-11.81-5.79-12.54-5.25-2.65-6.52.73Z"/><path class="cls-7" d="m152.23,117.65s6.75-1.93,5.51-8.68c-1.24-6.75-13.51-11.81-26.77-10.61s-19.3,9.9-20.51,18.58,7.95,17.12,8.92,18.56-.23,2.89,2.66,3.86c1.97.55,4.05.55,6.02,0,1.46,2.1,4.01,3.14,6.52,2.66,4.13-.96,2.89-9.17,4.59-10.13s2.89-4.13,7.95-7,5.1-7.24,5.1-7.24Z"/><path class="cls-2" d="m131.73,137.67s.48-3.86-4.34-4.34-3.61,4.13-2.65,6.27,4.33,3.86,4.33,3.86c0,0,1.21,5.51,2.91,6.02s11.81,4.82,13.78,4.13,3.86-9.65,3.86-9.65c0,0,3.38-1.7,3.38-3.38s-1.5-6.55-1.5-7.69,2.66-4.59,3.14-7.24-2.41-7.97-2.41-7.97c0,0-1.21,4.34-5.07,4.34-2.61-.06-5.21-.46-7.72-1.2,0,0,1.93,5.06.48,7.24s-3.86,1.68-4.34,2.65-.23,5.31-.48,6.27-1.92,4.29-3.36.68Z"/><path class="cls-2" d="m155.13,163.96s1.2,9.65,3.61,13.51,12.54,18.81,12.54,18.81c0,0-.72,5.07,0,6.52,1.44,3.04,2.66,6.18,3.62,9.4,0,.96,1.93,1.7,2.16.25.16-1.12.24-2.25.25-3.38l4.13,6.27s2.18,1.68,2.89.23.25-9.17.73-12.29-1.93-7.48-3.86-9.41-4.34-5.31-5.07-6.02-3.86-12.06-5.31-19.78c-1.45-7.72-5.31-12.54-8.2-13.02"/><path class="cls-2" d="m184.3,215.6c.73-1.38.25-9.17.73-12.29s-1.93-7.48-3.86-9.41c-1.39-1.48-2.7-3.03-3.93-4.64-2.92.82-5.53,2.47-7.54,4.74l1.57,2.32s-.72,5.07,0,6.52c1.44,3.04,2.66,6.18,3.62,9.4,0,.96,1.93,1.7,2.16.25.16-1.12.24-2.25.25-3.38l4.13,6.27s2.14,1.61,2.85.23Z"/><path class="cls-2" d="m97.23,154.31c-3.15,2.5-5.36,5.98-6.27,9.9-1.68,6.75,3.86,34.25,5.31,42.2,1.45,7.95,8.68,34.46,10.86,36.18s27.5-1.45,36.66-3.13c9.17-1.68,28.94-8.68,33.08-9.9s6.27-7.47,7.47-8.68,3.86-5.31,2.41-6.75-5.51,0-7.24,0-4.82-.23-8.2-.23c-3.44.09-6.39,2.46-7.24,5.79-.46,1.83-1.28,3.55-2.41,5.06,0,0-24.81,3.38-30.14,3.38-3.47-.03-6.94-.26-10.38-.72,0,0-2.89-16.65-5.07-27.01-2.18-10.36-4.13-18.33-5.79-20.99"/><path class="cls-2" d="m179.48,214.12c-1.68,0-4.82-.23-8.2-.23-3.44.09-6.39,2.46-7.24,5.79-.46,1.83-1.28,3.55-2.41,5.06l-1.75.23c.7,1.44,1.13,3,1.27,4.59.07,1.74-.03,3.49-.32,5.21,7.14-2.26,13.78-4.56,16-5.21,4.13-1.2,6.27-7.47,7.47-8.68s3.86-5.31,2.41-6.75-5.54,0-7.24,0Z"/><path class="cls-2" d="m163.16,259.58s6.22.51,8.27.51,16.32-1.54,14.25-3.87-17.64-4.41-17.64-4.41l-4.88,7.77Z"/><polygon class="cls-2" points="194.23 245.59 148.93 266.57 166.53 302.29 211.06 279.77 194.23 245.59"/><path class="cls-2" d="m163.89,257.5s5.43,0,6.73.79,6.73,5.69,7.51,4.4-2.33-4.4-3.62-5.69-2.59-2.33-2.59-2.33"/><path class="cls-2" d="m121.37,239.65l46.65,12.16-7.3,10.7-49.11-5.83s-11.65-16.04,9.76-17.02Z"/><path class="cls-2" d="m88.35,241.69s-11.37,9.65-15.16,21.36-6.2,35.14-6.2,35.14c0,0-12.06,17.23-12.06,18.95s9.99,0,9.99,0l-9.65,16.54s0,13.78,7.58,21.02c7.09,6.73,16.84,9.9,26.53,8.61,8.27-1.38,23.43-19.98,25.15-21.02s-4.13-16.88-5.51-22.74,1.38-9.99,3.1-11.03,11.71-7.24,13.78-11.71,1.72-12.06,1.03-17.92-9.3-26.19-16.88-32.39-14.47-10.34-21.71-4.82Z"/><path class="cls-2" d="m95.24,239.97s-5.17,7.58-5.17,13.09,4.48,14.47,7.92,18.61c2.03,2.44,4.21,4.74,6.55,6.89l7.58-1.72.34,5.86s1.72-3.1,6.55-1.03,7.92.69,7.92-.34c1.65-6.68,1.65-13.65,0-20.33-2.76-12.06-5.86-14.13-10.34-18.61s-14.82-6.2-21.36-2.41Z"/><path class="cls-2" d="m98.69,241.69s-3.79,6.55-1.72,11.71c2.07,5.17,8.61,11.37,13.78,15.85,5.17,4.48,11.71,9.3,11.71,9.3,2.36-7.7,1.49-16.04-2.41-23.09-6.55-12.4-18.26-16.19-21.36-13.78Z"/><path class="cls-2" d="m128.67,210.33c.97,2.24,1.77,4.54,2.41,6.89v2.41s4.82,2.76,4.13,3.79-3.45,5.51-3.45,5.51c.38,3.79.26,7.61-.34,11.37-1.03,4.48.34,6.55-3.45,6.55h-9.65s-1.03,14.47-3.45,14.47-13.44-5.17-15.51-7.92-2.76-5.51-2.07-7.58c2.14-5.52,3.98-11.16,5.51-16.88,1.38-6.2,11.71-11.03,14.13-12.06s11.71-6.55,11.71-6.55Z"/><path class="cls-7" d="m90.42,234.8s-8.27-1.38-12.4-.69-9.3,6.55-9.3,12.4,4.48,9.3,11.71,9.99c7.24.69,12.06-5.51,12.06-8.96,0-4.33-.69-8.64-2.07-12.75Z"/><path class="cls-7" d="m111.44,233.08s13.09-14.13,17.23-22.74,2.76-17.57-3.79-17.57-13.78-2.07-26.19,2.41-17.57,18.95-16.88,26.53,12.06,23.09,17.92,24.12,5.86-9.3,5.86-9.3l5.86-3.45Z"/><path class="cls-2" d="m113.16,235.49s-3.1-6.89-6.89-4.82-.34,9.65,2.07,11.37,6.2-1.03,6.2-1.03"/><path class="cls-6" d="m131.08,219.64s-1.38,4.48-3.1,5.17"/><path class="cls-2" d="m157.5,282.03s-2.65-1.76-2.99.52,2.29,4.75,2.29,4.75c0,0-3.35-3.69-3.53-1.58s1.94,4.41,1.94,4.41c0,0-2.65-1.24-2.65-.18s3.71,4.75,3.87,6.51,3.53-3.69,4.23-7.91c.3-2.61-.93-5.15-3.17-6.52Z"/><path class="cls-2" d="m152.44,308.19c.83-3.05,1.41-6.16,1.72-9.3,0-2.76,3.1-7.58,4.48-10.34s-4.48-7.58-1.72-8.96,4.82,1.38,7.24,4.48,3.1,9.65,1.03,14.13c-1.95,4.14-4.5,7.98-7.58,11.37-1.01,1.08-2.17,2.01-3.45,2.76l-1.72-4.13Z"/><path class="cls-2" d="m155.04,301.57v-8.72c0-4.37,2.45-10.82,2.45-10.82,1.34-.18,2.58.76,2.76,2.1.04.33.02.67-.07,1-.23,2.84-.05,5.69.51,8.48"/><path class="cls-2" d="m78.7,296.47s-4.82,6.89-2.41,14.47c2.41,7.58,36.87,53.41,41.69,53.41s39.62-45.14,41.69-47.89-6.89-9.65-6.89-9.65l-34.8,31.7s-9.3-37.21-13.09-44.1-12.75-7.58-12.75-7.58"/><path class="cls-7" d="m245.35,150.49s4.75-5.24,9.76-6.2c5-.96,7.62,2.38,6.2,8.34s-5.95,7.39-8.59,7.15-6.89-1.38-8.09-4.52c-.79-1.58-.5-3.49.72-4.77Z"/><path class="cls-2" d="m248.2,149.06s-10.24,1.38-12.62,3.1-7.87,10.96-7.87,12.14,3.34,2.38,5,2.38,5.97-5.72,5.97-5.72l-2.15,5.97s2.15-.25,2.38-1.2,3.57-7.39,3.57-7.39c0,0,6.2.25,7.87-2.62s2.85-4.77-2.15-6.67Z"/><path class="cls-2" d="m268.76,133.33s-2.87,9.65-2.87,15.63,4.12,25.29,4.12,25.29c-.57,3.27-2,6.33-4.13,8.86-3.39,3.65-2.34,8.6-.79,10.16s4.7,4.44,5.73,2.6.26-5.21,1.31-6.51,4.95-3.39,5.51-7.3-.26-15.89-.26-22.41,3.39-16.15-.26-22.92"/><path class="cls-2" d="m277.67,171.17c-4.23-.84-6.56.59-7.8,2.14.12.59.21.94.21.94-.57,3.27-2,6.33-4.13,8.86-3.39,3.65-2.34,8.6-.79,10.16s4.7,4.44,5.73,2.6.26-5.21,1.31-6.51,4.95-3.39,5.51-7.3c.2-3.63.19-7.26-.04-10.89Z"/><polygon class="cls-2" points="284.92 170.85 259.9 199.25 285.18 217.24 309.41 186.49 284.92 170.85"/><path class="cls-2" d="m273.97,182.52s.26,8.86.26,10.17,2.87,2.87,3.13-.26c.04-1.75.22-3.49.52-5.21.26-.79,1.82-5.73-.26-9.39"/><path class="cls-2" d="m344.33,113.53s-7.03,7.81-10.42,15.16c-3.39,7.35-6,26.05-6,26.05,0,0-13.55,22.15-15.38,23.98s-.77,1.56-5.21,3.64-10.16,3.13-10.94,4.44-3.65,7.55-4.42,8.34,1.03,2.34,2.08,1.3,4.69-5.21,4.69-5.21l-4.42,10.42c.03.76.67,1.35,1.43,1.32.04,0,.08,0,.12-.01,1.91-.36,3.77-.97,5.51-1.82,0,0,4.44-1.05,6-3.13s7.3-13.3,7.3-13.3c0,0,15.16-9.65,20.58-16.15,4.24-5.14,7.59-10.95,9.91-17.2.77-2.6,10.42-31.52,10.16-36.22s-2.6-5.51-2.6-5.51"/><path class="cls-2" d="m311.76,179.5c-.85.98-.83,1.12-4.44,2.76-4.42,2.09-10.16,3.13-10.94,4.44s-3.65,7.55-4.42,8.34,1.03,2.34,2.08,1.3,4.69-5.21,4.69-5.21l-4.42,10.42c.03.76.67,1.35,1.43,1.32.04,0,.08,0,.12-.01,1.91-.36,3.77-.97,5.51-1.82,0,0,4.44-1.05,6-3.13s7.3-13.3,7.3-13.3c0,0,.94-.59,2.45-1.6-1.39-1.69-3.26-2.91-5.36-3.5Z"/><path class="cls-7" d="m415.14,187.69s-5.76,10.87-6.82,15.16-2.76,8.96-2.76,8.96c0,0-10.67-1.71-19.83-2.76-9.17-1.05-22.18-3.42-25.39-4.05s-9.17-2.36-10.45-1.28-.43.85,1.08,1.49c1.24.38,2.56.45,3.83.22,0,0-2.14.63-4.48,1.49s-6.62,2.34-7.25,3.2.85,3.85,3.2,3.85c1.78-.11,3.56-.11,5.33,0,1.28.21,1.92,1.49,6.19,1.49s10.23-3.42,10.23-3.42c0,0,20.05,9.18,31.35,11.09,11.3,1.92,13.01-.63,17.71-4.27s18.33-26.01,17.27-30.49c-.69-2.8-1.85-5.47-3.42-7.9"/><path class="cls-2" d="m372.61,207.14c-5.58-.91-10.47-1.81-12.28-2.16-3.2-.65-9.17-2.36-10.45-1.28s-.43.85,1.08,1.49c1.24.38,2.56.45,3.83.22,0,0-2.14.63-4.48,1.49s-6.62,2.34-7.25,3.2.85,3.85,3.2,3.85c1.78-.11,3.56-.11,5.33,0,1.28.21,1.92,1.49,6.19,1.49s10.23-3.42,10.23-3.42c0,0,1.57.72,4.07,1.79l.54-6.66Z"/><path class="cls-7" d="m358.84,154.85s-10.02,4.91-13.86,8.27-13.44,24.95-13.64,26.43,7.25,2.36,8.1,1.93,16-17.92,19.83-20.91c2.18-1.42,3.07-4.17,2.14-6.6"/><path class="cls-2" d="m334.96,185.14c-3.17.67-6.31,1.52-9.39,2.55-2.56,1.08-8.53,8.75-7.04,9.18s5.51-4.48,5.51-4.48c-1.42,2.01-2.63,4.15-3.62,6.39-.43,1.71-.85,5.51.85,4.91s5.11-5.33,5.11-5.33c0,0,4.26-2.56,7.68-2.56s5.76-6.39,5.76-6.39c0,0,2.76-2.76,1.71-5.76s-6.57,1.5-6.57,1.5Z"/><path class="cls-2" d="m340.72,183.43c-1.71.07-3.36-.64-4.48-1.93-1.71-2.12-2.76,0-2.76,2.14.05,1.28.9,2.38,2.12,2.76,0,0-3.62,3.42-1.49,4.48,1.44.57,3.06.33,4.27-.63"/><path class="cls-2" d="m415.7,239.03s-10.57-2.01-14.35-2.76-16.11,4.29-19.63,5.51,0,2.27,3.78,3.02,11.32-.74,11.32-.74c0,0-8.27,3.51-6.28,4.02s6.04-.51,9.56-.76,7.04-3.53,7.04-3.53c0,0,16.87,8.27,18.88,8.27s5.03-6.04.74-8.56c-3.53-1.85-7.24-3.35-11.07-4.48Z"/><path class="cls-2" d="m419.47,248.3c-6.61,5-12.46,10.94-17.37,17.61-7.3,10.32-8.56,31.2-7.04,37.21s2.51,13.08,9.81,17.92c7.3,4.84,12.58,6.79,25.17,0,12.58-6.79,19.13-29.44,17.92-46.86s-11.83-29.45-17.37-30.96c-5.54-1.5-11.12,5.07-11.12,5.07Z"/><path class="cls-2" d="m420.24,251.57s-4.53.51-6.79,3.53-1.52,4.02,0,4.78c.96.62,1.6,1.63,1.75,2.76,0,0-5.28,8.56-2.51,10.31s15.09-4.02,18.37-8.27,1.76-11.33-.25-13.34-10.57.23-10.57.23Z"/><path class="cls-2" d="m417.2,218.87c-1.46,1.73-3.15,3.26-5.03,4.52-2.01,1.01-4.52,2.01-2.51,3.53,1.15.84,2.24,1.77,3.27,2.76,0,0-2.52,8.27-1.5,13.08.34,2.37,2.54,4,4.9,3.66.21-.03.41-.07.61-.13,0,0-.76,12.58-1.76,16.36s3.78,3.51,7.55,1.25,4.29-11.58,5.79-18.37,10.57-14.84,4.29-22.4c-6.28-7.55-15.6-4.26-15.6-4.26Z"/><path class="cls-7" d="m458.23,210.31c-9.32-9.56-23.43-7.3-25.41-6.79,0,0-7.86-1.92-12.4-1.16s-6.24,13.78-3.47,21.03c.99,2.6,2.86,4.78,5.28,6.15-.45-.4-3.14-2.94-.55-4.95,1.54-1.26,3.37-2.12,5.32-2.51,0,0-2.19,7.19-1.25,8.46,3.83,5.1-13.4,29.15-14.07,28.76,0,0,5.03,2.84,11.33,5.86,13.91,6.68,30.32-7.58,35.48-19.63,4.11-9.51,8.06-26.71-.23-35.23Z"/><polygon class="cls-2" points="322.72 246.17 310.01 299.33 336.01 311.17 345.83 261.19 322.72 246.17"/><polygon class="cls-7" points="323.6 251.67 313.04 295.84 334.64 305.68 342.81 264.14 323.6 251.67"/><polygon class="cls-2" points="345.83 261.19 381.36 262.93 374.43 314.06 336.01 311.17 345.83 261.19"/><polygon class="cls-9" points="356.29 283.9 358.87 284.01 359.13 282.36 356.6 282.18 356.29 283.9"/><polygon class="cls-9" points="362.28 295.51 362.69 292.99 359.11 292.82 358.72 295.26 362.28 295.51"/><polygon class="cls-9" points="355.94 276.67 356.25 274.89 353.03 274.67 352.7 276.53 355.94 276.67"/><polygon class="cls-9" points="357.53 276.75 359.99 276.86 360.25 275.18 357.84 275.02 357.53 276.75"/><polygon class="cls-9" points="355.63 287.78 358.25 287.97 358.62 285.59 356.02 285.48 355.63 287.78"/><polygon class="cls-9" points="364.63 281.15 365.05 278.68 361.34 278.5 360.97 280.9 364.63 281.15"/><polygon class="cls-9" points="353.96 269.38 357.18 269.53 357.64 266.77 354.46 266.61 353.96 269.38"/><polygon class="cls-9" points="361.1 269.71 361.53 266.98 359.24 266.86 358.77 269.6 361.1 269.71"/><polygon class="cls-9" points="353.69 270.95 353.3 273.11 356.51 273.33 356.9 271.09 353.69 270.95"/><polygon class="cls-9" points="359.75 278.43 357.26 278.32 356.86 280.61 359.38 280.79 359.75 278.43"/><polygon class="cls-9" points="360.87 271.28 358.5 271.17 358.1 273.44 360.5 273.61 360.87 271.28"/><polygon class="cls-9" points="363.46 288.33 363.87 285.83 360.22 285.67 359.85 288.08 363.46 288.33"/><polygon class="cls-9" points="348.89 288.89 346.26 288.71 345.92 290.63 348.56 290.75 348.89 288.89"/><polygon class="cls-9" points="348.29 292.33 345.64 292.2 345.28 294.31 347.9 294.5 348.29 292.33"/><polygon class="cls-9" points="347.62 296.06 345.01 295.88 344.68 297.78 347.29 297.91 347.62 296.06"/><polygon class="cls-9" points="347.02 299.48 344.39 299.35 344.01 301.48 346.62 301.67 347.02 299.48"/><polygon class="cls-9" points="349.55 285.17 346.89 285.05 346.54 287.14 349.17 287.34 349.55 285.17"/><polygon class="cls-9" points="350.82 278.02 348.15 277.9 347.79 279.98 350.45 280.16 350.82 278.02"/><polygon class="cls-9" points="352.1 270.87 349.4 270.74 349.04 272.81 351.72 272.99 352.1 270.87"/><polygon class="cls-9" points="350.16 281.73 347.51 281.55 347.17 283.48 349.83 283.6 350.16 281.73"/><polygon class="cls-9" points="351.44 274.56 348.77 274.37 348.42 276.32 351.1 276.45 351.44 274.56"/><polygon class="cls-9" points="366.22 271.53 362.45 271.35 362.08 273.72 365.82 273.98 366.22 271.53"/><polygon class="cls-9" points="346.34 303.23 343.75 303.05 343.23 305.97 345.82 306.23 346.34 303.23"/><polygon class="cls-9" points="360.47 284.1 364.12 284.26 364.38 282.72 360.72 282.47 360.47 284.1"/><polygon class="cls-9" points="358.22 298.4 361.78 298.57 362.03 297.07 358.47 296.82 358.22 298.4"/><polygon class="cls-9" points="359.34 291.25 362.95 291.42 363.2 289.9 359.6 289.65 359.34 291.25"/><polygon class="cls-9" points="358.02 289.53 355.36 289.35 355.05 291.06 357.75 291.18 358.02 289.53"/><polygon class="cls-9" points="361.52 300.14 357.99 299.97 357.6 302.43 361.1 302.68 361.52 300.14"/><polygon class="cls-9" points="357.35 304 356.83 307.35 360.28 307.69 360.84 304.25 357.35 304"/><polygon class="cls-9" points="352.03 280.28 355.27 280.5 355.67 278.24 352.42 278.1 352.03 280.28"/><polygon class="cls-9" points="352.38 269.3 352.88 266.53 350.16 266.39 349.68 269.19 352.38 269.3"/><polygon class="cls-9" points="361.59 276.93 365.31 277.11 365.56 275.55 361.83 275.29 361.59 276.93"/><polygon class="cls-9" points="362.7 269.78 366.48 269.96 366.92 267.26 363.12 267.06 362.7 269.78"/><polygon class="cls-9" points="357.51 292.75 354.79 292.62 354.38 294.94 357.13 295.14 357.51 292.75"/><polygon class="cls-9" points="353.19 292.55 349.87 292.39 349.49 294.61 352.79 294.83 353.19 292.55"/><polygon class="cls-9" points="354.12 296.52 353.83 298.2 356.64 298.33 356.9 296.71 354.12 296.52"/><polygon class="cls-9" points="356.39 299.91 353.55 299.77 353.14 302.12 356.02 302.32 356.39 299.91"/><polygon class="cls-9" points="348.22 301.78 351.55 302.01 351.95 299.7 348.6 299.55 348.22 301.78"/><polygon class="cls-9" points="352.53 296.41 349.21 296.17 348.89 297.98 352.23 298.13 352.53 296.41"/><polygon class="cls-9" points="350.16 290.82 353.47 290.97 353.77 289.24 350.48 289 350.16 290.82"/><polygon class="cls-9" points="347.93 303.34 347.39 306.38 350.74 306.73 351.29 303.57 347.93 303.34"/><polygon class="cls-9" points="355.77 303.89 352.88 303.68 352.32 306.89 355.26 307.18 355.77 303.89"/><polygon class="cls-9" points="355.01 282.07 351.76 281.84 351.43 283.67 354.71 283.82 355.01 282.07"/><polygon class="cls-9" points="354.43 285.39 351.15 285.24 350.75 287.45 354.03 287.67 354.43 285.39"/><path class="cls-2" d="m420.73,293.86s-3.24.3-8.75,4.78c-5.51,4.48-27.43,42.73-27.43,42.73,0,0-19.89-12.4-24.92-15.85-5.03-3.45-9.05-9.81-11.83-13.59s-3.28-4.29-7.06-4.53-6.53-2.76-7.04-1.01,1.01,2.52,2.01,3.02c.88.34,1.81.51,2.76.51-2.37.36-4.8-.18-6.79-1.52-3.78-2.26-4.78-2.76-4.78-.25s2.76,6.55,4.78,9.05c2.03,2.51,13.59,3.53,13.59,3.53,4.2,8.1,8.91,15.93,14.1,23.43,7.54,10.57,23.65,21.9,28.18,20.38,4.53-1.52,28.43-31.45,34.98-39.76,6.55-8.31,15.16-18.12,13.08-23.65"/><path class="cls-2" d="m352.79,318.84c-1.97-2.47-3.67-4.99-5.04-6.89-2.76-3.78-3.28-4.29-7.06-4.53s-6.53-2.76-7.04-1.01,1.01,2.52,2.01,3.02c.88.34,1.81.51,2.76.51-2.37.36-4.8-.18-6.79-1.52-3.78-2.26-4.78-2.76-4.78-.25s2.76,6.55,4.78,9.05c2.03,2.51,13.59,3.53,13.59,3.53,0,0,.51.99,1.38,2.6,1.64-2.02,3.77-3.58,6.2-4.52Z"/></g></svg>