<?xml version="1.0" encoding="utf-8"?>
<!-- Generator: Adobe Illustrator 27.0.1, SVG Export Plug-In . SVG Version: 6.00 Build 0)  -->
<svg version="1.1" id="Calque_1" xmlns="http://www.w3.org/2000/svg" xmlns:xlink="http://www.w3.org/1999/xlink" x="0px" y="0px"
	 viewBox="0 0 500 500" style="enable-background:new 0 0 500 500;" xml:space="preserve">
<style type="text/css">
	.st0{fill:#263238;stroke:#263238;stroke-miterlimit:10;}
	.st1{fill:#004785;}
	.st2{clip-path:url(#SVGID_00000168809612977318642340000010285692179245570978_);}
	.st3{clip-path:url(#SVGID_00000179610624729177380280000012273383855292481946_);}
	.st4{opacity:0.15;enable-background:new    ;}
	.st5{fill:none;stroke:#263238;stroke-miterlimit:10;}
	.st6{fill:#FFFFFF;stroke:#263238;stroke-miterlimit:10;}
	.st7{fill:#8F8F8F;stroke:#263238;stroke-miterlimit:10;}
	.st8{clip-path:url(#SVGID_00000109720632531502068970000006843917273604083391_);}
	.st9{fill:#8F8F8F;}
	.st10{clip-path:url(#SVGID_00000069377758095228383460000016089965394700529297_);}
	.st11{fill:none;stroke:#263238;stroke-width:4;stroke-miterlimit:10;}
</style>
<g id="freepik--Car--inject-5">
	<circle class="st0" cx="352.4" cy="431" r="26.8"/>
	
		<ellipse transform="matrix(0.7071 -0.7071 0.7071 0.7071 -256.4399 242.9332)" class="st0" cx="165" cy="431" rx="26.8" ry="26.8"/>
	<path class="st1" d="M334.4,380.3c0,0-7.1-4.4-39.5-15.1s-53.3-14.2-85.3-13.3s-75.1,12.9-83.1,16s-11.6,4-9.8,6.2
		s11.5,10.2,10.2,13.8s-23.1,23.1-24.4,26.2s4.4,13.8,5.3,16.4s5.8,3.5,9.8,4s288.2,0,288.2,0s4-4.9,3.1-11.1s-1.8-14.4-5.9-19.7
		c-3.2-4.3-6.6-8.8-15-9.6C382.8,393.5,335.7,380.8,334.4,380.3z"/>
	<g>
		<defs>
			<path id="SVGID_1_" d="M334.4,380.3c0,0-7.1-4.4-39.5-15.1s-53.3-14.2-85.3-13.3s-75.1,12.9-83.1,16s-11.6,4-9.8,6.2
				s11.5,10.2,10.2,13.8s-23.1,23.1-24.4,26.2s4.4,13.8,5.3,16.4s5.8,3.5,9.8,4s288.2,0,288.2,0s4-4.9,3.1-11.1s-1.8-14.4-5.9-19.7
				c-3.2-4.3-6.6-8.8-15-9.6C382.8,393.5,335.7,380.8,334.4,380.3z"/>
		</defs>
		<clipPath id="SVGID_00000055692202940059767810000018038148066614826884_">
			<use xlink:href="#SVGID_1_"  style="overflow:visible;"/>
		</clipPath>
		<g style="clip-path:url(#SVGID_00000055692202940059767810000018038148066614826884_);">
			<path class="st1" d="M334.4,380.3c0,0-7.1-4.4-39.5-15.1s-53.3-14.2-85.3-13.3s-75.1,12.9-83.1,16s-11.6,4-9.8,6.2
				s11.5,10.2,10.2,13.8s-23.1,23.1-24.4,26.2s4.4,13.8,5.3,16.4s5.8,3.5,9.8,4s288.2,0,288.2,0s4-4.9,3.1-11.1s-1.8-14.4-5.9-19.7
				c-3.2-4.3-6.6-8.8-15-9.6C382.8,393.5,335.7,380.8,334.4,380.3z"/>
			<g>
				<defs>
					<path id="SVGID_00000121242253339231003370000007186342720595085754_" d="M334.4,380.3c0,0-7.1-4.4-39.5-15.1
						s-53.3-14.2-85.3-13.3s-75.1,12.9-83.1,16s-11.6,4-9.8,6.2s11.5,10.2,10.2,13.8s-23.1,23.1-24.4,26.2s4.4,13.8,5.3,16.4
						s5.8,3.5,9.8,4s288.2,0,288.2,0s4-4.9,3.1-11.1s-1.8-14.4-5.9-19.7c-3.2-4.3-6.6-8.8-15-9.6
						C382.8,393.5,335.7,380.8,334.4,380.3z"/>
				</defs>
				<clipPath id="SVGID_00000035523637985569739880000010968184447447269028_">
					<use xlink:href="#SVGID_00000121242253339231003370000007186342720595085754_"  style="overflow:visible;"/>
				</clipPath>
				<g style="clip-path:url(#SVGID_00000035523637985569739880000010968184447447269028_);">
					<path class="st4" d="M334.4,380.3c0,0-7.1-4.4-39.5-15.1s-53.3-14.2-85.3-13.3s-75.1,12.9-83.1,16s-11.6,4-9.8,6.2
						s11.5,10.2,10.2,13.8s-23.1,23.1-24.4,26.2s4.4,13.8,5.3,16.4s5.8,3.5,9.8,4s288.2,0,288.2,0s4-4.9,3.1-11.1
						s-1.8-14.4-5.9-19.7c-3.2-4.3-6.6-8.8-15-9.6C382.8,393.5,335.7,380.8,334.4,380.3z"/>
				</g>
			</g>
		</g>
	</g>
	<path class="st5" d="M334.4,380.3c0,0-7.1-4.4-39.5-15.1s-53.3-14.2-85.3-13.3s-75.1,12.9-83.1,16s-11.6,4-9.8,6.2
		s11.5,10.2,10.2,13.8s-23.1,23.1-24.4,26.2s4.4,13.8,5.3,16.4s5.8,3.5,9.8,4s288.2,0,288.2,0s4-4.9,3.1-11.1s-1.8-14.4-5.9-19.7
		c-3.2-4.3-6.6-8.8-15-9.6C382.8,393.5,335.7,380.8,334.4,380.3z"/>
	<rect x="389" y="411.4" class="st0" width="16.9" height="4.4"/>
	<path class="st6" d="M380.9,403.7h2.7c3.5,0,6.7,2.1,8,5.4l2.7,6.7h-8.8L380.9,403.7z"/>
	<path class="st6" d="M405.7,408.3c-0.1,0.3-0.2,0.6-0.3,0.9l-1.8,6.7h4.2C407.4,413.2,406.7,410.7,405.7,408.3z"/>
	<path class="st0" d="M334.4,380.3c0,0-7.1-4.4-39.5-15.1c-7.4-2.4-14.2-4.5-20.7-6.2h-22.9l-4.9,1.3l65.7,20L334.4,380.3z"/>
	<path class="st7" d="M95,373.2v30c0,0,18.3-15,16-19.3S95,373.2,95,373.2z"/>
	<path class="st1" d="M312.2,380.3c0,0-7.1-4.4-39.5-15.1s-53.3-14.2-85.3-13.3s-75.1,12.9-83,16s-11.6,4-9.8,6.2
		s11.6,10.2,10.2,13.8S81.7,411,80.4,414.1s4.4,13.8,5.3,16.4s5.8,3.5,9.8,4s288.2,0,288.2,0s4-4.9,3.1-11.1s-1.9-14.4-5.9-19.7
		c-3.2-4.3-6.6-8.8-15-9.6C360.6,393.5,313.5,380.8,312.2,380.3z"/>
	<g>
		<defs>
			<path id="SVGID_00000121972002413828849340000009842513894702083502_" d="M312.2,380.3c0,0-7.1-4.4-39.5-15.1
				s-53.3-14.2-85.3-13.3s-75.1,12.9-83,16s-11.6,4-9.8,6.2s11.6,10.2,10.2,13.8S81.7,411,80.4,414.1s4.4,13.8,5.3,16.4
				s5.8,3.5,9.8,4s288.2,0,288.2,0s4-4.9,3.1-11.1s-1.9-14.4-5.9-19.7c-3.2-4.3-6.6-8.8-15-9.6C360.6,393.5,313.5,380.8,312.2,380.3
				z"/>
		</defs>
		<clipPath id="SVGID_00000107558662740381613600000012069374620745348780_">
			<use xlink:href="#SVGID_00000121972002413828849340000009842513894702083502_"  style="overflow:visible;"/>
		</clipPath>
		<g style="clip-path:url(#SVGID_00000107558662740381613600000012069374620745348780_);">
			<path class="st4" d="M380.9,403.7c-3.2-4.3-6.6-8.8-15-9.6c-1.4-0.1-5.7-1.1-11.4-2.5c-26.8-0.3-41.8,10.6-81.9,14.3
				c-52.2,4.8-88.4-8.3-131.9-13.5c-18.2-2.2-32.8,0.5-43.7,4.3c-6.8,6.9-15.9,15.5-16.7,17.4c-1.3,3.1,4.4,13.8,5.3,16.4
				s5.8,3.5,9.8,4s288.2,0,288.2,0s4-4.9,3.1-11.1S384.9,409,380.9,403.7z"/>
		</g>
	</g>
	<path class="st5" d="M312.2,380.3c0,0-7.1-4.4-39.5-15.1s-53.3-14.2-85.3-13.3s-75.1,12.9-83,16s-11.6,4-9.8,6.2
		s11.6,10.2,10.2,13.8S81.7,411,80.4,414.1s4.4,13.8,5.3,16.4s5.8,3.5,9.8,4s288.2,0,288.2,0s4-4.9,3.1-11.1s-1.9-14.4-5.9-19.7
		c-3.2-4.3-6.6-8.8-15-9.6C360.6,393.5,313.5,380.8,312.2,380.3z"/>
	<path class="st9" d="M144.2,363.9l17.8,18.8h130.6v-4.3c0,0-26.8-10.5-55-16s-35.3-5-48-4.8S144.2,363.9,144.2,363.9z"/>
	<g>
		<defs>
			<path id="SVGID_00000082343967922875282250000002862826202404538268_" d="M144.2,363.9l17.8,18.8h130.6v-4.3c0,0-26.8-10.5-55-16
				s-35.3-5-48-4.8S144.2,363.9,144.2,363.9z"/>
		</defs>
		<clipPath id="SVGID_00000011012491114143237130000003226328517818223268_">
			<use xlink:href="#SVGID_00000082343967922875282250000002862826202404538268_"  style="overflow:visible;"/>
		</clipPath>
		<g style="clip-path:url(#SVGID_00000011012491114143237130000003226328517818223268_);">
			<path class="st0" d="M207.9,374.5c-16.6-3.8-34-2.4-49.8,4.1l3.9,4.1h130.6v-4.3c0,0-4.3-1.7-11.4-4.1
				C266.6,380,237.4,381,207.9,374.5z"/>
		</g>
	</g>
	<path class="st11" d="M144.2,363.9l17.8,18.8h130.6v-4.3c0,0-26.8-10.5-55-16s-35.3-5-48-4.8S144.2,363.9,144.2,363.9z"/>
	<line class="st5" x1="203.3" y1="385.2" x2="203.3" y2="426"/>
	<circle class="st0" cx="134.8" cy="431" r="26.8"/>
	<path class="st6" d="M134.8,411.7c-10.7,0-19.3,8.6-19.3,19.3c0,10.7,8.6,19.3,19.3,19.3c10.7,0,19.3-8.6,19.3-19.3c0,0,0,0,0,0
		C154.1,420.3,145.5,411.7,134.8,411.7z M147.8,427.1l-11.2,2.1l3.2-10.9C143.6,419.9,146.6,423.2,147.8,427.1L147.8,427.1z
		 M135.8,430v1.9h-1.9V430H135.8z M131,418l2.1,11.2l-10.9-3.2C123.8,422.2,127,419.3,131,418L131,418z M121.9,434.9l11.3-2.1
		l-3.2,10.9C126,442.1,123,438.9,121.9,434.9L121.9,434.9z M138.7,444l-2.1-11.2l10.8,3.2C145.9,439.9,142.7,442.8,138.7,444
		L138.7,444z"/>
	<path class="st6" d="M140.8,431c0-3.3-2.7-6-6-6s-6,2.7-6,6s2.7,6,6,6S140.8,434.3,140.8,431z"/>
	<circle class="st0" cx="323.1" cy="431" r="26.8"/>
	<path class="st6" d="M323.1,411.7c-10.7,0-19.3,8.6-19.3,19.3c0,10.7,8.6,19.3,19.3,19.3c10.7,0,19.3-8.6,19.3-19.3c0,0,0,0,0,0
		C342.4,420.3,333.8,411.7,323.1,411.7z M336.1,427.1l-11.2,2.1l3.2-10.9C332,419.9,334.9,423.2,336.1,427.1L336.1,427.1z
		 M324.1,430v1.9h-1.9V430H324.1z M319.3,418l2.1,11.2l-10.9-3.2C312.1,422.2,315.3,419.2,319.3,418L319.3,418z M310.2,434.9
		l11.2-2.1l-3.2,10.9C314.3,442.1,311.4,438.9,310.2,434.9L310.2,434.9z M327,444l-2.1-11.2l10.8,3.2C334.2,439.9,331,442.8,327,444
		L327,444z"/>
	<path class="st6" d="M329.1,431c0-3.3-2.7-6-6-6s-6,2.7-6,6s2.7,6,6,6S329.1,434.3,329.1,431z"/>
	<path class="st6" d="M380.9,403.7c0,0-19.9-1-20.8,0s6.7,9,9.3,10.8c2.1,1.4,12,1.1,16.1,1C384.7,411.2,383.4,406.9,380.9,403.7z"
		/>
	<path class="st0" d="M206.6,357.8c-1.3-0.1-2.5-0.1-3.7-0.2l-3.4,25h8.9L206.6,357.8z"/>
</g>
</svg>
